<svg width="76" height="92" viewBox="0 0 76 92" fill="none" xmlns="http://www.w3.org/2000/svg">
<path d="M45.9349 10.9121H37.6494H29.3639C24.0171 10.9121 19.1854 13.0786 15.7551 17.0159C12.751 20.462 11.0986 25.0232 11.0986 29.8579V62.1397C11.0986 69.1408 13.9668 73.4843 16.3748 75.8977C19.7136 79.2456 24.3282 81.0881 29.3665 81.0881H37.6494H45.9349C50.9731 81.0881 55.5852 79.2456 58.9266 75.8977C61.3346 73.4843 64.2027 69.1408 64.2027 62.1397V29.8579C64.2027 25.0206 62.5477 20.462 59.5462 17.0159C56.1159 13.0786 51.2816 10.9121 45.9349 10.9121ZM57.8468 62.1397C57.8468 65.7982 56.7486 68.7532 54.5864 70.9223C52.4294 73.0861 49.3573 74.2755 45.9375 74.2755H37.6494H29.3639C25.944 74.2755 22.8719 73.0834 20.7149 70.9223C18.5501 68.7532 17.4546 65.7982 17.4546 62.1397V29.8579C17.4546 26.7543 18.5004 23.8444 20.4012 21.6621C22.6157 19.1186 25.8002 17.7194 29.3665 17.7194H37.6494H45.9349C49.5011 17.7194 52.683 19.1186 54.9002 21.6621C56.8009 23.8418 57.8468 26.7516 57.8468 29.8579V62.1397Z" fill="white"></path>
<path d="M67.973 9.90835C62.4851 3.61076 54.4532 0 45.935 0H37.6495H29.364C20.8458 0 12.8139 3.61076 7.32596 9.90835C2.60148 15.3298 0 22.4133 0 29.8578V62.1396C0 72.8311 4.59376 79.6809 8.4476 83.5439C13.8885 88.9972 21.3164 92 29.364 92H37.6495H45.935C53.9826 92 61.4105 88.9972 66.8514 83.5439C70.7052 79.6809 75.299 72.8338 75.299 62.1396V29.8578C75.299 22.4133 72.6975 15.3298 67.973 9.90835ZM68.9456 62.1396C68.9456 70.3885 65.4474 75.6268 62.5138 78.5685C58.2547 82.8377 52.3668 85.1873 45.9376 85.1873H37.6495H29.364C22.9348 85.1873 17.0495 82.8377 12.7878 78.5685C9.85423 75.6268 6.35597 70.3885 6.35597 62.1396V29.8578C6.35597 24.1469 8.35087 18.7122 11.972 14.5572C16.2625 9.63223 22.6028 6.81 29.364 6.81H37.6495H45.935C52.6988 6.81 59.0365 9.63488 63.327 14.5572C66.9481 18.7122 68.943 24.1469 68.943 29.8578V62.1396H68.9456Z" fill="white"></path>
<path d="M55.4987 26.194C55.117 25.0045 54.5365 23.908 53.7757 22.9628C50.5441 27.7551 45.2994 31.042 39.2859 31.5517V19.5645H36.0072V31.5491C29.9964 31.0393 24.749 27.7525 21.5174 22.9602C20.7566 23.9054 20.1762 25.0019 19.7944 26.1913C23.6587 31.1163 29.4526 34.4138 36.0046 34.8891V40.8256H39.2833V34.8891C45.8406 34.4165 51.637 31.119 55.4987 26.194Z" fill="white"></path>
<path d="M39.2886 57.6405V51.7305H36.01V57.6405C29.5782 58.1077 23.8758 61.2911 20.0142 66.0647C20.4508 67.1984 21.0783 68.1914 21.894 69.0357C25.1465 64.5328 30.224 61.4689 36.01 60.9778V72.4314H39.2886V60.9778C45.0746 61.4689 50.1494 64.5328 53.4045 69.0357C54.2203 68.1914 54.8478 67.1984 55.2844 66.0647C51.4227 61.2884 45.7204 58.1051 39.2886 57.6405Z" fill="white"></path>
<path d="M47.5688 44.1928H53.313L55.0412 42.4883H44.4706L44.8942 43.6326L39.5762 50.0682H48.5388L49.9402 48.3743H44.1124L45.1399 47.1318H50.9678L52.377 45.4273H46.5492L47.5688 44.1928Z" fill="white"></path>
<path d="M43.5686 44.1821L44.0235 43.6326L43.5869 42.4883H34.2582L34.6373 43.4175L34.9458 44.1821H37.2205L32.3574 50.0682H35.4923L40.3579 44.1821H43.5686Z" fill="white"></path>
<path d="M33.3956 42.4883H25.2042L20.2549 48.3957L20.8928 50.0684H28.36L33.7747 43.4919L33.3956 42.4883ZM26.7468 48.3745H23.2799L26.7363 44.1901H30.2032L26.7468 48.3745Z" fill="white"></path>
</svg>
