<?xml version="1.0" encoding="UTF-8"?><svg id="b" xmlns="http://www.w3.org/2000/svg" viewBox="0 0 36.74 40.68"><defs><style>.d{fill:#f8ae21}.e{fill:#e83337}.f{fill:#1c1b1a}.g{fill:#0a0401}</style></defs><g id="c"><g><g><path class="f" d="M12.71,31.26c.61-1.55,4.77-12.01,4.77-12.01l-2.74,1.05,4.48-6.82,11.37-3.77-3.05,3.68,3.82-1.33L12.71,31.26"></path><polyline class="e" points="19.59 13.99 28.06 11.18 24.98 14.88 28.31 13.73 14.74 27.72 18.6 17.99 16.4 18.83 19.59 13.99"></polyline><path class="g" d="M26.01,18.64l-6.94,7.12h6.45v5.47c-1.48,.63-2.45,.85-3.99,.85-2.5,0-4.75-.79-6.51-2.16l-4.13,4.12,2.3-5.92c-1.39-1.91-2.3-4.61-2.3-7.38,0-6.04,4.1-10.48,9.74-10.48,1.4,0,2.69,.2,3.94,.67l8-2.6-2.82,3.53,4.29-1.54-2.79,2.86-.35,.36h3.81V.76h-6.03v1.89c-2.41-.93-5.06-1.38-8-1.38C8.66,1.27,0,9.64,0,21.37s8.32,19.31,20.28,19.31c5.64,0,10.71-1.54,15.09-4.56V18.64h-9.37Z"></path><polygon class="d" points="15.62 25.5 26.38 14.4 23.35 15.43 26.43 11.72 19.59 13.98 17.26 17.52 19.06 16.84 15.62 25.5"></polygon></g><g><path class="g" d="M35.6,.09h-.25v-.09h.59V.09h-.24V.75h-.1V.09Z"></path><path class="g" d="M36.34,.75l-.2-.61V.75h-.1V0h.14l.22,.64,.22-.64h.14V.75h-.1V.14l-.2,.61h-.1Z"></path></g></g></g></svg>