<?xml version="1.0" encoding="UTF-8"?><svg id="b" xmlns="http://www.w3.org/2000/svg" viewBox="0 0 144.63 20.08"><defs><style>.d{fill:#fc2929}</style></defs><g id="c"><g><path class="d" d="M84.63,5.99l.04-.07-.04,.06c-.75-.51-1.83-.75-2.89-.75-2.41,0-4.12,1.19-5.25,2.86-1.12,1.67-1.65,3.83-1.65,5.75,0,1.39,.21,2.68,1.06,3.85,.42,.57,1.43,1.94,4.69,1.95,2.27,0,3.35-.59,3.93-.93l.1-.13c.11-.49,.5-2.75,.65-3.32l-.12-.09c-1.14,.91-2.39,1.57-3.81,1.57-.95,0-1.68-.23-2.16-.66-.49-.44-.73-1.07-.73-1.87,0-.3,.02-.56,.05-.85v-.07s.07,0,.07,0c2.22-.06,3.35-.09,5.21-.09,.61,0,1.29,0,2.12,0l.14-.1c.19-.86,.39-1.85,.39-3.06,0-1.08-.11-2.99-1.78-4.07m-1.47,4.72v.06s-2.19,.03-2.19,.03l-2.15,.03,.02-.07v-.03c.05-.15,.1-.32,.15-.49,.15-.47,.36-.99,.74-1.46,.06-.08,.13-.16,.21-.24,.66-.73,1.3-.84,1.7-.84,.58,0,1,.23,1.27,.57,.05,.06,.08,.12,.12,.19,.13,.23,.21,.49,.24,.76,.02,.1,.02,.2,.02,.3,0,.41-.07,.8-.14,1.2m-8.45-2.45l-.15,.14-2.14-.05-.99,4.67c-.14,.59-.44,2.05-.44,2.52,0,.44,.16,.74,.39,.92,.23,.18,.52,.24,.77,.24,.6,0,.81-.17,1.2-.32l.07,.07-.53,2.69-.18,.18c-.73,.16-1.28,.28-2.05,.28-1.99-.01-3.43-.68-3.44-3,0-1.09,.44-3.06,.77-4.54l.79-3.71-1.68,.06-.1-.14,.49-2.61,.16-.09h1.71l.68-3.44,.13-.15c1.71-.44,2.2-.65,3.77-1.16l.08,.09-.52,2.22-.53,2.49,2.19-.06,.06,.11-.51,2.6Zm26.42-4.41l-.12,.13h-5.65s-.92,4.71-.92,4.71l4.95-.15,.07,.12c-.41,1.36-.5,1.74-.78,2.92l-.13,.12h-4.71s-.62,3.26-.62,3.26l-.78,4.25-.1,.1-4.05,.1-.05-.1,.7-3.62,1.07-5.11c.81-3.97,1.05-5.24,1.81-9.56l.12-.12h5.92l3.76-.1,.07,.1-.58,2.95Zm7.99,2.29c-.79-.55-2.04-.84-3.76-.84-.85,0-1.71,.08-2.57,.24-.77,.15-1.25,.27-1.66,.39l-.11,.11-.56,2.86,.18,.11c.36-.16,.89-.37,1.58-.61,.71-.25,1.36-.38,1.95-.38,.86,0,1.52,.12,1.97,.36,.46,.25,.79,.79,.79,1.39,0,.15-.01,.28-.03,.39-.02,.11-.04,.19-.04,.24v.06s-.29,.02-.58,.04c-.2,.02-.45,.04-.73,.08-.48,.05-1.02,.12-1.49,.2-1.14,.19-4.34,.69-5.29,2.83-1,1.76-.83,4.08,.15,5.22,.35,.4,.88,.78,1.6,.92h0s.14,.03,.16,.03c2.77,.43,4.75-1.98,4.75-1.98l-.3,1.49,.12,.1,3.11-.1,.12-.11,1.83-9.18c.04-.19,.07-.42,.09-.68,.02-.26,.03-.47,.03-.63,0-1.18-.53-1.99-1.32-2.55m-3.2,9.18s-.74,1.17-1.81,1.58c-1.07,.42-1.85,.09-2.15-.33-.24-.32-.75-1.35,.21-2.5,.98-1.16,4.22-1.24,4.22-1.24l-.47,2.49Zm15.08-10.21l-.76,3.95-.16,.16c-.22-.04-.49-.07-.82-.07-1.03,0-2.48,.33-3.63,1.84h-.01s-1.57,8.21-1.57,8.21l-.11,.1-3.41,.1-.09-.09,2.68-13.76,.15-.14,3.38-.33,.13,.15-.39,1.99,.16-.15c.7-.64,1.33-1.08,2.03-1.48,.69-.4,1.39-.6,2.08-.6,.07,0,.14,0,.21,0l.12,.12Zm18.27,3.46c0,.83-.19,1.69-.37,2.53l-1.59,8.09-.12,.1-3.57,.12-.09-.12s1.83-8.94,1.83-9.39c0-.41-.21-1.49-1.35-1.49-.89,0-1.82,.9-1.82,.9l-1.93,9.87-.12,.1-1.54,.05h0s-1.38,.05-1.38,.05l-.68,.02-.04-.06-.04-.07s.28-1.36,.62-3.05h0c.53-2.64,1.21-6.07,1.21-6.34,0-.41-.21-1.49-1.35-1.49-.89,0-1.82,.9-1.82,.9l-1.93,9.87-.12,.1-.55,.02-3.04,.1-.08-.12,2.68-13.75,.13-.13,3.56-.34,.14,.15-.38,1.93s1.72-1.88,3.91-1.93c2.05-.04,2.47,1.93,2.47,1.93,0,0,2.03-1.97,4.2-1.93,1.1,.01,3.13,.49,3.14,3.34m-74.58-2.44c-.78-.55-2.04-.84-3.76-.84-.85,0-1.71,.08-2.57,.24-.77,.15-1.25,.27-1.66,.39l-.11,.11-.56,2.86,.18,.11c.36-.16,.89-.37,1.58-.61,.71-.25,1.36-.38,1.95-.38,.87,0,1.52,.12,1.97,.36,.46,.25,.79,.79,.79,1.39,0,.15-.01,.28-.03,.39-.02,.11-.04,.19-.04,.24v.06s-.29,.02-.59,.04c-.2,.02-.44,.04-.73,.08-.47,.05-1.02,.12-1.49,.2-1.14,.19-4.33,.69-5.29,2.83-1.01,1.76-.83,4.08,.15,5.22,.35,.4,.88,.78,1.6,.92h0s.15,.03,.17,.03c2.77,.43,4.75-1.98,4.75-1.98l-.3,1.49,.12,.1,3.11-.1,.13-.11,1.83-9.18c.04-.19,.07-.42,.09-.68,.02-.26,.03-.47,.03-.63,0-1.18-.53-1.99-1.32-2.55m-3.2,9.18s-.74,1.17-1.81,1.58c-1.07,.42-1.84,.09-2.15-.33-.24-.32-.75-1.35,.21-2.5,.98-1.16,4.22-1.24,4.22-1.24l-.47,2.49Zm-7.49-7.07l-.15,.14-2.14-.05-.99,4.67c-.14,.59-.44,2.05-.44,2.52,0,.44,.16,.74,.39,.92,.23,.18,.52,.24,.78,.24,.6,0,.81-.17,1.2-.32l.07,.07-.52,2.69-.18,.18c-.73,.16-1.28,.28-2.05,.28-1.99-.01-3.43-.68-3.44-3,0-1.09,.44-3.06,.76-4.54l.79-3.71-1.68,.06-.1-.14,.49-2.61,.15-.09h1.71l.68-3.44,.13-.15c1.71-.44,2.21-.65,3.76-1.16l.08,.09-.52,2.22-.53,2.49,2.19-.06,.06,.11-.51,2.6ZM45.96,1.91l-.65,3.35-.14,.05c-.26-.36-.42-.51-.78-.79-.8-.62-1.75-.97-2.72-.97-.76,0-1.39,.24-1.83,.63-.44,.4-.69,.96-.69,1.58,0,1.18,.81,1.76,2.25,2.62l.56,.32c1.21,.79,3.08,2,3.08,4.75,0,3.12-2.01,6.26-6.81,6.27-1.18,0-2.33-.21-3.44-.63-.75-.28-1.11-.53-1.56-.87l-.04-.22,.64-3.27,.14-.05c.29,.37,.65,.68,1.19,1.04,1.16,.77,2.27,.85,2.74,.85,1.7,0,3.03-.97,3.03-2.47,0-1.34-1.07-2.02-2.18-2.68l-.77-.47c-1.21-.79-2.89-1.87-2.89-4.57,0-1.04,.3-2.53,1.22-3.75,1.21-1.61,3.12-2.18,5.03-2.18,2.47,0,3.89,.87,4.55,1.3l.07,.14ZM13.27,14.59c0,.91-.61,1.75-1.62,2.36-1.01,.61-2.41,1-3.97,1s-2.94-.38-3.94-1c-1-.61-1.6-1.45-1.6-2.36,0-.91,.6-1.74,1.6-2.35,1-.61,2.39-.98,3.95-.98s2.95,.37,3.96,.98c1.01,.61,1.62,1.44,1.62,2.35m-3.61-9.14c0-.91,.6-1.74,1.6-2.35,1-.6,2.39-.98,3.94-.98,1.55,0,2.95,.38,3.96,.98,1.01,.61,1.61,1.44,1.61,2.35s-.61,1.75-1.62,2.36c-1.01,.61-2.41,.99-3.96,.99s-2.94-.38-3.94-.99c-1-.62-1.6-1.45-1.6-2.36M28.26,14.59c0,.91-.61,1.75-1.62,2.36-1.01,.61-2.41,1-3.96,1s-2.94-.38-3.94-1c-1-.61-1.6-1.45-1.59-2.36,0-.91,.6-1.74,1.6-2.35,1-.61,2.39-.98,3.94-.98s2.95,.37,3.96,.98c1.01,.61,1.61,1.44,1.61,2.35m-5.58-5.46c-.69,0-1.36,.06-2,.18,1.39-.99,2.25-2.36,2.25-3.87,0-3.03-3.45-5.45-7.73-5.45S7.51,2.42,7.51,5.45c0,1.51,.84,2.88,2.22,3.87-.65-.12-1.33-.19-2.03-.19C3.41,9.14,0,11.55,0,14.58s3.4,5.49,7.67,5.49c3.64,0,6.7-1.78,7.53-4.18,.81,2.4,3.81,4.18,7.46,4.18,4.28,0,7.75-2.46,7.75-5.49s-3.45-5.45-7.73-5.45m-13.72-3.69c0-1.33,1.02-2.25,1.63-2.68,1.21-.85,2.84-1.32,4.61-1.32s3.42,.47,4.64,1.32c.61,.43,1.64,1.34,1.64,2.67-.01,2.22-2.9,4.03-6.29,4.04-1.76,0-3.39-.47-4.59-1.34-1.04-.75-1.63-1.71-1.63-2.7m-1.29,13.17c-1.76,0-3.39-.47-4.59-1.34-1.04-.75-1.62-1.71-1.62-2.7,0-1.33,1.02-2.25,1.63-2.68,1.2-.85,2.84-1.32,4.61-1.32s3.42,.47,4.63,1.32c.61,.43,1.64,1.34,1.64,2.67-.01,2.22-2.91,4.03-6.3,4.04m5.55-7.86c.62,.12,1.28,.18,1.96,.18s1.36-.07,2-.19c-.95,.68-1.64,1.55-1.97,2.52-.33-.97-1.03-1.83-1.98-2.51m9.44,7.86c-1.76,0-3.39-.47-4.59-1.34-1.04-.75-1.63-1.71-1.63-2.7,0-1.33,1.03-2.25,1.63-2.67,1.21-.86,2.84-1.32,4.61-1.32s3.42,.47,4.63,1.32c.61,.43,1.64,1.34,1.64,2.67-.01,2.22-2.9,4.03-6.29,4.04"></path><path class="d" d="M144.63,7.31c0,1.18-.85,2.07-1.96,2.07s-1.96-.89-1.96-2.07,.84-2.08,1.98-2.08,1.95,.9,1.95,2.08m-3.67,0c0,1.01,.76,1.82,1.7,1.82s1.71-.82,1.71-1.83c0-.48-.18-.97-.49-1.29-.29-.32-.76-.52-1.19-.52-.99,0-1.73,.78-1.73,1.82m1.61-1.17c.25,0,.36,.01,.51,.06,.25,.08,.41,.32,.41,.58,0,.28-.18,.5-.46,.59l.48,1.12h-.33l-.44-1.06h-.02s-.21,0-.21,0h-.26v1.06h-.3v-2.35h.63Zm-.02,1.05c.29,0,.4-.02,.49-.09,.09-.06,.15-.18,.15-.31,0-.17-.08-.29-.22-.35-.08-.04-.21-.05-.47-.05h-.25v.79h.31Z"></path></g></g></svg>