<?xml version="1.0" encoding="UTF-8"?><svg id="b" xmlns="http://www.w3.org/2000/svg" viewBox="0 0 67.69 32.67"><defs><style>.h{fill:#fff}.i{fill:#d71921;fill-rule:evenodd}</style></defs><g id="c"><g><path class="h" d="M67.69,11.38l-8.92-.18h-.01c-1.55-.02-2.89,.4-3.9,1.18-.77-.99-2.05-.99-3.19-.99l-8.13-.13,2.64-6.6-25.6-.06,1.72-4.61H12.3l-.32,1.32c-.72,2.97-1.84,3.27-2.35,3.33H2.99L0,12.86H7.82L3.27,25.6c-.34,.86-1.3,3.37-.02,5.25,.79,1.16,2.18,1.75,4.13,1.75h15l.03-.08h6.73l2.52-6.54h2.64c.61,0,1.24,0,1.86-.1l-2.42,6.64h7.27l-.05,.15h15.77c2.3,0,3.92-1.18,4.55-3.3l2.76-8.45c.2-.62,.51-1.6,.13-2.5h1.03l2.48-7.04Z"></path><g id="d"><g id="e"><g id="f"><path id="g" class="i" d="M32.8,16.66h2.37c.32,0,.48,.26,.37,.58l-.95,2.6c-.1,.27-.4,.49-.67,.49h-2.46l1.34-3.68Zm5.82-3.53l-8.94-.14-6.49,17.79h4.76l2.52-6.54h3.46c2.09,0,3.11,.16,3.89-2.25l2.48-7.02c.6-1.71,.25-1.84-1.68-1.84Zm7.21,3.53h2.37c.32,0,.48,.26,.37,.58l-.95,2.6c-.1,.27-.4,.49-.67,.49h-2.46l1.34-3.68Zm5.82-3.53l-8.94-.14-6.49,17.79h4.76l2.52-6.54h3.46c2.09,0,3.11,.16,3.89-2.25l2.48-7.02c.6-1.71,.25-1.84-1.68-1.84Zm7.08-.19l6.52,.13-1.27,3.62h-4.53l-.72,2.1h2.97c1,.02,1.11,.29,.7,1.6l-2.77,8.46c-.38,1.29-1.25,2.08-2.9,2.08h-13.39l1.59-4.97,11.19-.21,.89-2.88h-2.94c-1.38-.04-1.59-.82-.85-2.71l1.66-4.94c.49-1.4,1.81-2.31,3.86-2.28M18.08,6.34l1.72-4.6h-6.14c-.64,2.65-1.82,4.42-3.93,4.66H4.21l-1.73,4.73h7.8l-5.38,15.09c-.98,2.51-.95,4.66,2.49,4.66h13.8l1.79-4.73H13.52c-2.27,0-2.2-.7-1.52-3.13l3.56-9.53c.76-1.95,2.32-2.51,4.93-2.43h21.26l1.86-4.66-25.54-.06Zm1.99,10.38h1.88c.38,0,.58,.32,.44,.71l-.79,2.19c-.14,.39-.57,.71-.96,.71h-1.88c-.38,0-.58-.32-.44-.71l.79-2.19c.14-.39,.57-.71,.96-.71m-1.35-3.82h7.33c.9,0,1.36,.74,1.02,1.65l-3.06,8.15c-.34,.91-1.35,1.65-2.26,1.65h-7.33c-.9,0-1.36-.74-1.02-1.65l3.06-8.15c.34-.91,1.35-1.65,2.26-1.65"></path></g></g></g></g></g></svg>