<svg width="1080" height="1080" viewBox="0 0 1080 1080" fill="none" xmlns="http://www.w3.org/2000/svg">
<path d="M1080 0H0V1080H1080V0Z" fill="black"/>
<g clip-path="url(#clip0_72_148055)">
<path d="M576.188 425.071H437.304V227.923H251.908V791.638H437.304V581.006H576.188V791.638H761.801V227.923H576.188V425.071Z" fill="white"/>
<path d="M552.28 204V401.148H527.503V266.744L459.908 204H228V814.256L295.703 877H527.611V666.259H552.389V814.147L620.092 876.891H852.109V726.284C852.109 726.176 852.109 726.176 852.109 726.067V266.744L784.297 204H552.28ZM761.801 791.638H576.188V581.006H437.304V791.638H251.908V227.923H437.304V425.071H576.188V227.923H761.693V791.638H761.801Z" fill="#00609F"/>
<path d="M602.596 254.347V451.495H411.005V254.347H278.316V765.214H411.005V554.582H602.596V765.214H735.285V254.347H602.596Z" fill="black"/>
<path fill-rule="evenodd" clip-rule="evenodd" d="M847.762 593.838C847.762 593.838 847.653 593.838 847.653 593.729C844.936 592.315 844.067 590.575 842.002 587.204C839.72 583.616 838.851 588.401 833.743 581.767C828.309 575.025 831.787 577.309 829.396 574.047C827.005 570.893 826.462 572.851 825.592 573.286C824.614 573.829 821.898 573.286 818.529 569.588C815.269 565.782 814.725 567.631 810.922 563.281C807.118 559.04 805.923 557.953 805.923 557.953C803.966 555.887 802.01 553.712 799.837 551.755C799.837 551.755 797.337 555.017 795.055 552.625C792.556 550.341 790.491 550.341 787.666 544.904C784.731 539.358 785.275 546.535 779.515 542.294C778.102 541.316 777.45 540.772 776.907 540.663L776.798 540.554C775.82 539.467 773.429 537.727 770.93 535.879C769.409 534.9 767.996 533.921 766.583 532.942C765.714 532.399 764.844 531.964 764.192 531.42C763.431 530.876 762.997 530.659 762.997 530.659C762.671 530.333 762.236 529.898 761.91 529.571C760.497 528.158 759.085 526.853 757.672 525.439C757.672 525.439 757.781 529.68 754.52 526.636C751.369 523.699 751.043 525.657 746.805 523.482C742.566 521.416 744.088 521.851 740.067 519.241C738.219 518.045 736.698 517.719 735.394 517.719C733.872 517.61 732.677 517.719 731.59 516.74C729.634 514.891 726.917 515.218 724.635 513.913C722.244 512.499 720.832 514.021 719.528 511.629C718.332 509.128 712.79 508.367 712.79 508.367C712.79 508.367 709.53 507.388 708.443 506.736C707.356 505.975 706.161 506.736 703.77 505.54C701.379 504.126 699.64 505.54 698.445 504.778C697.25 503.909 696.489 503.691 694.207 502.495C692.142 501.408 692.142 502.277 689.86 500.538C687.795 498.906 688.23 501.19 688.23 501.19C688.23 501.19 685.839 499.776 685.513 499.45C685.296 499.124 683.122 498.037 682.688 497.602C682.144 497.058 680.079 497.493 678.993 497.275C677.906 497.058 676.276 497.384 675.732 496.623C675.189 495.753 670.625 495.644 670.625 495.644C670.625 494.448 601.509 481.617 598.249 481.617C612.702 485.205 626.83 489.337 640.74 494.122C642.696 494.666 644.869 495.101 646.825 495.644V497.71C646.825 497.71 649.977 497.71 652.368 498.363C654.759 499.015 654.215 500.646 654.215 500.646C654.215 500.646 655.302 501.734 656.497 502.06C657.584 502.169 660.41 502.821 662.583 504.561C664.648 506.301 665.952 505.322 665.952 505.322C667.691 505.54 669.321 505.866 671.06 506.083C670.733 506.41 670.299 506.845 669.973 507.062C672.472 507.388 674.972 507.823 677.254 508.149C677.254 508.149 678.993 510.433 679.971 510.868C680.84 511.412 683.231 512.608 685.187 513.695C687.143 514.783 688.121 515.326 689.425 514.674C690.838 513.913 697.902 518.915 697.902 519.024C697.902 519.024 698.228 522.286 698.771 523.156C699.314 524.026 710.29 526.309 711.812 528.375C713.333 530.333 717.463 530.006 718.984 530.224C720.506 530.55 723.766 531.638 724.853 533.486C725.505 534.9 732.134 537.945 735.503 539.467C736.698 540.011 737.459 540.337 737.459 540.337C739.523 541.207 741.697 541.968 743.762 542.838C742.892 542.729 742.023 542.512 741.154 542.294C741.154 542.294 742.566 545.448 743.544 545.883C744.522 546.535 748.869 549.362 749.413 550.124C750.065 550.885 754.086 553.712 755.824 553.821C757.346 553.821 760.063 555.234 761.91 556.104C762.453 556.322 762.779 556.648 762.997 556.757C763.54 556.974 763.866 556.974 764.192 557.301C764.953 557.518 765.714 558.062 766.583 559.258C767.235 560.237 767.996 561.65 768.648 563.716C769.3 565.456 770.061 566.435 770.93 566.979C773.212 568.175 776.038 565.891 777.885 565.782C780.276 565.782 781.363 568.61 783.971 571.111C786.579 573.503 789.078 574.373 789.078 574.373C790.708 574.917 792.338 575.46 793.751 576.113C792.882 575.895 791.904 575.787 790.926 575.569C790.926 575.569 790.382 577.309 792.338 578.07C794.295 578.723 797.12 580.354 798.207 581.224C799.185 581.985 804.945 587.204 804.945 587.639C805.053 588.292 808.531 590.358 808.531 590.358C808.531 590.358 809.074 592.098 813.204 593.62C817.442 595.034 816.79 598.079 816.79 598.079C816.79 598.079 821.354 600.906 822.224 603.298C823.093 605.69 824.723 606.234 827.549 606.887C828.527 606.995 829.07 607.539 829.179 607.865C829.179 607.648 829.287 607.539 829.287 607.213C829.939 608.3 830.483 609.605 831.026 610.801C831.026 610.801 832.221 612.867 832.982 612.759C833.634 612.759 835.047 613.629 836.242 614.498C837.22 615.368 836.351 615.151 840.372 617.761C844.284 620.262 843.849 622.219 846.023 624.285C847.001 625.264 847.544 625.808 847.87 626.569C848.414 627.439 848.74 628.417 849.609 630.701C850.37 632.55 851.348 633.419 852.217 633.854V595.36C851.131 593.62 850.261 595.251 847.762 593.838ZM828.961 607.648C828.853 608.191 828.744 608.735 828.635 609.279C828.527 609.279 829.287 608.409 828.961 607.648ZM850.479 687.79C849.609 688.443 849.826 687.138 847.653 682.679C847.001 681.592 846.24 680.178 845.262 678.547C840.589 670.935 839.611 670.826 839.611 670.826C838.633 670.065 837.546 669.413 836.46 668.869C837.22 668.652 837.981 668.543 838.742 668.325C838.742 668.325 835.916 662.671 832.221 661.91C828.527 661.148 832.113 660.496 829.939 655.603C827.875 650.818 826.679 650.166 819.398 647.991C812.117 645.925 816.573 646.36 814.616 643.532C812.769 640.705 804.945 638.422 804.945 638.422C805.814 637.878 806.683 637.552 807.444 637.008C805.814 636.464 804.075 636.029 802.336 635.377C802.88 634.616 803.314 633.854 803.966 632.984C803.966 632.984 803.967 629.396 800.598 626.895C797.12 624.394 797.881 624.503 796.903 621.893C795.925 619.283 788.644 614.825 786.905 612.976C785.166 611.127 783.536 610.584 779.08 610.584C774.516 610.475 776.798 606.452 773.755 604.059C772.995 603.407 772.017 602.863 770.93 602.319C769.517 601.558 767.996 600.797 766.583 600.036C765.714 599.71 764.953 599.166 764.192 598.622C763.214 597.97 762.345 597.209 761.801 596.339C761.693 596.339 761.693 596.23 761.693 596.23C759.845 593.076 759.302 594.381 755.39 594.164C751.26 594.055 750.391 591.337 747.674 589.379C744.848 587.531 742.675 586.117 741.697 584.377C740.61 582.637 738.545 581.441 735.394 580.789C732.134 580.136 726.917 576.439 725.939 576.004C725.07 575.46 722.57 574.917 718.332 574.917C714.094 574.917 708.552 570.241 708.443 570.241C709.638 570.132 710.942 569.915 712.138 569.697C712.138 569.697 709.53 567.74 707.574 568.175C705.509 568.501 704.313 567.522 702.901 566.435C701.271 565.239 697.25 560.454 693.881 561.215C690.512 561.868 689.643 561.106 688.882 560.998C688.012 560.78 686.491 559.149 684.535 558.714C680.949 556.757 621.07 536.531 613.354 535.77C630.307 544.252 651.607 551.102 667.039 560.889C672.364 564.26 672.581 560.672 674.32 561.976C676.167 563.173 685.078 567.087 686.817 568.066C688.447 568.827 691.381 568.718 691.816 573.72C692.033 578.723 697.032 576.004 700.401 578.288C703.661 580.68 704.313 582.42 706.596 586.769C708.986 591.228 710.073 589.053 712.573 590.575C715.072 592.098 724.635 594.273 726.157 596.012C727.243 596.991 731.59 597.97 735.285 600.253C737.676 601.667 739.741 603.624 740.502 606.234C742.24 613.194 749.63 611.236 749.63 616.021C749.739 619.718 756.911 623.307 761.693 626.025C762.562 626.569 763.431 627.004 764.084 627.547C764.627 627.765 764.953 628.2 765.17 628.417C765.496 628.744 766.04 629.179 766.366 629.396C767.778 630.266 769.3 630.81 770.713 631.897C772.343 633.093 773.647 635.159 774.407 639.618C775.82 649.187 782.449 640.379 785.818 644.076C789.187 647.665 794.729 659.3 794.947 660.17C795.273 660.931 798.316 659.844 798.424 662.888C798.533 666.042 803.206 664.737 807.118 667.347C810.813 670.174 809.618 672.566 810.704 672.566C811.9 672.675 811.9 673.654 811.791 676.916C811.791 680.178 813.53 678.765 813.638 681.157C813.747 683.44 814.725 683.44 814.834 683.44C814.834 684.854 814.834 686.05 814.725 687.355C815.486 686.594 816.138 685.724 816.681 684.963C816.681 684.963 818.746 685.833 819.398 688.225C820.159 690.726 824.723 689.856 825.81 694.206C826.896 698.664 829.613 699.86 830.374 702.688C831.135 705.406 834.069 701.926 835.156 703.34C836.242 704.536 838.416 703.666 839.394 706.929C840.372 710.082 844.067 711.278 844.393 713.018C844.719 714.758 845.914 716.824 845.588 718.89C845.48 720.304 846.349 720.847 847.327 721.717C847.653 721.935 848.088 722.37 848.305 722.696C849.392 724.327 851.674 723.457 851.674 725.85V686.703C851.457 687.029 850.805 687.355 850.479 687.79ZM802.771 745.532C802.771 745.532 802.445 742.161 800.924 739.551C799.402 737.05 798.315 738.029 797.555 735.636C796.685 733.026 795.49 733.788 796.033 729.329C796.685 724.871 794.295 729.329 792.773 726.611C791.36 723.892 793.425 721.174 793.425 721.174C793.751 720.304 794.295 719.325 794.838 718.455C794.295 718.999 793.86 719.434 793.425 719.869C793.425 719.543 793.534 718.999 793.643 718.673C793.751 718.129 793.86 717.803 793.969 717.477C793.751 717.477 793.425 717.368 793.317 715.845C793.317 713.888 792.665 714.975 792.23 712.692C791.904 710.408 789.622 712.148 785.818 709.538C782.015 706.82 782.993 705.841 783.101 702.253C783.101 698.664 782.558 699.534 782.993 697.033C783.536 694.423 782.232 696.381 780.928 695.293C779.406 694.315 775.059 695.076 773.538 689.747C771.799 684.31 771.799 685.833 772.017 684.419C772.125 683.549 771.473 683.767 770.821 683.875C770.495 683.984 769.952 683.984 769.626 683.875C768.539 683.549 768.104 683.332 768.213 681.483C768.43 679.635 767.344 679.743 767.344 679.743C767.126 679.091 766.692 678.33 766.474 677.677C766.366 677.46 766.366 677.351 766.257 677.025C766.257 677.025 764.192 677.786 764.192 676.807C764.192 676.698 764.192 676.699 764.192 676.59C764.192 676.59 764.192 676.59 764.192 676.481C764.192 675.611 762.997 674.741 761.801 673.762C761.149 673.11 760.606 672.566 760.389 671.914C760.28 670.391 759.411 671.805 757.998 671.153C756.476 670.609 756.368 669.63 755.716 667.673C755.064 665.716 753.651 668.76 751.803 665.063C750.065 661.475 751.695 662.562 750.934 660.822C750.173 659.082 749.413 660.17 748.869 660.605C748.109 661.148 746.587 660.931 745.5 658.865C744.414 656.799 743.653 657.995 742.349 655.494C741.154 653.102 740.828 652.558 740.828 652.558C740.067 651.362 739.415 650.166 738.763 648.969C738.763 648.969 736.698 651.253 735.829 649.948C735.72 649.731 735.611 649.622 735.285 649.296C734.524 648.535 733.655 648.1 733.438 645.381C733.22 642.01 731.699 646.577 729.526 644.185C728.982 643.641 728.656 643.424 728.547 643.424V643.315C728.33 642.119 723.331 637.334 723.331 637.334C722.788 636.355 722.353 635.268 721.81 634.072C721.81 634.072 720.723 636.899 719.854 634.942C718.876 633.093 718.115 634.398 716.485 633.202C714.746 632.006 715.398 632.223 713.985 630.592C712.464 628.852 710.616 630.375 710.182 629.07C709.53 627.874 707.9 628.091 707.248 627.221C706.378 626.351 705.183 627.33 705.291 625.699C705.291 624.068 702.683 623.633 702.683 623.633C702.683 623.633 701.271 622.98 700.945 622.545C700.619 622.002 699.749 622.545 698.88 621.675C698.01 620.805 696.598 621.784 696.272 621.132C695.946 620.588 695.511 620.371 694.75 619.609C693.989 618.739 693.772 619.392 693.12 618.087C692.577 616.891 692.142 618.631 692.142 618.631C692.142 618.631 691.381 617.652 691.273 617.434C691.273 617.108 690.512 616.456 690.403 616.021C690.295 615.695 689.208 615.803 688.665 615.695C688.121 615.586 687.143 615.803 687.143 615.151C687.143 614.498 684.861 614.39 684.861 614.39C684.861 614.172 658.453 602.863 654.976 601.015C660.192 604.712 665.409 608.626 670.516 612.432C671.277 612.976 672.146 613.302 673.016 613.846C672.798 614.39 672.472 614.825 672.255 615.477C672.255 615.477 673.776 615.477 674.754 616.13C675.732 616.673 674.972 617.761 674.972 617.761C674.972 617.761 675.08 618.631 675.624 618.848C676.167 618.957 677.363 619.501 677.906 620.697C678.449 622.11 679.427 621.349 679.427 621.349C680.188 621.567 680.949 621.675 681.709 622.002C681.492 622.219 681.166 622.545 680.84 622.763C682.035 622.98 683.231 623.307 684.318 623.633C684.318 623.633 684.426 625.264 684.861 625.481C685.078 625.808 685.948 626.895 686.6 627.547C687.252 628.417 687.686 628.635 688.556 628.309C689.425 627.765 691.49 631.245 691.49 631.245C691.49 631.245 690.729 633.528 690.729 634.072C690.729 634.616 695.837 636.029 696.054 637.443C696.163 638.857 698.662 638.422 699.314 638.639C700.075 638.857 701.705 639.4 701.597 640.596C701.597 641.793 706.704 644.837 706.704 644.837C707.574 645.381 708.552 645.816 709.421 646.36C709.095 646.251 708.552 646.142 708.226 646.033C708.226 646.033 708.117 648.1 708.443 648.426C708.769 648.752 710.399 650.492 710.508 651.036C710.616 651.579 712.247 653.102 713.225 653.102C714.203 652.993 715.833 654.08 716.593 654.624C717.354 654.95 718.332 654.624 718.006 658.865C717.68 662.997 721.375 659.735 722.788 659.517C724.201 659.409 723.983 661.148 725.07 662.453C725.939 663.867 727.135 664.193 727.135 664.193C728.004 664.411 728.765 664.737 729.634 664.954C728.982 664.954 728.547 664.954 728.004 664.846C728.004 664.846 727.243 666.042 728.221 666.368C729.2 666.586 730.504 667.347 730.83 667.89C731.373 668.434 733.438 671.153 733.438 671.479C733.438 671.805 734.959 672.893 734.959 672.893C734.959 673.001 734.959 673.436 735.611 673.762C735.937 673.98 736.372 674.306 737.133 674.415C739.415 674.959 738.328 676.916 738.328 676.916C738.328 676.916 740.61 678.33 740.61 679.526C740.61 680.939 741.48 681.157 743.218 681.266C743.87 681.266 743.979 681.483 743.979 681.592C744.088 681.483 744.088 681.374 744.196 681.266C744.305 681.918 744.414 682.679 744.522 683.223C744.522 683.223 744.74 684.419 745.283 684.31C745.609 684.202 746.37 684.528 746.913 684.963C747.457 685.289 746.913 685.289 748.869 686.485C750.825 687.464 750.282 688.769 751.26 689.747C752.238 690.726 752.13 690.944 752.347 693.118C752.564 695.184 754.412 694.75 754.412 694.75C754.52 695.293 754.629 695.837 754.738 696.381C754.738 696.381 755.281 695.619 755.824 694.641C756.476 693.662 756.368 696.163 757.346 698.773C758.433 701.492 758.867 700.295 761.475 700.513C761.584 700.513 761.801 700.513 762.019 700.73C762.888 700.839 763.758 701.818 764.41 702.796C765.605 704.645 766.474 707.037 766.692 707.364C766.692 707.472 766.692 707.472 766.8 707.581C767.126 708.233 768.43 708.668 769.409 708.56C770.604 708.56 770.495 709.647 770.821 712.366C770.93 713.997 771.039 714.106 771.147 714.106C771.147 714.106 771.147 714.106 771.147 714.214V714.54C771.147 715.193 771.365 715.628 773.647 715.41C776.364 715.302 774.842 715.519 775.929 718.89C776.907 722.152 778.32 721.717 778.32 721.717C778.102 722.261 777.776 722.696 777.559 723.349C777.559 723.349 779.189 722.696 779.08 723.131C779.08 723.457 780.819 723.783 781.036 723.783C781.254 723.675 782.667 723.566 782.558 724.001C782.558 724.545 784.297 727.481 784.84 727.589C785.383 727.589 788.752 730.525 789.078 731.722C789.296 732.809 791.904 737.811 791.904 738.029C797.555 742.596 803.206 747.38 808.531 752.056C806.249 749.664 804.51 747.489 802.771 745.532ZM847.653 531.42C846.023 531.638 844.284 532.399 842.545 531.094C838.959 528.267 830.7 519.459 830.048 518.806C829.396 518.154 827.331 519.024 826.244 516.849C825.049 514.565 821.572 515.653 817.442 513.913C813.204 512.064 813.312 510.324 812.334 510.324C811.248 510.324 810.813 509.672 809.618 507.388C808.422 505.105 807.553 506.301 806.357 504.67C805.379 503.256 804.619 503.147 804.401 503.147C803.858 502.277 803.314 501.299 802.662 500.429C802.554 501.081 802.336 501.516 802.01 502.169C802.01 502.169 799.946 501.842 798.315 500.211C796.577 498.689 793.099 499.668 790.165 496.84C787.014 494.122 784.188 493.578 782.123 492.056C780.167 490.316 779.406 493.034 777.668 492.273C776.038 491.512 774.842 492.382 772.343 490.533C771.799 490.207 771.365 489.881 770.821 489.663C769.3 489.011 767.67 488.685 766.474 488.25C765.714 488.032 765.062 487.706 764.736 487.489C764.627 487.38 764.41 487.162 764.084 486.945C763.323 486.401 762.453 485.966 761.693 485.314C761.149 484.988 760.715 484.553 760.497 484.226C759.628 483.139 757.78 483.139 755.933 482.378C754.086 481.725 752.564 482.595 751.26 481.182C749.739 479.55 747.783 479.333 744.414 479.985C740.936 480.638 739.741 479.877 739.197 479.333C738.654 478.789 737.459 477.267 737.459 477.267C736.807 477.158 736.046 476.941 735.394 476.723C722.244 473.352 698.336 468.676 694.75 468.024C698.228 469.22 720.288 477.919 721.049 479.659C721.918 481.29 725.396 481.399 726.265 481.182C727.135 480.964 731.373 482.595 732.351 484.444C733.003 485.531 734.307 486.836 735.503 487.597C736.155 488.141 736.698 488.359 737.241 488.467C738.654 488.685 743.218 490.098 745.718 492.817C748.217 495.427 750.499 496.079 753.108 494.774C755.607 493.578 760.28 497.71 761.91 498.58C762.019 498.689 762.127 498.798 762.236 498.798C762.453 498.798 763.323 499.015 764.192 499.559C765.062 499.776 766.04 500.211 766.583 500.32H766.692C767.67 500.429 768.104 501.408 769.3 503.8C769.952 504.778 770.387 505.213 770.93 505.213C771.691 505.213 772.125 504.561 772.56 504.235C773.212 503.582 773.647 504.996 781.036 509.454C788.426 514.021 789.078 514.022 789.078 514.022C790.165 514.348 791.36 514.674 792.556 515C791.904 515.218 791.469 515.326 790.817 515.653C790.817 515.653 795.381 519.241 798.75 519.459C802.119 519.676 799.294 520.328 802.88 523.699C806.249 527.07 807.335 527.397 814.182 528.702C820.919 530.115 817.007 529.789 819.398 531.855C821.898 533.921 828.961 535.661 828.961 535.661C828.309 535.987 827.875 536.313 827.223 536.64C828.744 536.966 830.374 537.51 831.787 537.836C831.569 538.488 831.243 538.923 831.135 539.576C831.135 539.576 831.895 542.294 835.264 544.252C838.633 546.209 837.981 546.1 839.503 548.166C840.589 549.906 845.48 552.842 847.979 554.691C848.522 555.017 848.957 555.452 849.174 555.669C850.152 556.539 851.022 557.192 852.326 557.518V533.051C850.479 530.876 849.066 530.876 847.653 531.42Z" fill="white"/>
</g>
<defs>
<clipPath id="clip0_72_148055">
<rect width="624" height="673" fill="white" transform="translate(228 204)"/>
</clipPath>
</defs>
</svg>
