<svg width="1080" height="1080" viewBox="0 0 1080 1080" fill="none" xmlns="http://www.w3.org/2000/svg">
<path d="M1080 0H0V1080H1080V0Z" fill="#BF2930"/>
<path d="M566.835 699.889C568.435 696.389 569.335 696.589 572.135 694.589C574.035 693.189 576.535 690.689 577.935 688.789C578.835 687.589 580.835 686.089 580.235 683.289C579.935 681.989 579.135 680.889 578.635 679.789C577.235 680.789 576.035 682.689 574.935 684.089C573.135 686.489 570.835 688.489 568.935 690.889C567.835 692.389 565.135 693.989 564.435 695.689C563.535 697.889 565.735 699.089 566.835 699.889Z" fill="white"/>
<path d="M584.535 684.889C586.135 684.689 586.535 683.789 587.635 683.089C589.235 682.089 591.035 681.089 592.735 680.389C598.335 678.389 604.035 676.389 609.635 674.389C611.335 673.889 612.935 673.989 614.635 673.389C615.335 673.189 616.135 672.589 616.935 672.389C617.635 669.689 616.035 664.989 614.235 663.689C613.635 663.289 612.835 663.189 612.335 662.689C611.335 663.089 610.935 664.189 610.035 664.789C608.635 665.889 607.035 666.889 605.535 667.889C600.635 670.889 594.835 672.189 589.335 674.489C587.235 675.289 584.935 676.189 582.735 676.889C581.935 677.089 580.735 677.189 580.135 676.689H579.835C580.135 677.689 581.535 677.589 582.235 678.089C583.435 679.289 584.535 682.589 584.535 684.889Z" fill="white"/>
<path d="M577.335 675.189C577.835 675.089 578.235 675.189 578.735 675.389C579.935 671.789 584.635 671.789 588.035 670.389C593.635 668.089 599.535 666.289 604.235 663.289C605.935 662.189 607.935 661.389 609.035 659.789C609.335 659.289 607.935 657.089 607.435 656.689C606.935 656.289 606.335 656.289 605.835 655.889C601.535 655.989 598.935 658.089 596.135 659.789C593.035 661.689 589.335 662.989 585.635 664.089C582.835 664.989 579.735 665.389 576.935 666.189C575.635 666.589 574.335 666.489 573.435 667.189H573.135C573.535 667.989 574.435 668.189 574.935 668.789C576.335 670.389 577.335 672.389 577.335 675.189Z" fill="white"/>
<path d="M611.436 640.29V640.49C612.836 641.19 615.136 642.19 615.636 643.89C615.736 644.39 615.436 644.69 615.436 644.99C615.636 646.09 616.436 647.09 616.536 648.49C617.936 648.29 619.036 647.99 620.536 648.19C620.036 644.59 615.536 639.89 611.436 640.29Z" fill="white"/>
<path d="M633.135 668.99C633.235 669.49 633.435 669.69 633.435 670.29C634.235 670.59 635.135 670.89 635.935 671.19C636.235 668.59 637.035 666.29 637.635 664.59L637.735 664.29C638.935 660.69 638.835 656.39 637.235 652.39C637.135 652.29 637.035 652.09 636.835 651.89C635.535 651.99 634.235 651.99 632.935 652.39C632.235 652.59 631.735 653.19 631.035 653.39C631.435 654.39 632.535 655.19 633.335 655.99C634.835 657.59 636.235 659.79 636.835 662.09C637.835 665.29 636.235 668.89 633.135 668.99Z" fill="white"/>
<path d="M622.035 641.29H621.835C622.735 643.99 625.235 645.99 625.335 649.49C625.535 649.59 625.335 649.49 625.535 649.69C626.435 649.49 626.635 648.89 627.335 648.59C628.335 648.09 629.735 647.59 630.835 647.29H632.635C630.535 645.09 628.635 642.99 627.835 640.39C626.035 640.79 624.035 641.19 621.935 641.19V641.29H622.035Z" fill="white"/>
<path d="M605.335 642.789C604.235 642.389 602.735 642.589 601.835 641.989H601.335C601.735 642.289 602.335 642.289 602.735 642.589C604.435 643.689 605.035 645.389 605.635 647.589C605.835 648.289 606.335 650.189 605.835 650.989C605.935 651.289 605.835 651.189 606.035 651.289C606.535 651.589 607.335 651.489 607.935 651.789C609.035 652.289 610.535 653.189 611.135 654.189C611.935 653.189 612.235 651.289 612.535 649.889C612.635 649.389 612.535 648.789 612.735 648.489V646.189C612.635 646.089 611.035 645.589 610.835 645.389C609.135 644.289 607.335 643.389 605.335 642.789Z" fill="white"/>
<path d="M616.435 652.989C615.635 653.389 615.635 654.589 615.335 655.389C614.935 656.389 614.035 657.389 613.235 657.989C613.335 658.389 613.335 658.789 613.435 659.089C616.135 659.989 618.835 658.489 621.835 659.289C624.935 660.089 627.535 661.489 629.735 663.189C630.635 663.889 631.135 665.089 632.035 665.889V666.089C633.435 664.189 631.835 661.689 631.035 660.489C629.435 658.089 627.335 655.889 624.935 654.389C623.635 653.589 621.835 653.589 620.635 652.789C619.135 652.689 617.235 652.489 616.435 652.989Z" fill="white"/>
<path d="M618.535 676.89C618.835 677.59 623.735 679.29 625.135 678.29C628.535 677.99 629.935 670.79 627.835 667.69C626.835 666.19 624.435 664.89 622.735 664.19C621.835 663.79 620.835 663.89 620.135 663.39H619.835C620.435 665.29 621.335 667.39 621.935 669.49C622.135 670.19 622.335 671.79 621.935 672.39C621.935 672.79 621.935 672.99 621.735 673.19C621.435 673.39 621.435 673.29 621.135 673.19C621.235 673.89 621.335 673.79 621.435 674.29C620.535 675.19 619.935 676.39 618.535 676.89Z" fill="white"/>
<path d="M572.835 674.089C572.435 672.789 571.535 672.089 570.735 671.189H569.935C569.035 672.089 567.835 672.789 567.035 673.789C565.635 675.589 564.035 677.789 562.235 679.089C559.335 681.289 556.735 683.489 554.235 685.889C554.235 686.689 554.335 687.089 554.735 687.489C559.735 691.389 564.535 684.389 567.635 682.189C568.935 681.189 570.535 680.489 571.835 679.489C572.535 679.489 572.835 679.589 573.135 679.989H573.335C573.235 679.589 572.935 679.389 572.835 678.989C572.235 677.389 573.335 675.789 572.835 674.089Z" fill="white"/>
<path d="M538.735 716.39C539.235 715.89 539.835 715.39 540.335 714.99C541.035 713.99 541.435 712.89 542.135 711.79C543.035 710.39 544.335 709.29 545.035 707.79H545.235V707.59C544.335 706.99 544.235 706.09 543.635 705.49C543.035 704.89 541.935 704.89 541.335 704.39C540.335 705.19 540.135 707.29 539.535 708.59C538.735 710.59 537.635 712.79 536.835 714.69C536.235 716.09 536.035 717.79 535.035 718.89V719.19H536.935C537.135 719.09 538.435 716.79 538.735 716.39Z" fill="white"/>
<path d="M537.436 695.689C538.936 693.589 540.836 691.489 542.536 689.689C543.336 688.889 544.636 688.089 545.236 687.089H545.436C544.836 686.489 544.036 686.289 543.336 685.789C541.936 684.789 540.836 682.889 540.136 681.289C539.036 682.189 538.536 683.989 537.736 685.189C536.036 687.589 534.236 689.989 532.436 692.389C531.736 693.289 530.536 694.089 530.136 695.289H529.936C530.136 695.789 530.536 696.289 530.936 696.689C532.336 696.989 533.736 697.789 533.836 699.089C534.036 699.189 534.236 699.289 534.436 699.489C535.836 698.989 536.636 696.789 537.436 695.689Z" fill="white"/>
<path d="M551.435 722.189C551.235 721.289 550.935 721.089 551.135 720.089C550.635 719.789 550.135 719.289 549.835 718.789H549.335C548.935 721.489 545.935 726.889 544.335 728.589V728.789C547.535 727.889 548.835 723.889 551.435 722.189Z" fill="white"/>
<path d="M558.135 693.389C557.735 693.089 557.135 693.289 556.535 693.089C555.135 692.689 552.335 691.589 551.535 690.489C550.435 690.989 549.935 692.889 549.235 693.889C548.035 695.589 545.235 699.589 543.635 700.689V700.989C544.635 701.789 546.035 702.389 546.035 704.189C548.235 704.089 549.635 701.589 550.735 700.189C552.635 697.589 555.435 695.089 558.135 693.389Z" fill="white"/>
<path d="M555.435 665.089C554.035 666.489 551.535 669.789 550.835 669.689C549.135 671.389 547.335 672.989 545.435 674.389C544.535 675.089 543.935 676.189 543.035 676.789C543.635 679.189 544.835 681.889 546.535 683.189C547.435 683.889 549.135 683.889 549.735 684.789C550.335 684.089 550.335 682.889 550.835 682.089C551.335 681.289 552.335 680.589 552.935 679.789C554.935 677.189 557.135 674.989 559.335 672.689C560.735 671.289 562.035 669.389 563.835 668.389C563.835 666.889 563.635 663.889 562.835 662.889C562.535 662.089 562.035 661.989 561.235 661.789C561.035 661.289 560.835 660.589 560.735 660.189C559.035 660.789 556.735 663.789 555.435 665.089Z" fill="white"/>
<path d="M532.136 703.589H532.336V703.389C530.836 702.689 529.536 701.189 529.136 699.389C528.436 700.189 528.436 701.989 528.036 703.089C527.136 705.189 525.836 707.289 524.936 709.389C524.536 710.189 524.436 711.089 523.936 711.789V712.089C526.936 710.589 530.136 706.189 532.136 703.589Z" fill="white"/>
<path d="M545.835 654.989C543.535 656.589 541.035 658.189 538.635 659.689C537.435 660.389 535.935 660.689 534.935 661.589C534.635 661.689 534.735 661.589 534.635 661.789C536.335 662.689 536.935 664.389 538.335 665.489C538.735 665.789 541.535 662.789 542.235 662.289C545.135 660.389 548.335 659.089 551.435 657.489C553.235 656.589 555.135 655.189 557.235 654.789C557.235 651.389 556.635 650.189 555.335 648.189C551.935 648.789 548.435 653.089 545.835 654.989Z" fill="white"/>
<path d="M583.435 644.689C580.735 645.389 578.135 645.289 575.435 645.989C571.435 646.989 565.435 648.089 560.835 648.089C561.035 648.989 562.135 651.389 561.335 652.589V652.889C563.735 652.689 566.135 651.789 568.235 651.089C570.135 650.489 571.835 650.389 573.735 649.789C576.535 648.889 579.635 647.889 582.435 646.889C584.735 646.089 588.935 645.289 590.635 643.989H590.935C590.435 643.589 590.035 643.489 589.635 642.989C587.535 643.089 585.335 644.189 583.435 644.689Z" fill="white"/>
<path d="M523.235 685.989C523.035 686.589 524.435 691.889 524.635 693.189C524.835 694.289 524.335 694.689 524.835 695.489V695.789C525.335 695.189 525.235 694.189 525.635 693.489C526.335 692.289 527.335 690.889 528.435 689.789C528.235 689.089 528.135 688.189 528.335 687.489C526.135 688.289 524.135 687.789 523.235 685.989Z" fill="white"/>
<path d="M531.435 664.49C530.635 667.79 529.335 671.09 528.035 673.99C527.335 675.59 527.035 677.19 526.135 678.69C525.235 680.19 523.235 682.19 522.735 683.79H522.535C522.435 684.09 522.635 683.99 522.735 684.09V684.89C523.835 684.59 524.835 685.19 526.235 685.19C526.735 682.09 530.035 677.59 531.535 675.09C532.635 673.19 533.335 670.59 534.635 668.79C534.435 667.29 532.635 665.29 531.535 664.59V664.39H531.435V664.49Z" fill="white"/>
<path d="M592.235 643.39C594.835 642.99 596.635 641.69 599.935 641.79C598.735 640.99 594.435 641.09 592.335 641.19C592.435 641.99 592.635 642.79 592.135 643.29V643.39H592.235Z" fill="white"/>
<path d="M575.036 653.89C572.436 654.79 569.736 655.19 567.336 655.99C566.436 656.29 565.436 656.19 564.736 656.59C564.436 656.69 564.536 656.59 564.436 656.79C565.736 657.69 567.536 661.39 567.936 663.19C568.336 664.69 567.336 665.39 568.136 666.59V666.89C568.436 666.79 568.436 666.89 568.636 666.69C569.036 666.49 569.036 666.39 569.136 665.89C569.336 665.49 569.036 665.59 568.836 665.09C573.536 660.49 583.336 660.59 589.736 657.89C592.536 656.69 595.336 655.29 597.936 653.69C599.136 652.99 600.536 651.99 602.236 651.79C602.236 649.29 601.436 647.79 600.436 646.29C597.136 645.69 594.136 647.49 591.736 648.39C586.236 650.19 580.636 651.99 575.036 653.89Z" fill="white"/>
<path d="M554.135 717.489C555.335 716.889 556.135 715.189 556.835 714.089C557.835 712.689 559.235 711.389 560.235 710.089C561.035 708.989 561.435 707.789 562.135 706.689C562.935 705.489 564.035 704.489 564.735 703.189C564.135 702.789 563.735 702.089 563.135 701.789C562.435 701.289 561.535 701.289 560.835 700.789C559.835 701.089 558.735 704.489 558.135 705.489C556.235 708.589 553.835 712.689 551.335 715.189C551.835 715.889 553.535 716.589 554.135 717.489Z" fill="white"/>
<path d="M330.635 559.489C332.535 560.689 334.435 561.889 336.235 563.189C337.335 563.989 338.435 564.789 339.435 565.589C339.735 560.089 337.235 554.389 333.035 549.989C332.635 553.189 331.735 556.389 330.635 559.489Z" fill="white"/>
<path d="M333.335 576.989C335.135 575.589 336.535 573.789 337.635 571.889C334.535 569.589 331.335 567.289 328.135 565.089C326.635 567.889 325.035 570.589 322.935 573.089L322.535 573.489C325.435 575.089 328.335 576.689 331.035 578.489C331.935 578.089 332.635 577.589 333.335 576.989Z" fill="white"/>
<path d="M779.835 237.889C780.735 239.089 782.435 239.789 783.735 240.589C785.835 242.089 787.835 243.589 790.035 245.089C796.135 249.389 801.535 254.489 807.435 258.889C808.235 259.489 808.735 260.389 809.535 260.989C814.235 264.489 817.935 268.889 822.235 272.689C824.335 274.589 826.335 276.489 828.235 278.689C830.035 280.889 832.335 282.489 834.035 284.789C835.235 286.389 837.135 287.689 838.335 289.289C840.135 291.689 842.435 293.789 844.335 296.189C845.735 297.989 847.035 300.089 848.635 301.689V301.889H848.835C847.635 299.489 846.035 297.289 844.635 295.089C843.235 292.889 842.235 290.689 840.735 288.689C839.635 287.189 838.135 285.989 837.035 284.489C832.435 278.189 827.235 272.489 822.535 266.289C822.035 265.789 821.435 265.289 820.935 264.889C819.835 263.389 818.535 261.989 817.235 260.689C816.635 260.189 816.035 259.589 815.435 259.089C812.735 255.489 809.835 252.089 807.035 248.489C805.935 247.089 804.235 245.989 803.135 244.589C802.135 243.289 800.935 241.689 799.635 240.689C796.235 238.189 793.535 234.789 790.135 232.289C788.235 230.889 786.435 229.289 784.535 227.989C783.735 227.389 782.735 226.989 782.135 226.189C781.435 227.289 782.335 229.889 781.935 231.289C781.435 233.589 781.135 236.489 779.835 237.889Z" fill="#878787"/>
<path d="M265.335 297.389C270.935 296.089 280.435 296.989 285.435 298.189C286.935 298.589 288.035 298.389 289.435 298.789C294.235 300.089 298.935 301.289 303.235 303.089C309.135 305.689 314.635 308.889 319.635 312.389C321.335 313.589 322.935 315.189 324.635 316.389C328.435 319.189 332.935 322.489 335.735 326.189C337.035 327.889 339.035 329.189 339.435 331.789C339.735 331.889 339.635 331.789 339.735 331.989C341.735 331.889 344.035 327.189 345.035 325.689C349.235 319.789 353.635 313.889 357.935 307.989C361.235 303.489 365.535 299.689 368.835 295.289C370.535 293.589 372.235 291.989 373.935 290.289C375.935 287.889 378.335 285.389 380.835 283.489C382.035 282.589 382.835 281.189 384.035 280.289C387.235 277.889 390.035 275.089 393.235 272.689C395.035 271.289 396.735 269.489 398.535 268.189C401.535 265.989 404.535 264.089 407.535 261.889C409.135 260.789 410.735 259.389 412.535 258.489C412.135 255.489 410.735 252.389 409.835 249.689C408.435 245.389 407.535 241.289 405.835 237.189C404.935 234.989 403.035 231.689 403.135 228.989C403.435 228.689 403.835 228.189 404.135 227.889C404.935 227.889 404.935 227.889 405.735 227.889C410.235 232.589 413.035 239.389 416.235 245.389C417.235 247.389 419.635 251.389 419.935 253.789C421.435 253.289 422.635 251.989 423.935 251.189C426.335 249.689 428.835 248.189 431.135 246.689C437.735 242.589 444.535 238.789 451.835 235.589C455.235 234.089 459.535 231.489 463.235 230.589C463.035 228.089 461.335 225.789 460.535 223.689C458.435 218.689 456.335 213.689 454.235 208.889C453.335 206.889 452.235 202.989 451.035 201.489C450.835 201.389 449.335 201.789 448.735 201.989C447.135 202.489 445.335 202.989 443.635 203.589C436.135 206.389 428.335 208.389 420.935 211.489C414.935 213.989 408.735 216.489 402.935 219.089C401.635 219.689 400.335 219.889 399.035 220.489C395.635 222.189 392.135 223.689 388.535 225.289C377.235 230.589 366.035 236.789 355.735 243.189C350.535 246.389 345.335 249.589 340.435 252.989C338.535 254.289 335.735 255.489 334.335 257.289H334.035C335.335 255.289 338.135 253.089 340.035 251.689C341.735 250.389 343.235 248.589 345.035 247.389C348.435 244.889 351.935 242.589 355.535 240.189C375.135 227.089 397.435 217.089 420.635 207.389C427.035 204.689 433.735 202.789 440.235 200.289C442.335 199.489 444.535 198.889 446.535 198.189C447.535 197.889 448.435 197.889 449.135 197.389C449.235 196.989 448.035 193.989 447.735 193.189C446.435 190.589 445.335 187.689 444.235 184.989C443.635 183.589 443.535 181.589 442.635 180.289V179.989C444.835 181.289 445.935 183.589 447.335 185.789C449.435 189.089 451.635 192.589 453.335 196.289C455.335 196.089 457.135 195.189 458.835 194.689C461.335 193.889 463.935 193.389 466.235 192.589C474.135 189.989 482.735 188.889 490.835 186.589C492.135 186.389 493.535 186.189 494.835 185.989C502.035 183.989 510.235 183.689 517.835 181.789C520.635 181.089 523.535 181.289 526.235 180.689C530.635 179.689 535.235 180.189 539.635 179.289C544.935 178.889 550.235 178.489 555.535 178.189H558.735C561.135 177.689 564.035 178.489 566.635 177.889C569.035 177.389 572.335 177.689 575.035 177.689C579.335 177.689 584.735 177.189 588.535 177.989H592.035C594.735 178.589 598.235 178.089 600.835 178.589H603.235C606.635 179.289 610.735 178.789 614.135 179.589C616.835 180.189 619.935 179.889 622.835 180.589C630.135 182.289 638.035 182.289 645.035 184.089C646.635 184.489 647.935 184.289 649.535 184.689C659.835 187.289 670.435 188.889 680.135 192.089C682.135 192.789 683.935 192.889 685.935 193.489C696.735 196.989 707.535 200.289 717.635 204.589C723.235 206.989 728.935 209.789 734.335 212.189C745.935 217.289 756.835 223.389 767.135 229.889C770.035 231.689 772.735 233.389 775.535 235.189C776.535 235.789 777.735 236.289 778.435 237.089H778.635C778.535 236.389 778.535 235.689 778.435 234.989C778.335 235.089 778.235 235.289 778.135 235.489C777.135 234.189 776.735 227.989 776.235 225.789C776.035 224.789 776.335 223.389 775.935 222.589C775.835 220.889 774.335 220.689 773.335 219.989C771.235 218.589 769.235 217.089 767.035 215.689C760.635 211.489 754.135 207.189 747.535 203.189C744.235 201.189 740.835 199.689 737.535 197.689C732.135 194.389 726.335 191.489 720.335 188.889C715.835 186.889 711.235 184.589 706.635 182.589C695.535 177.789 683.735 173.989 672.035 170.089C666.135 168.089 660.135 166.689 654.335 164.789C652.635 164.289 651.235 164.189 649.535 163.689C640.835 160.889 631.435 159.489 622.335 156.889C621.135 156.589 620.235 156.689 618.935 156.389C612.735 154.789 605.635 154.589 599.135 152.989C596.935 152.489 594.635 152.689 592.535 152.189C588.735 151.289 584.435 151.889 580.635 151.089C576.135 150.789 571.635 150.589 567.135 150.289C565.535 149.989 563.035 150.889 561.835 150.089H546.835C544.435 150.089 541.435 149.789 539.235 150.289C537.435 150.689 535.035 150.089 533.435 150.489H529.435C526.535 151.089 522.935 150.489 520.135 151.089H517.435C513.035 152.089 507.835 151.289 503.435 152.189C502.235 152.289 500.935 152.289 499.735 152.389C495.135 153.389 489.835 152.989 485.235 153.989C484.235 154.089 483.335 154.089 482.335 154.189C478.635 155.089 474.535 154.889 470.735 155.789C463.435 157.589 455.635 158.089 448.535 159.989C446.635 160.489 444.935 160.389 443.035 160.989C435.535 163.089 427.735 164.089 420.335 166.489C414.935 168.289 409.235 169.489 403.735 171.289C391.535 175.289 379.435 179.389 368.035 184.289C362.935 186.489 357.935 189.189 352.935 191.389C349.335 192.989 345.735 194.589 342.435 196.489C340.735 197.589 338.735 197.989 336.935 199.089C332.835 201.589 328.335 203.689 324.235 206.189C319.635 208.989 314.735 211.089 310.035 213.889C305.835 216.489 301.335 218.789 297.135 221.489C294.935 222.889 292.835 224.389 290.535 225.689C291.135 227.289 292.935 228.689 293.935 229.989C296.635 233.789 299.235 237.989 301.135 242.389C303.635 247.989 306.035 253.389 308.335 258.989C309.135 260.789 309.535 262.789 310.135 264.589C310.335 265.389 310.235 266.389 310.635 266.989V268.089C309.335 267.589 308.935 265.689 308.235 264.589C306.735 262.189 305.435 259.589 303.935 257.189C300.835 252.289 297.435 247.589 293.935 242.989C292.735 241.389 290.935 240.189 289.735 238.689C288.535 237.089 287.035 235.789 285.535 234.389C285.035 233.889 284.735 233.189 284.135 232.789C283.535 232.489 281.735 233.389 281.035 233.589C280.235 233.789 279.435 233.889 278.635 234.089C276.135 235.189 274.035 237.789 271.735 239.189C269.535 240.589 267.035 241.389 264.835 242.689C259.635 245.889 254.535 249.189 249.535 252.689C245.935 255.189 242.635 258.189 239.035 260.889C237.635 261.989 236.535 263.489 235.035 264.389C239.435 271.889 241.935 280.789 245.535 289.289C246.635 291.989 247.535 294.789 248.635 297.689C249.135 298.989 249.735 300.489 249.935 301.989C253.635 300.289 257.435 298.989 261.835 297.789C263.035 297.589 264.135 297.489 265.335 297.389Z" fill="#878787"/>
<path d="M855.236 326.189C850.736 318.689 845.436 311.989 840.436 305.089C836.436 299.589 831.736 294.889 827.736 289.489C827.236 288.989 826.636 288.489 826.136 288.089C825.036 286.589 823.736 285.189 822.436 283.889C821.836 283.389 821.236 282.789 820.636 282.289C818.936 280.089 816.836 277.989 814.636 276.289C813.636 275.189 812.636 274.189 811.536 273.089C808.236 270.589 805.436 267.389 802.036 264.889C799.736 263.189 797.736 260.789 795.436 259.089C788.436 253.889 781.636 248.389 774.336 243.489C767.536 238.989 760.436 234.789 753.436 230.489C749.336 227.989 744.836 225.989 740.736 223.589C738.536 222.289 736.236 221.389 733.836 220.389C732.636 219.889 731.436 218.989 730.336 218.489C725.236 216.289 720.136 213.989 715.036 211.689C708.136 208.689 700.736 206.489 693.636 203.689C691.136 202.689 688.636 202.289 686.036 201.389C681.136 199.789 675.636 198.389 670.636 196.689C666.536 195.389 662.236 194.889 658.236 193.589C654.636 192.489 651.136 192.489 647.436 191.489C640.436 189.689 632.636 189.389 625.436 187.589C622.936 186.989 620.236 187.189 617.836 186.589C612.936 186.089 607.936 185.589 603.036 185.189C597.836 184.889 592.636 184.589 587.436 184.189H582.636C580.336 183.689 577.136 184.589 574.636 183.989C572.336 183.489 567.936 183.489 565.636 183.989C563.136 184.489 559.936 183.689 557.636 184.189C553.836 184.289 550.036 184.389 546.236 184.489C543.436 185.089 540.036 184.689 537.236 185.289H535.136C532.036 185.989 528.536 185.489 525.336 186.289C519.136 187.689 512.236 187.589 506.236 188.989C504.836 189.189 503.436 189.289 502.036 189.489C492.636 191.889 482.736 192.689 473.536 195.289C469.436 196.489 465.136 197.189 461.036 198.489C459.336 199.089 457.336 199.889 455.436 200.089C455.836 202.389 457.636 204.489 458.536 206.489C460.536 211.089 462.136 215.589 464.136 220.289C465.136 222.489 467.236 226.289 467.536 228.789C472.436 227.089 477.336 225.389 482.136 223.689C489.736 221.189 497.636 219.489 505.436 217.289C506.936 216.889 508.236 216.889 509.736 216.489C517.836 214.189 526.736 213.189 535.136 210.989C538.836 209.989 542.836 210.089 546.536 209.189C553.236 208.289 559.936 207.489 566.636 206.589C570.736 205.689 575.036 206.389 579.036 205.489H581.436C583.336 205.089 585.636 205.589 587.736 205.189C589.936 204.689 597.136 204.689 599.336 205.189C601.736 205.289 604.136 205.289 606.536 205.389C611.636 206.489 617.236 205.889 622.136 206.989C623.736 207.089 625.336 207.189 626.936 207.289C632.036 208.389 637.736 208.089 642.736 209.189C644.036 209.289 645.336 209.389 646.636 209.489C650.936 210.189 655.336 210.889 659.636 211.589C672.636 214.889 685.736 216.989 697.936 221.089C711.136 225.489 724.036 230.089 736.236 235.389C740.536 237.289 744.736 239.089 748.736 241.189C749.936 241.789 751.136 242.089 752.236 242.789C755.236 244.689 758.636 246.089 761.736 247.889C768.036 251.789 774.636 255.389 780.836 259.289C791.536 266.089 801.336 273.989 811.236 281.489C813.536 283.189 815.436 285.589 817.636 287.289C819.936 288.989 821.836 291.089 824.036 292.789C824.536 293.389 825.136 293.989 825.636 294.589C827.336 295.889 829.836 297.889 831.136 299.589C832.636 301.589 834.136 303.589 835.636 305.689C838.136 308.089 840.636 310.489 843.236 312.889C845.236 315.589 848.136 317.589 850.136 320.289C851.236 321.789 853.536 324.789 854.936 325.789V325.989H855.236V326.189Z" fill="#878787"/>
<path d="M682.335 627.789C681.635 626.889 680.635 626.889 679.735 626.189C677.435 626.389 675.335 627.289 673.435 627.989C671.335 628.789 669.235 629.489 667.135 630.189C669.235 632.089 671.035 634.189 672.635 636.589C675.135 635.889 677.535 635.089 679.835 634.289C681.235 633.789 683.035 633.689 684.135 632.889C684.635 632.689 684.835 632.089 685.135 631.589C684.035 630.589 683.235 628.989 682.335 627.789Z" fill="white"/>
<path d="M449.736 453.789C452.236 459.689 454.336 465.789 457.636 470.989C458.636 472.589 460.336 473.689 461.536 475.189C463.136 477.389 464.736 479.589 466.236 481.989C467.836 485.289 469.336 488.589 470.936 491.989C471.436 493.289 471.336 494.589 471.936 495.989C472.536 497.789 477.036 502.889 478.536 503.989C481.536 506.189 484.736 508.189 487.736 510.389C492.136 513.589 495.936 517.689 499.836 521.489C501.536 523.189 503.536 524.789 504.936 526.589C506.536 528.689 508.436 530.489 509.936 532.589C513.536 537.489 517.036 542.489 520.236 547.689C521.636 549.989 523.036 552.589 524.136 555.089C524.736 556.389 524.936 558.189 525.736 559.289C525.836 559.589 525.736 559.489 525.936 559.589C526.636 556.589 527.736 553.689 528.836 551.089C529.136 550.289 529.136 549.489 529.636 548.789C529.336 547.989 528.636 547.489 528.336 546.689C527.236 544.189 526.636 541.689 525.236 539.489C523.236 536.189 521.036 532.789 518.836 529.689C517.936 528.489 516.636 527.389 515.736 526.189C513.836 523.589 511.636 520.689 509.136 518.789C504.736 515.489 498.036 511.889 494.836 507.489C491.936 503.389 488.836 499.489 484.536 496.889C482.636 495.689 481.736 496.189 479.736 496.589C478.736 496.789 478.636 496.289 477.936 496.889C477.236 496.789 477.236 496.689 476.836 496.389C476.936 495.389 477.236 495.689 477.636 495.089C479.536 492.389 479.736 492.089 483.436 491.189C483.236 489.689 482.336 488.189 481.836 486.889C480.836 484.289 480.236 481.889 478.936 479.689C474.936 473.189 469.536 468.089 465.636 461.689C463.336 457.889 461.836 452.889 460.336 448.289C459.736 446.489 459.436 442.589 458.536 441.189C457.836 440.889 456.036 441.789 455.136 441.989C452.736 442.689 448.636 443.689 445.936 443.789C446.136 444.989 446.636 445.789 447.036 446.689C447.936 449.089 448.836 451.489 449.736 453.789Z" fill="black"/>
<path d="M735.135 460.689C722.535 451.289 706.135 447.989 690.435 448.589C678.535 449.089 667.335 452.289 655.735 454.489C654.335 455.289 652.735 456.289 651.335 457.289C636.735 464.289 624.235 475.389 611.735 486.689C614.835 481.089 618.635 476.089 622.235 471.089C624.035 468.689 626.535 464.689 628.835 462.889V462.689C624.735 464.789 621.235 467.789 617.735 470.389C616.535 471.289 615.635 472.789 614.335 473.789C612.135 475.389 610.435 477.489 608.535 479.389C607.635 480.189 606.735 480.989 605.835 481.789C604.735 483.189 603.835 484.689 602.735 486.089C601.435 487.889 599.235 489.089 597.935 490.789C597.535 490.789 597.435 490.689 597.135 490.589C596.935 482.189 601.935 477.089 605.635 471.889C611.135 464.289 617.735 458.389 625.935 453.389C628.035 452.089 630.635 451.089 633.035 450.289C634.135 449.989 635.335 449.789 636.435 449.489C639.235 448.289 642.135 446.689 644.935 445.489C648.835 443.789 652.935 442.489 657.035 440.989C665.135 437.989 674.135 436.689 682.735 434.189C684.935 433.589 690.635 433.089 689.835 429.889C688.235 423.289 681.135 416.889 675.835 413.789C673.335 412.289 668.335 411.089 666.635 408.989C665.735 409.389 663.435 413.589 662.635 414.589C660.335 417.689 656.435 421.089 653.335 423.289C651.835 424.289 650.335 425.089 648.835 426.189C648.335 426.789 647.735 427.389 647.235 427.989C645.835 428.989 644.535 430.189 643.035 431.089C639.035 433.589 634.635 435.489 630.635 437.989C628.535 439.289 626.335 440.989 624.235 442.289C621.435 444.089 618.535 445.589 615.835 447.389C612.235 449.889 608.935 452.789 605.335 455.389C602.335 457.689 599.235 460.689 596.935 463.789C595.735 465.489 593.835 466.789 592.635 468.489C591.335 470.189 590.235 472.689 588.635 473.989C588.535 483.889 586.235 490.989 583.335 497.989C581.935 501.289 580.735 505.089 578.035 506.989C577.335 507.489 576.535 507.489 575.735 507.989C575.135 508.389 574.735 509.089 574.135 509.389C568.435 512.989 560.835 516.289 556.935 521.489C552.435 527.489 547.135 532.689 543.135 539.189C541.635 541.589 540.435 544.389 539.235 547.089C538.635 548.489 538.535 550.289 537.635 551.389V551.689C538.035 551.289 538.335 550.889 538.735 550.489C532.135 561.189 528.035 572.789 526.035 584.889C518.335 598.589 516.435 616.289 518.735 631.489C515.435 638.189 523.235 648.189 531.835 646.789C547.935 644.289 563.735 640.589 579.335 636.089C594.035 636.189 612.835 636.189 623.435 627.689C625.035 626.789 626.335 625.589 627.635 624.589C632.235 621.189 635.635 615.489 637.635 609.489C638.335 608.589 639.035 607.589 639.935 606.489C639.635 606.589 639.335 606.689 639.035 606.789C641.735 591.889 656.835 579.589 671.435 575.489C671.735 575.189 671.935 574.989 672.235 574.789C673.335 574.089 674.435 574.089 675.735 573.489C676.235 573.289 676.435 572.589 676.835 572.389C676.935 572.289 677.235 572.189 677.735 572.089C683.735 561.389 692.135 551.889 701.935 544.489C703.535 542.389 705.335 540.289 707.435 538.789C709.135 537.589 712.035 536.989 714.735 536.289C716.635 535.289 718.535 534.389 720.535 533.489C721.435 532.189 721.835 530.789 722.735 529.389C724.435 526.689 725.935 523.789 727.735 521.189C728.835 519.589 730.235 518.089 731.435 516.489C732.335 515.689 733.135 514.889 734.035 514.089C735.035 512.789 736.035 511.589 737.135 510.389C742.535 507.389 748.535 504.289 752.935 500.189C755.135 485.289 747.335 469.689 735.135 460.689Z" fill="black"/>
<path d="M564.435 276.789C569.935 275.489 575.935 275.089 581.635 273.689C583.735 273.489 585.935 273.289 588.035 273.089C589.935 272.689 592.135 272.889 594.335 272.489C596.235 272.089 598.735 271.789 600.935 271.889C599.635 270.789 596.635 270.489 594.835 269.789C591.335 268.489 587.635 267.589 583.735 266.589C582.335 266.489 580.935 266.389 579.535 266.289C577.035 265.689 574.135 265.689 571.835 265.189C568.735 264.889 565.635 264.689 562.535 264.389C543.135 264.489 526.635 268.989 511.735 273.889C503.035 276.789 494.035 278.489 485.535 281.289C483.735 281.889 482.135 281.989 480.435 282.589C474.735 284.489 468.735 286.289 462.735 288.089C459.335 288.689 455.835 289.389 452.435 289.989C451.635 290.089 450.935 290.089 450.135 290.189C447.935 290.689 445.135 291.189 442.735 291.289C443.235 291.589 443.835 291.389 444.535 291.589C446.435 292.089 448.435 292.589 450.335 292.989C457.035 295.489 464.435 297.489 471.035 300.389C476.435 302.789 481.935 305.189 486.835 308.289C488.435 309.289 490.135 310.389 491.835 311.489C491.835 311.489 491.935 311.489 491.935 311.589C493.235 312.989 495.035 314.189 497.535 314.689C502.835 315.889 508.135 317.289 513.235 318.989C512.935 319.189 512.635 319.289 512.335 319.489C513.535 320.689 516.035 321.189 517.635 321.889C521.235 323.489 525.635 325.889 529.035 327.989C539.235 334.289 547.535 341.689 554.335 351.489C555.035 352.489 556.235 353.089 556.935 354.189L557.035 354.089C557.635 355.189 558.135 356.289 558.535 357.489C558.535 359.889 559.035 362.389 560.035 365.089C560.035 365.189 560.035 365.189 560.035 365.289C560.335 366.089 560.635 366.989 561.035 367.889C561.435 368.689 561.835 369.389 562.235 369.989C561.935 370.189 561.535 370.389 561.235 370.489C561.635 371.589 562.635 372.189 563.335 373.089C564.735 374.989 566.335 376.689 567.635 378.589C571.035 383.189 574.535 387.889 577.635 392.789C578.635 394.389 579.335 396.089 580.335 397.789C581.835 400.189 583.735 403.189 584.635 406.189C583.835 408.189 583.135 410.289 582.435 412.389C580.635 417.789 584.335 423.689 589.435 425.489C588.635 426.289 587.835 427.089 587.035 427.889C584.135 430.789 580.935 434.989 577.335 437.089C578.235 439.089 578.835 440.989 579.735 443.089C580.335 444.389 581.135 445.789 581.535 447.289H581.735C582.835 445.489 584.535 444.089 585.735 442.489C588.535 438.789 591.735 435.189 595.535 432.489C597.135 431.389 598.835 430.289 600.535 429.389C601.235 428.989 602.235 429.189 602.835 428.589H603.135C602.235 432.189 600.735 432.389 599.135 434.889C595.835 439.789 592.535 444.389 589.335 449.189C588.635 450.189 587.735 451.289 587.035 452.389C586.635 453.089 586.535 453.889 586.035 454.689C585.735 455.189 584.735 456.489 584.735 457.089C584.735 457.689 585.235 458.689 585.335 459.189C585.635 460.689 585.835 462.189 586.135 463.689C586.335 464.389 586.835 464.789 586.935 465.589H587.235C587.935 462.789 590.035 460.689 591.535 458.689C595.535 453.289 600.935 449.289 606.335 445.289C623.335 432.789 640.135 419.889 657.035 407.189C657.535 406.689 658.035 406.089 658.435 405.589C665.935 399.989 667.435 388.289 672.435 380.189C672.635 379.889 672.835 379.589 673.035 379.189C674.635 377.989 675.735 376.289 676.435 374.389C677.335 373.289 678.135 372.089 679.035 370.989C679.335 370.589 679.735 370.189 680.135 369.889C679.435 369.289 678.635 368.789 677.935 368.289C677.535 368.489 677.235 368.689 676.835 368.889C676.735 368.289 676.635 367.789 676.435 367.189C671.835 364.089 667.035 361.589 661.935 359.489C653.035 357.889 643.335 357.689 634.235 358.589C621.735 358.289 609.435 359.689 598.635 367.089C597.435 367.889 596.435 368.889 595.735 369.889C595.035 369.689 594.635 369.289 594.035 368.889C594.035 365.289 597.235 363.889 599.335 362.489C601.535 361.089 603.535 359.389 605.735 357.989C609.235 355.789 613.035 354.389 617.035 352.689C622.635 350.289 628.835 348.989 635.335 347.389C637.435 346.889 639.735 347.089 641.735 346.589H644.035C646.535 345.989 650.235 346.389 653.035 346.389C654.335 346.289 655.635 346.289 656.935 346.189C660.435 346.989 663.935 346.989 667.435 347.989C680.135 351.589 691.635 353.889 701.735 360.089C703.835 361.389 706.235 362.089 708.135 363.489C710.435 365.089 712.335 367.289 714.535 368.989C715.735 369.889 717.335 370.789 718.235 371.889H718.735C718.035 368.089 717.835 364.489 716.335 361.589C715.635 360.189 714.535 358.689 713.735 357.389C713.235 356.489 713.035 355.589 712.435 354.789C711.835 353.889 710.335 353.289 709.535 352.489C706.935 350.189 704.735 347.389 701.935 345.289C701.335 344.589 700.635 343.889 700.035 343.189C697.635 341.389 695.635 339.189 693.235 337.389C686.935 332.689 680.335 328.489 673.735 324.089C671.935 322.889 670.435 321.089 668.635 319.889C670.135 318.789 675.235 320.989 676.635 321.489C681.535 322.989 685.235 325.989 689.835 327.889C691.735 328.389 693.635 328.989 695.435 329.489C696.235 329.689 697.135 329.489 697.735 329.789H698.335C697.935 328.389 696.835 327.489 696.035 326.389C694.035 323.589 692.035 320.789 690.035 317.989C687.435 314.189 684.835 310.589 681.635 307.389C681.135 306.789 680.535 306.189 680.035 305.589C672.735 300.089 663.835 296.689 654.735 292.889C650.235 291.089 645.435 288.789 640.735 287.389C639.235 286.989 637.835 287.189 636.235 286.789C630.835 285.389 624.635 285.489 618.835 284.189C616.535 283.689 613.935 284.189 611.735 283.689H608.235C605.535 283.689 602.135 283.389 599.735 283.889C596.435 283.989 593.135 284.089 589.735 284.189C586.535 284.889 582.435 284.489 578.835 284.489C573.935 284.489 568.935 284.189 564.835 283.189C561.335 282.389 558.235 282.389 555.535 280.889C554.735 280.489 554.135 279.589 553.435 278.989C553.435 277.989 553.735 277.989 554.035 277.389C557.535 276.889 561.335 277.589 564.435 276.789Z" fill="black"/>
<path d="M429.835 340.689C428.835 343.089 427.435 345.289 426.635 347.789C425.935 349.889 426.335 352.689 425.835 354.989C425.435 356.789 425.835 362.189 426.135 363.689V365.589C426.835 368.589 426.735 371.689 427.535 374.589C428.335 377.289 428.735 380.189 429.635 382.989C430.035 384.389 430.635 385.989 430.735 387.489C434.935 386.889 439.135 385.189 443.635 384.789C443.235 383.289 442.535 381.889 442.035 380.489C440.635 376.389 439.335 372.389 438.035 368.389C437.235 366.089 437.235 363.789 436.635 361.289C436.135 359.289 434.735 353.189 435.335 350.689C436.035 347.689 436.435 345.289 437.735 343.089C439.035 340.989 440.735 338.989 441.635 336.489C442.135 334.889 441.935 332.689 441.935 330.689C441.935 326.589 441.635 322.389 440.835 318.789C440.335 316.489 440.435 310.789 439.435 309.289C438.135 307.589 433.035 306.089 429.935 306.089C430.035 310.289 430.635 314.689 431.535 318.289C431.635 319.289 431.735 320.289 431.835 321.389C432.235 323.189 433.035 327.389 432.435 329.789C431.535 333.689 431.235 337.289 429.835 340.689Z" fill="black"/>
<path d="M425.335 444.889C425.635 447.589 425.935 450.389 426.335 453.089C426.935 455.989 427.635 458.889 428.235 461.789H428.435C429.135 458.789 430.235 455.989 431.135 453.289C431.835 451.289 432.135 449.589 432.935 447.689C433.735 445.689 435.435 443.989 436.335 442.189C436.635 441.589 435.835 440.989 436.335 440.089C436.535 439.689 437.235 439.489 437.635 439.089C437.635 439.089 436.835 436.389 436.635 435.689C435.535 432.189 435.635 427.489 435.635 422.989C435.635 415.589 436.535 408.989 438.235 403.189C438.735 401.489 438.635 400.089 439.235 398.489C440.135 395.889 441.235 392.889 441.835 390.089C439.535 390.589 437.235 391.189 434.935 391.689C433.935 391.989 432.635 391.689 431.835 392.189C431.735 393.189 431.735 394.189 431.635 395.289C430.935 398.089 430.535 400.889 429.735 403.789C428.435 408.389 428.335 413.889 427.135 418.889C426.635 421.289 426.935 423.789 426.535 425.989C426.435 428.689 426.335 431.489 426.235 434.189C426.135 434.889 426.435 436.589 426.035 437.389L425.435 437.889V444.889H425.335Z" fill="black"/>
<path d="M446.035 463.589C444.835 458.589 442.935 453.889 441.235 449.389C440.135 450.589 439.935 453.089 439.335 454.689C438.035 457.989 436.835 461.589 435.435 464.789C434.835 466.089 434.535 467.789 433.635 468.789V469.089C434.735 468.689 435.435 467.889 436.335 467.289C438.535 466.189 443.135 463.689 446.035 463.589Z" fill="black"/>
<path d="M468.435 516.289C470.235 517.589 471.535 519.289 473.135 520.789C475.135 522.789 477.235 524.689 478.935 526.889C480.435 528.889 482.635 530.389 484.035 532.389C487.935 537.589 492.035 542.489 495.435 548.189C496.435 549.789 496.935 551.389 497.735 553.189C499.235 556.589 501.035 560.189 502.535 563.689C503.635 566.089 504.235 568.489 505.235 570.889C505.935 572.589 507.335 573.989 508.335 575.589C510.135 578.489 511.735 581.589 513.335 584.589C514.535 586.989 515.635 589.589 516.735 591.989C517.235 593.189 517.435 594.689 518.135 595.689V595.889H518.335C517.735 594.189 517.035 586.789 517.535 584.489C517.835 582.989 518.035 578.389 517.735 576.589C517.235 574.489 517.635 571.989 517.135 569.789C516.135 565.589 515.435 561.689 513.935 558.189C511.835 553.489 508.535 549.589 505.535 545.689C504.735 544.589 503.435 543.889 502.635 542.789C499.835 538.989 496.235 535.689 492.535 532.789C491.535 532.089 490.735 530.989 489.835 530.189C486.835 527.889 483.935 525.489 480.835 523.289C477.235 520.789 473.535 518.289 469.935 515.889C468.635 514.989 466.835 514.389 465.735 513.289C465.735 513.289 465.735 513.389 465.635 513.389C466.635 514.089 467.435 515.589 468.435 516.289Z" fill="black"/>
<path d="M408.535 617.19C408.735 630.59 411.735 643.59 414.135 656.59C414.135 658.89 413.935 661.29 413.935 663.39C413.835 671.09 413.835 678.69 413.735 686.39C414.835 684.89 413.735 697.289 416.635 713.589V715.19H416.835C417.435 713.49 419.135 712.09 420.035 710.69C422.335 707.29 450.635 675.29 465.935 665.39C469.735 662.99 473.535 661.289 476.835 658.889C478.735 658.089 483.735 656.49 489.235 656.49L489.435 656.69C490.035 654.89 490.735 653.09 491.335 651.19C491.835 648.69 492.335 646.19 492.735 643.69C493.035 640.79 493.235 637.99 493.535 635.09V631.59C494.135 629.09 493.935 621.59 493.335 619.19V616.49C492.935 614.89 493.235 612.99 492.835 611.39C491.435 605.59 490.435 599.69 488.835 594.19C488.335 592.39 488.335 590.79 487.735 589.09C486.635 585.69 485.635 581.99 484.635 578.49C484.235 577.19 483.535 573.69 484.435 572.49V572.19C485.635 572.69 486.035 574.189 486.735 575.289C488.435 577.989 489.435 580.99 490.735 584.09C494.635 593.39 497.135 603.59 500.035 613.99C500.835 617.99 501.635 621.99 502.435 625.89C502.835 629.39 503.335 632.99 503.735 636.49C504.035 638.09 503.335 640.39 504.035 641.59V644.69C508.735 643.59 508.635 638.89 509.635 634.09V630.59C509.935 629.09 509.635 624.189 509.135 621.789C509.035 620.789 509.035 619.89 508.935 618.89C508.135 615.59 508.235 611.89 507.535 608.59C506.935 605.79 507.535 602.59 506.735 600.09C500.635 581.49 494.935 562.29 485.335 546.99C479.635 537.99 472.535 530.19 464.735 523.19C462.035 520.79 459.735 517.69 456.835 515.59C455.035 514.29 452.835 513.19 450.735 512.39C449.835 511.99 448.735 512.09 448.035 511.59C443.135 511.49 441.635 514.29 440.135 517.59C439.735 518.59 439.635 519.79 439.035 520.69C439.235 521.79 437.935 524.99 437.035 527.09C436.335 528.79 435.535 530.39 434.835 531.99C422.135 550.09 400.035 547.289 399.135 547.289C397.935 546.989 391.235 545.99 391.235 545.99C389.035 545.49 384.335 544.889 383.235 543.389C381.935 543.389 378.535 544.19 377.635 543.59H377.035C378.035 546.09 379.035 548.49 380.135 550.99C380.535 551.29 380.935 551.59 381.235 551.99C382.435 553.59 383.835 555.19 385.235 556.69C386.535 557.89 387.835 559.189 389.135 560.389C390.335 561.989 391.835 563.19 393.035 564.69C395.935 568.59 398.735 572.89 400.735 577.59C402.435 581.39 403.635 585.59 404.935 589.69C405.535 591.69 405.535 593.69 406.235 595.69C406.835 597.29 407.635 599.09 408.335 600.789C408.435 606.09 408.435 611.69 408.535 617.19Z" fill="black"/>
<path d="M400.435 627.989C400.435 627.289 400.235 626.689 400.035 626.089C400.835 617.689 400.735 608.989 398.735 600.889C397.935 597.689 397.935 594.689 396.935 591.689C395.035 585.689 393.235 579.889 390.135 574.989C389.035 573.189 387.835 571.389 386.635 569.689C386.135 568.989 385.335 568.389 384.835 567.589H384.635C385.435 571.189 386.535 574.889 387.535 578.489C388.135 580.789 387.935 582.989 388.535 585.389C388.935 587.189 388.935 589.489 389.335 591.389V593.789C389.835 596.189 389.635 599.189 389.635 601.989C389.635 607.789 389.435 613.389 388.235 618.089C387.435 621.189 387.135 626.889 385.335 628.889C385.235 629.189 385.335 629.089 385.135 629.189C384.335 625.389 384.435 620.689 383.535 616.789C383.135 615.189 383.535 613.389 383.235 611.989V609.289C383.235 607.089 383.335 604.289 382.935 602.189V598.989C382.335 596.389 382.935 593.489 382.335 590.789C381.235 585.789 381.235 580.689 379.935 575.989C376.435 563.489 373.135 552.089 367.735 541.589C365.935 538.089 364.435 534.689 362.435 531.489C361.435 529.889 360.035 528.589 358.935 527.189C358.435 526.489 357.835 525.589 357.135 525.089C356.235 524.489 355.135 524.289 354.235 523.689C347.235 525.189 342.735 530.289 337.835 533.989C337.235 534.489 336.635 535.089 336.135 535.689C338.335 537.189 340.335 538.789 342.135 540.589C344.535 539.189 347.635 538.589 350.735 539.589C353.435 540.489 355.835 542.389 357.535 544.289C363.135 550.489 364.535 558.989 366.835 568.589C367.535 571.589 367.135 574.789 367.835 577.889C368.235 579.589 368.335 581.889 368.335 583.889V586.989C368.535 588.089 368.735 590.189 368.535 591.489C368.135 598.489 367.735 605.389 367.435 612.389C366.835 615.289 367.135 618.489 366.435 621.389C364.535 629.589 364.435 638.389 362.535 646.689C361.735 650.189 362.135 653.889 361.435 657.289C361.335 659.389 361.235 661.589 361.135 663.689C359.835 669.389 360.735 675.789 359.535 681.389C359.135 686.889 358.735 692.289 358.435 697.789C358.135 699.189 358.535 701.089 358.235 702.289C357.735 704.489 358.635 707.789 358.235 709.489C357.935 711.089 358.035 713.489 358.035 715.489C357.935 717.989 357.935 720.489 357.835 723.089V727.289C357.435 729.289 358.135 731.989 357.635 734.189C357.135 736.289 357.435 739.389 357.435 741.789C357.435 745.189 356.935 749.489 357.635 752.589C357.735 755.989 357.835 759.389 357.935 762.689C358.535 765.289 357.935 768.189 358.535 770.889C360.035 777.589 359.435 785.589 360.935 792.089C361.035 793.389 361.135 794.689 361.235 795.989C362.535 801.389 362.135 807.489 363.535 812.889C364.035 814.689 364.535 816.489 364.935 818.389C365.135 818.989 365.535 819.689 365.835 820.389C365.835 820.789 365.935 821.189 365.935 821.589C365.935 822.589 366.035 823.589 366.335 824.589C366.435 826.589 366.635 828.489 366.935 830.489C367.135 831.689 368.635 831.389 369.035 830.489C371.835 822.889 373.035 814.789 373.035 806.589C373.335 805.289 373.635 803.889 373.835 802.489C373.835 802.389 373.935 802.189 373.935 802.089C375.635 794.389 376.035 786.489 376.335 778.689C376.935 775.989 377.635 773.289 378.235 770.589C378.235 770.389 378.235 770.289 378.235 770.089C378.435 769.189 378.735 768.189 378.935 767.289C383.635 752.889 390.235 739.089 394.235 724.689C400.235 708.989 403.935 692.089 403.535 670.089C403.235 670.489 403.035 671.089 402.835 671.589C403.735 656.789 401.335 642.089 400.435 627.989Z" fill="black"/>
<path d="M744.135 513.089C743.435 513.989 742.735 515.089 741.835 515.689V515.889C743.235 515.489 744.435 514.689 745.735 514.089C748.435 512.989 751.635 512.489 754.535 511.689C759.435 510.889 764.435 510.189 769.335 509.389C770.335 509.289 771.235 509.289 772.235 509.189C775.535 508.489 782.235 507.989 785.735 508.889C795.035 511.189 802.535 514.789 809.235 519.689C811.535 521.389 813.535 523.389 815.835 525.189C816.435 525.889 817.135 526.589 817.735 527.289C820.135 529.089 822.135 531.589 824.035 534.089C825.035 535.389 826.335 536.489 827.235 537.989H827.435C823.335 529.389 818.335 521.789 813.135 514.389C810.035 509.989 807.135 506.089 802.535 503.289C798.935 501.089 792.835 499.689 788.335 498.489C786.535 498.189 784.835 497.989 783.035 497.689C782.335 497.489 781.435 497.789 780.935 497.489C766.235 497.589 757.535 502.189 749.235 508.389C747.535 509.889 745.835 511.489 744.135 513.089Z" fill="black"/>
<path d="M715.935 707.589C717.435 702.889 717.935 697.789 719.135 692.789C719.635 690.889 719.535 688.789 719.935 686.989C720.135 684.389 720.235 681.889 720.435 679.289C720.835 677.389 720.235 674.989 720.735 672.889C721.035 671.789 721.335 668.389 721.035 667.089C720.535 662.189 719.935 657.189 719.435 652.289C718.835 648.489 718.235 644.789 717.635 640.989C715.535 632.989 714.335 624.889 711.635 617.689C708.935 610.289 707.335 603.489 703.135 597.789C699.635 592.989 693.535 587.589 687.835 585.089C686.235 584.589 684.735 583.989 683.135 583.489C682.235 583.189 681.235 583.389 680.535 582.989C671.435 582.989 669.135 586.589 664.135 590.389C657.335 595.489 653.135 603.389 649.635 611.789C648.735 615.089 647.835 618.289 646.935 621.589C646.835 622.089 646.735 622.689 646.635 623.289C649.035 623.389 651.435 623.689 653.635 624.089C654.035 623.589 654.135 622.989 654.435 622.389C655.335 620.689 656.135 618.889 657.135 617.289C659.335 613.789 662.335 610.589 665.835 608.489C668.635 606.789 674.135 605.389 678.335 606.689C680.835 607.489 682.635 608.889 684.435 610.189C691.535 615.489 696.335 626.489 699.435 635.789C700.235 638.089 700.335 640.289 701.035 642.689C702.035 646.089 702.135 650.089 702.935 653.789C703.435 655.989 702.935 658.389 703.435 660.589V667.789C703.735 669.689 703.735 675.789 703.135 678.689C703.035 680.589 702.935 682.589 702.835 684.489C701.835 689.089 701.935 693.889 700.735 698.289C698.735 706.189 697.135 713.989 694.635 721.489C688.435 739.989 682.935 758.989 682.935 783.589C682.935 787.989 682.935 792.589 683.735 796.489C684.335 798.989 684.035 801.589 684.535 803.889C684.635 805.189 684.735 806.589 684.835 807.889C685.635 811.489 685.735 815.489 686.635 818.989C687.335 821.889 687.235 824.489 687.935 827.389C689.835 834.589 690.735 841.989 692.735 849.089C694.235 854.489 695.235 860.389 696.735 865.789C697.235 867.489 697.035 868.989 697.535 870.789C698.335 873.989 699.435 878.489 699.435 882.089C700.035 881.089 699.635 877.689 699.435 876.589V872.289C698.835 869.289 698.835 864.989 699.435 862.289C701.835 862.389 701.635 865.889 702.135 867.889C703.735 873.889 703.535 882.389 703.435 889.789C704.235 888.589 703.835 886.289 704.235 884.689C704.735 882.689 704.635 880.389 705.235 878.289C705.535 877.089 705.735 875.889 706.035 874.789H706.235C707.335 877.889 706.735 882.889 706.735 886.689C707.335 885.689 706.935 883.789 707.235 882.489C707.635 880.289 708.035 878.089 708.335 875.889V873.589C708.735 871.989 708.235 869.789 708.535 867.989C708.835 866.189 708.835 860.089 708.235 857.189C708.135 855.789 708.135 854.389 708.035 852.989C706.935 848.189 707.335 842.789 706.235 837.989C705.535 834.689 706.035 831.089 705.235 827.889C704.635 825.089 704.935 821.689 704.235 818.889V816.289C703.635 813.689 703.435 805.289 704.035 802.589V799.889C704.535 797.889 704.235 795.689 704.635 793.589C705.035 791.989 705.035 790.189 705.435 788.489C706.335 785.189 707.035 781.589 707.835 778.389C708.035 776.589 708.135 774.789 708.335 772.889C709.435 768.389 709.535 763.389 710.635 759.089C711.535 755.589 711.635 752.189 712.435 748.789C713.035 746.189 712.735 743.589 713.235 741.189C713.735 738.989 713.235 735.289 714.235 733.589V732.989H714.035C713.135 736.589 711.135 739.989 709.735 743.289C707.335 748.789 705.335 754.189 703.335 759.889C702.435 762.289 701.735 769.289 698.335 767.489C696.835 760.889 700.235 752.289 702.235 747.089C707.235 733.989 711.535 721.089 715.935 707.589Z" fill="black"/>
<path d="M848.534 680.189C848.434 679.189 848.334 678.189 848.234 677.089C846.734 670.789 846.934 663.389 845.534 656.789C844.934 654.089 845.434 651.289 844.934 648.789V643.489C844.734 642.589 844.734 639.089 845.134 637.489C845.634 635.089 845.134 632.989 845.634 630.689C847.034 624.589 847.634 618.489 849.034 612.389C849.134 610.889 849.134 609.389 849.234 607.889C849.834 604.989 849.234 600.589 848.634 598.089C848.034 595.589 848.034 593.389 847.334 590.989C845.234 583.589 843.334 576.689 839.734 570.889C837.534 567.189 836.434 562.989 833.434 560.089V559.889H833.234C833.634 562.689 834.634 566.089 835.334 569.089C836.134 572.289 835.534 576.089 836.334 579.389V584.689C836.634 586.189 836.634 588.989 836.334 590.489V594.789C836.134 596.589 836.034 598.889 835.734 600.589C835.634 602.789 835.634 604.989 835.534 607.189C835.234 608.589 835.734 610.589 835.334 612.189C835.034 613.689 835.134 615.989 835.134 617.789C835.034 620.089 835.034 622.389 834.934 624.689C834.234 623.689 834.434 621.989 834.134 620.689C833.234 617.389 833.034 613.789 832.234 610.189C830.934 604.789 830.934 598.689 829.634 593.189C829.534 591.989 829.534 590.689 829.434 589.489C828.034 583.489 827.334 577.189 825.434 571.489C823.334 565.189 820.934 559.289 817.734 554.089C816.734 552.589 815.334 551.289 814.334 549.889C813.034 548.089 812.034 546.089 810.834 544.289C809.534 542.389 807.734 540.689 806.334 538.789C804.934 536.989 803.534 535.389 802.134 533.689C801.634 533.189 801.034 532.689 800.534 532.289C799.734 531.189 798.734 529.789 797.634 529.089C793.434 526.389 788.334 524.489 783.334 522.789C781.534 522.189 778.234 522.089 776.734 521.189H775.934V521.389C778.934 522.889 780.934 525.689 783.534 527.689C785.234 528.989 786.534 530.589 788.034 531.989C789.534 533.489 791.134 534.789 792.334 536.489C793.234 537.689 794.634 538.489 795.534 539.689C798.634 543.789 802.134 547.589 804.834 551.889C811.134 561.789 815.934 572.789 819.934 584.989C821.434 589.589 821.934 594.589 823.134 599.489C823.434 602.589 823.734 605.689 824.134 608.789V613.889C824.434 615.189 824.434 623.489 823.834 626.289C823.434 628.289 823.934 630.289 823.534 632.089C823.434 634.189 823.334 636.289 823.234 638.389C823.034 639.189 822.934 640.089 822.834 641.089C821.634 640.889 820.434 640.889 819.234 641.089C819.034 639.189 818.834 637.189 818.534 635.289C815.434 612.589 806.534 591.189 802.334 568.689C801.534 564.489 799.034 562.089 795.934 561.289C794.734 559.089 793.434 556.889 792.134 554.789C790.834 552.789 789.934 550.789 788.634 548.789C786.934 546.289 784.934 543.889 783.134 541.589C782.034 539.989 780.834 538.089 779.234 536.889C775.434 534.089 771.134 531.389 766.534 529.489C764.634 528.689 762.534 528.189 760.534 527.589C759.334 527.189 758.034 527.289 757.134 526.589C748.534 526.589 744.234 530.089 740.534 534.989C739.334 536.689 738.134 538.789 736.334 539.989C737.134 540.889 740.134 541.389 741.434 541.889C743.434 542.689 745.534 543.789 747.534 544.589C749.934 545.589 752.334 545.989 754.634 546.989C764.734 551.389 770.834 556.789 776.334 565.789C778.334 569.089 779.634 572.889 780.834 577.089C781.234 578.389 781.434 580.889 780.634 581.789V581.989H780.434C779.834 581.189 778.934 580.689 778.334 579.889C776.434 577.289 774.334 574.789 772.534 572.189C769.334 567.589 766.634 563.489 762.034 560.089C761.034 559.389 760.134 558.389 758.934 557.789C757.834 557.289 756.634 556.789 755.534 556.489C753.634 556.289 751.734 556.189 749.934 555.989C746.034 555.089 742.134 554.589 738.534 553.389C735.834 552.489 733.134 551.689 730.534 550.689C727.334 549.389 722.334 547.389 717.834 548.889C714.134 550.089 711.534 552.689 708.634 554.889C707.634 555.689 706.934 556.889 705.934 557.589V557.789C706.334 557.789 706.734 557.789 707.134 557.789C704.034 559.889 702.534 563.489 702.434 566.989C700.134 567.089 698.034 567.389 697.034 567.989C696.734 568.189 696.634 568.589 696.434 568.989C695.534 570.189 692.934 572.889 691.734 573.689C692.134 574.389 697.734 574.689 698.934 574.989C704.234 576.489 709.034 578.189 713.234 580.789C716.734 582.889 720.334 585.389 723.834 587.589C725.234 588.389 726.834 588.689 728.334 589.389C731.634 590.889 735.134 592.589 738.134 594.489C741.534 596.589 744.334 599.389 747.434 601.689C748.134 602.189 748.534 602.989 749.034 603.589C749.734 604.489 750.834 605.089 751.434 605.989C753.234 608.389 755.034 610.789 756.534 613.389C757.434 614.789 757.534 616.789 758.434 618.189V620.489C757.434 619.789 756.634 618.789 755.834 617.789C754.734 616.289 752.834 614.789 751.334 613.589C750.234 612.789 749.434 611.389 748.234 610.489C746.534 609.189 744.934 607.589 743.234 606.289C742.234 605.589 740.934 604.889 740.134 603.889H739.934C740.634 606.089 742.734 608.189 743.934 610.189C745.334 612.389 746.334 614.589 747.834 616.789C749.234 618.889 751.034 620.689 752.534 622.789C754.534 624.689 756.634 626.589 758.634 628.589C758.734 629.089 758.934 629.589 759.134 630.189C764.034 641.489 769.434 652.689 772.934 664.389C764.034 651.189 754.534 638.289 742.734 627.589C741.834 626.689 740.834 626.089 739.834 625.589C739.734 625.389 739.634 625.189 739.434 624.989C737.734 622.589 735.334 620.789 733.834 618.189C733.734 618.389 734.134 619.189 734.334 619.589C735.034 620.889 718.234 607.289 717.134 605.789C716.534 604.989 715.634 604.489 715.034 603.489H714.734C715.334 605.489 716.334 607.589 717.034 609.589C717.634 611.489 717.634 613.389 718.134 615.389C718.934 618.189 719.934 621.189 720.834 623.889C721.534 626.189 722.134 628.489 722.534 630.889C721.534 633.389 721.534 636.389 723.034 639.489C723.734 640.889 724.334 642.289 725.034 643.689C725.734 648.989 726.534 654.289 727.234 659.489C727.734 661.589 727.434 663.789 727.834 665.789C728.334 668.089 727.834 670.689 728.334 672.889C728.434 676.789 728.434 680.589 728.534 684.489C728.534 692.089 728.934 699.889 727.934 706.689C727.734 708.089 727.934 709.989 728.134 711.189C728.134 711.589 728.034 712.989 727.934 713.589C727.534 715.589 728.134 719.089 727.634 721.289C727.534 722.989 727.434 724.689 727.334 726.389C726.234 730.989 726.434 735.889 725.234 740.589C724.734 742.689 724.634 745.089 724.134 747.389C721.734 757.089 721.234 767.489 718.834 777.289C717.834 781.289 717.934 785.489 717.034 789.489C716.534 791.689 717.134 796.289 717.534 798.189C717.634 799.289 717.634 800.489 717.734 801.589C718.434 804.489 718.134 807.589 718.834 810.589C719.334 812.689 719.534 814.989 720.134 817.189C720.534 818.589 721.134 820.089 721.234 821.689C724.134 821.189 726.634 827.989 727.634 830.389C730.134 836.089 732.434 842.389 734.534 848.589C735.234 850.489 735.334 852.289 735.934 854.189C736.834 856.789 738.234 861.489 738.334 864.489C738.734 863.689 738.034 861.289 737.834 860.289C736.934 856.289 736.934 852.189 736.034 848.389C735.134 844.589 735.434 840.489 734.634 836.689C733.934 833.689 734.234 829.989 733.534 826.889V823.689C733.034 821.389 733.034 815.289 733.534 812.889V809.989C733.634 809.589 734.134 808.589 734.934 807.089C732.534 796.889 738.534 782.389 743.734 773.989C743.534 779.589 743.934 785.189 744.834 790.689C745.834 789.089 746.734 787.689 747.334 786.889C747.334 790.489 747.934 794.389 748.034 797.489C748.534 796.689 748.234 793.989 748.234 792.789C749.234 794.089 749.134 796.689 749.634 798.389C750.834 802.989 752.034 807.489 753.134 812.089C753.634 813.889 753.434 816.389 754.434 817.889V818.189H754.634C754.134 815.789 754.134 809.989 754.634 807.589C755.034 805.589 754.534 803.389 754.934 801.589C755.334 799.789 754.834 797.789 755.934 796.589C756.134 796.489 755.934 796.489 756.234 796.389C757.634 799.489 757.334 804.789 757.634 808.789C758.734 807.389 757.534 803.889 757.934 801.889C758.234 800.689 757.834 798.889 758.134 797.589C758.434 793.989 758.634 790.389 758.934 786.789C759.434 782.689 760.034 778.689 760.534 774.589C761.334 771.389 761.434 767.989 762.134 764.589C764.134 758.489 765.534 752.289 766.534 746.189C766.734 745.489 766.934 744.789 767.134 744.089C768.334 741.589 769.534 739.089 770.734 736.689C770.834 738.589 770.934 740.589 770.934 742.689V745.589C770.334 748.189 771.034 751.289 770.434 753.989C770.134 755.489 770.334 757.289 769.934 758.989C768.934 763.489 768.734 768.489 767.634 772.789C766.834 775.889 766.934 779.089 766.234 782.089C765.934 783.189 766.234 784.589 765.734 785.489V786.089H765.934C766.934 782.589 769.034 779.189 770.434 775.989C773.534 768.789 776.734 761.589 778.834 753.589C779.834 749.789 779.534 745.589 780.434 741.689C780.734 740.289 780.434 738.789 780.734 737.489C780.734 736.989 780.734 736.389 780.734 735.889C782.134 740.589 783.434 745.289 784.634 749.989C785.334 752.689 781.434 795.489 778.934 805.989C778.634 807.389 779.034 809.789 779.234 810.989C779.334 812.089 779.334 813.289 779.434 814.389C779.734 816.489 780.034 818.689 780.434 820.789C780.834 820.089 780.434 818.689 780.234 818.089C779.634 815.489 779.434 812.889 779.434 810.089C779.434 809.089 779.234 807.389 779.634 806.689V805.289H779.834C780.034 805.989 780.434 806.589 780.934 807.089V807.389C781.134 807.089 781.234 806.889 781.234 806.389C781.634 806.889 781.434 807.689 781.734 808.489C782.434 810.589 783.034 812.489 783.634 814.889C784.534 818.089 784.634 821.889 785.434 825.389V832.589C786.134 835.789 785.934 839.689 785.934 843.389C786.934 841.989 786.734 838.389 787.234 836.489C788.834 829.989 789.234 822.689 790.734 816.089C791.434 813.189 791.134 808.489 792.834 806.589C792.934 806.289 792.834 806.389 793.034 806.289C794.934 815.489 792.134 825.289 791.634 833.989C792.934 832.389 793.734 827.789 794.534 825.489C795.934 821.389 796.534 816.589 797.634 811.989C797.834 809.489 798.034 806.989 798.234 804.389V799.289C798.234 795.689 797.634 791.089 798.434 787.889C798.534 786.289 798.534 784.789 798.634 783.189C799.034 780.489 799.434 777.789 799.734 775.189C801.634 767.589 802.634 759.789 804.334 752.189C805.134 750.789 805.734 749.189 805.934 747.389C805.934 746.789 806.034 746.189 806.034 745.589C806.234 745.289 806.334 744.889 806.434 744.589C806.634 744.189 806.734 743.789 806.934 743.389C807.834 742.189 808.434 740.689 808.634 738.889C811.034 732.489 813.434 725.989 815.134 719.389C816.534 718.189 817.534 716.389 817.834 714.189C819.834 701.489 823.334 689.189 826.434 676.789C829.734 685.989 833.334 694.489 837.034 703.189C838.834 707.389 840.334 711.589 842.034 715.689C842.934 717.789 843.334 720.889 844.634 722.589V722.889H844.834C844.634 720.789 844.034 718.489 843.534 716.589C842.734 713.589 842.434 710.489 841.634 707.789C841.434 706.489 841.234 705.189 841.034 703.889C839.734 699.289 838.934 694.089 837.534 689.589C836.734 687.189 836.334 684.689 835.634 682.389C835.334 681.389 835.534 679.989 835.034 679.189V678.589C836.734 679.689 837.434 682.389 838.434 684.189C840.234 687.589 841.534 691.389 843.134 695.089C843.934 696.989 845.134 699.289 845.434 701.489H845.634C845.034 696.889 843.934 692.089 842.534 687.989C842.234 686.689 842.034 685.389 841.734 684.089C840.434 680.089 839.534 675.589 838.334 671.589C837.234 667.589 836.634 663.689 835.434 659.889C835.034 658.589 835.234 656.789 834.634 655.689V654.089H834.834C835.334 655.089 836.134 655.889 836.734 656.789C837.934 658.689 838.834 660.689 839.934 662.589C840.334 663.289 840.334 663.989 840.734 664.689C842.834 668.689 844.334 672.889 846.034 677.589C846.934 679.889 848.634 683.889 848.734 686.589C849.134 685.889 848.734 684.489 848.734 683.689C849.034 682.589 848.734 681.289 848.534 680.189Z" fill="black"/>
<path d="M830.135 743.789C829.735 741.989 829.835 739.989 829.335 737.989C828.935 736.589 828.535 734.889 828.335 733.289C827.635 734.489 828.035 736.689 827.735 738.089C826.835 741.789 826.435 745.489 825.335 748.989C823.635 754.389 822.235 759.989 820.635 765.589C820.235 767.889 819.835 770.189 819.535 772.489C818.935 774.989 819.235 777.889 819.235 780.689C819.235 787.289 819.935 793.089 821.335 798.189C822.235 801.589 822.935 807.089 824.735 809.489V809.789H824.935C825.035 798.489 826.435 789.189 828.835 779.989C829.935 775.689 829.835 771.189 830.735 766.789C830.835 764.889 830.835 762.889 830.935 760.989C831.435 758.589 831.235 753.489 830.735 751.189C830.135 748.689 830.735 746.289 830.135 743.789Z" fill="black"/>
<path d="M346.635 772.989C346.135 768.689 345.135 764.089 344.035 760.089C343.735 758.589 343.535 757.089 343.235 755.589C341.935 751.089 341.035 746.189 339.735 741.789C336.835 732.189 335.435 722.389 332.635 712.689C330.935 706.589 330.935 699.589 329.435 693.189C328.835 690.789 329.135 688.289 328.635 686.089C328.335 682.789 328.135 679.489 327.835 676.089C326.635 671.089 327.535 664.989 326.435 659.889C326.335 657.789 326.335 655.589 326.235 653.489C325.835 651.889 326.535 649.489 326.035 647.689C325.535 645.689 325.735 641.289 326.035 639.789C326.135 636.989 326.135 634.089 326.235 631.289C326.635 629.389 326.135 627.189 326.535 625.189C327.735 619.989 326.635 613.489 327.835 608.289V606.389C328.335 604.089 328.235 601.189 328.835 598.989C329.035 598.089 328.835 597.089 329.335 596.389C329.235 594.789 327.635 593.889 326.635 593.189C326.535 593.189 326.535 593.089 326.435 592.989C326.135 592.989 325.835 593.089 325.535 593.089C324.435 593.089 323.335 592.989 322.335 592.889C321.135 592.689 319.835 592.389 318.635 591.989C318.535 594.389 318.435 596.889 318.335 599.289C317.835 601.689 317.835 605.589 317.835 608.089V611.589C317.435 613.289 318.135 615.789 317.635 617.689C317.135 619.989 318.035 623.189 317.435 625.689C317.135 626.989 317.235 628.989 317.235 630.489V639.489C317.235 642.189 317.035 646.089 317.535 648.689C317.935 650.689 317.435 652.889 317.835 654.689C318.435 657.189 317.935 660.089 318.435 662.389C319.035 665.189 318.835 668.189 319.435 670.789C319.535 671.589 319.535 672.389 319.635 673.189C320.235 675.789 320.435 678.889 321.035 681.389C321.235 682.589 321.335 683.889 321.535 685.089C322.735 689.689 323.335 694.689 324.635 699.089C325.435 701.889 325.435 704.489 326.235 707.289C328.735 716.189 330.335 725.689 333.135 734.289C334.035 737.189 334.435 739.789 335.435 742.689C337.635 749.289 339.935 755.989 342.535 762.189C343.635 764.789 344.435 767.389 345.435 769.889C345.835 770.889 345.835 771.889 346.435 772.589V772.889H346.635V772.989Z" fill="black"/>
<path d="M560.135 508.789C561.435 507.789 562.535 506.289 563.835 505.289C565.935 503.689 570.035 501.189 571.535 499.189C574.235 495.589 577.235 488.689 577.135 482.489C575.635 483.489 573.235 486.589 572.135 488.089C571.635 488.489 571.135 488.989 570.735 489.389C569.635 490.889 568.335 492.289 567.035 493.589C566.535 494.089 565.935 494.589 565.435 494.989C562.935 498.289 561.235 502.189 559.035 505.789C557.735 507.889 556.535 510.189 555.135 512.389C554.535 513.289 553.635 514.289 553.335 515.489H553.535C553.935 514.089 558.835 509.689 560.135 508.789Z" fill="black"/>
<path d="M683.135 652.889C684.535 652.389 685.635 652.389 687.035 651.889C688.635 651.389 690.535 650.589 692.535 650.589V650.389H692.735C692.135 645.789 690.635 640.989 688.735 637.489C685.135 638.289 681.935 639.889 678.635 640.989C677.635 641.289 676.735 641.589 675.735 641.889C677.335 645.989 678.135 650.289 678.035 654.689C679.635 654.089 681.435 653.489 683.135 652.889Z" fill="white"/>
<path d="M259.835 223.589C262.035 225.189 264.235 227.589 265.835 229.889C266.335 230.689 266.635 231.589 267.235 232.289C267.435 232.389 270.335 230.889 270.735 230.489H270.935C270.635 229.789 269.935 229.589 269.535 229.089C268.935 228.289 268.335 226.989 267.935 225.989C264.735 218.689 260.735 211.989 254.735 207.489C251.635 205.189 248.535 202.889 243.135 202.789C243.035 216.889 251.835 217.889 259.835 223.589Z" fill="black"/>
<path d="M238.135 251.689C239.135 251.389 240.535 250.189 241.035 249.389C241.035 249.389 239.435 246.389 239.135 245.689C237.935 243.389 233.935 235.889 236.035 232.689C237.335 230.789 240.635 230.589 243.135 231.589C245.935 232.789 250.135 235.389 251.835 237.689C252.435 238.489 253.035 239.589 253.735 240.289V240.489C254.735 240.189 255.535 239.389 256.335 238.889C258.635 237.489 260.935 235.789 263.435 234.689C263.135 233.189 261.935 232.189 261.135 231.189C258.335 227.389 254.835 225.489 250.835 222.989C244.535 218.989 239.235 213.489 239.735 203.189C238.135 203.289 237.035 203.889 235.835 204.289C230.235 206.689 227.735 210.389 225.435 215.989C224.535 218.189 223.435 221.689 224.335 224.689C226.735 232.589 232.335 238.089 235.635 245.389C236.335 247.389 237.835 249.489 238.135 251.689Z" fill="black"/>
<path d="M352.935 886.589C351.935 885.689 344.435 875.989 344.935 876.289C344.935 876.289 340.435 871.289 338.535 868.589C335.035 863.789 331.835 858.489 328.835 853.189C328.535 853.189 326.735 851.289 326.135 850.189C326.335 850.089 319.835 836.189 318.535 833.289C317.935 831.889 316.635 830.289 316.435 828.589C316.035 829.089 311.635 819.389 311.535 818.689C311.635 818.389 304.335 793.789 300.735 783.189C299.935 779.289 299.235 775.289 298.235 771.489C297.235 767.989 297.035 764.289 296.135 760.889C295.735 759.489 296.035 757.789 295.335 756.689C295.135 755.589 292.435 741.689 292.435 741.689H292.635C292.335 738.089 291.535 734.189 290.735 730.789C289.535 725.789 289.535 720.389 288.335 715.489C288.235 714.689 288.235 713.889 288.135 713.089C287.335 709.589 287.535 705.689 286.735 701.989C286.035 698.889 285.535 694.389 285.435 691.089C285.135 691.389 284.335 679.189 284.135 678.189C283.835 673.289 283.635 668.389 283.335 663.589C283.235 663.689 283.235 663.789 283.235 663.889C283.135 658.789 283.035 653.789 282.935 648.789C282.935 648.189 282.835 647.589 282.735 646.989C282.835 646.689 282.835 646.389 282.935 646.089V637.389C282.935 633.289 282.635 628.789 283.235 624.889C283.735 621.289 282.835 617.489 283.535 614.089C284.035 611.789 283.435 609.289 283.835 607.189C284.035 606.289 283.635 604.989 284.035 604.289V602.689C283.935 602.589 284.135 596.789 284.335 597.089H284.535C284.535 594.289 284.735 591.389 285.335 588.889C285.835 586.489 285.635 583.989 286.135 581.789C286.435 579.089 286.635 576.389 286.935 573.789C287.335 572.189 287.235 570.389 287.435 568.689V568.589C287.535 567.989 287.535 567.489 287.735 566.889C288.235 564.489 288.535 561.789 288.835 559.189C289.235 556.489 289.635 553.689 290.035 550.989C290.235 549.989 290.135 549.089 290.135 548.089C290.535 544.089 291.035 540.089 291.435 536.189C290.035 535.989 282.435 530.089 280.935 529.089C278.535 527.489 272.635 526.889 268.735 526.989C268.635 528.789 268.335 530.789 267.935 532.489C267.235 535.389 267.435 538.489 266.835 541.189C266.735 541.989 266.735 542.789 266.635 543.589C265.735 547.189 265.735 551.289 264.835 554.889C264.635 556.689 264.435 558.489 264.235 560.389C262.835 565.889 262.835 572.089 261.535 577.789C260.635 586.789 259.735 595.689 258.835 604.689C258.135 607.789 258.835 611.089 258.235 613.989C258.135 616.589 258.135 619.089 258.035 621.689C257.735 623.089 258.235 625.189 257.835 626.789C257.535 628.089 257.635 630.189 257.635 631.789C257.635 634.089 257.235 636.889 257.335 638.989C257.335 640.089 257.435 642.789 257.135 644.089C257.035 646.389 257.035 648.689 256.935 650.989C256.935 651.889 257.135 653.289 256.735 653.889V657.089H256.935C257.035 656.589 257.235 656.189 257.435 655.789C256.435 681.389 257.135 706.889 260.235 732.389C263.835 761.189 283.235 827.089 284.535 830.789C285.035 832.189 285.835 833.789 285.935 835.489C286.635 834.489 292.435 850.189 293.835 853.489C295.535 857.589 297.635 861.589 299.335 865.589C299.635 866.389 299.435 867.289 299.835 868.189C300.735 869.189 301.635 870.189 302.535 871.289H302.935C302.435 869.889 310.835 878.289 313.735 882.089C314.235 882.789 315.235 883.289 316.035 883.889C317.235 884.789 318.235 886.089 319.435 886.989C321.735 888.689 324.035 889.989 326.535 891.489C327.635 892.189 328.935 892.789 330.135 893.489C331.135 894.689 341.735 901.289 345.335 898.989C351.835 899.489 355.235 895.389 355.435 894.489C355.535 893.989 354.535 888.889 354.335 888.389C353.835 887.589 353.335 887.089 352.935 886.589Z" fill="black"/>
<path d="M298.035 325.589C297.135 323.489 295.635 321.989 293.835 320.989C293.535 318.589 287.235 317.689 284.835 317.189C283.735 316.889 282.135 317.389 281.335 316.889C280.635 317.089 269.935 317.689 268.335 318.789C267.535 319.289 267.335 320.489 266.535 321.089C267.035 324.689 268.135 328.589 269.135 331.989C269.835 334.389 272.735 368.089 276.035 383.089C276.535 385.489 277.035 387.889 277.435 390.189C277.335 389.989 277.135 389.789 277.035 389.589V389.289H276.835C277.035 392.089 277.235 394.889 277.435 397.689C277.535 399.489 277.535 401.289 277.635 403.189C278.135 405.289 277.435 407.789 277.935 410.089C278.235 411.189 278.035 413.689 278.135 414.589C278.235 415.789 278.335 417.489 278.335 418.889C278.835 418.989 278.935 423.389 278.635 423.089H278.435C278.335 428.289 278.235 433.489 278.135 438.689C277.635 440.789 278.035 443.289 277.535 445.489C277.335 446.489 277.135 447.489 276.935 448.589C277.035 449.289 277.435 450.389 277.535 451.289C280.535 451.389 283.635 452.089 286.335 452.689C287.635 452.989 289.235 452.689 290.235 453.289H291.235C290.835 452.589 296.235 452.989 296.535 454.289C298.235 454.389 301.235 454.589 302.335 455.389H302.535C302.535 451.989 302.635 448.289 303.335 445.289C303.635 443.789 303.135 440.989 303.835 439.789C303.735 438.289 304.335 426.289 304.635 426.789V427.089H304.835C304.835 419.689 305.135 412.289 305.135 404.589V397.589C306.135 375.989 305.035 354.389 300.235 333.289C299.935 331.389 297.935 324.689 298.035 325.589Z" fill="black"/>
<path d="M668.235 781.789C668.035 780.789 667.735 779.79 667.535 778.69C667.435 778.09 667.235 777.49 667.135 776.89C667.035 776.59 667.035 776.289 666.935 775.989C666.835 775.489 666.835 775.389 666.935 775.789C666.835 775.089 666.635 774.389 666.235 773.789C665.935 772.289 665.635 770.789 665.335 769.289C661.735 754.089 647.335 742.09 624.535 735.19C622.335 733.99 619.735 733.189 617.235 732.989C616.835 732.589 616.335 732.29 615.735 732.19C604.535 730.09 593.135 727.989 581.735 728.289C581.135 728.289 580.635 728.49 580.235 728.69C579.635 728.69 579.035 728.589 578.435 728.489C578.135 728.489 577.735 728.489 577.435 728.589C572.135 728.089 566.935 728.89 561.535 728.89C560.435 728.89 559.535 729.29 558.835 729.89C556.235 730.09 553.535 730.39 550.835 730.69C550.535 730.99 550.235 731.289 549.835 731.589C549.535 732.089 549.135 732.589 548.735 733.089C548.135 733.689 547.235 733.989 546.335 734.089C544.135 734.689 542.335 733.789 541.335 732.089C535.435 733.089 529.435 734.29 523.435 735.69C519.635 736.59 515.835 737.589 512.135 738.589C513.335 750.689 520.435 761.69 534.035 772.69C542.435 779.49 552.735 785.79 563.735 791.89L563.835 791.989C564.435 792.389 565.135 792.789 565.835 793.089C565.935 793.189 566.135 793.189 566.235 793.289C566.435 793.389 566.535 793.489 566.735 793.589C573.735 799.389 582.235 802.589 590.535 805.989C599.035 810.389 607.635 814.889 615.835 819.589C615.935 819.689 616.135 819.79 616.235 819.89C622.435 823.29 627.935 827.689 633.735 831.589C635.835 833.289 637.635 835.09 639.635 836.89C639.935 837.19 640.135 837.389 640.435 837.589C641.035 838.189 641.535 838.79 642.135 839.39C642.335 839.89 642.735 840.39 643.035 840.89C643.935 841.99 645.035 842.989 646.035 843.989C646.035 844.089 646.135 844.09 646.135 844.19C647.135 845.59 648.035 847.09 648.735 848.69C648.835 848.89 648.935 849.09 648.935 849.39C649.335 850.69 650.235 851.589 651.335 852.089C652.635 854.489 653.735 856.889 654.635 859.089C655.935 856.489 657.135 853.889 658.235 851.289C658.635 850.789 658.935 850.29 659.135 849.69C659.735 848.99 660.035 848.09 660.035 847.19V847.089C661.035 844.589 661.935 842.189 662.735 839.589C664.035 836.989 664.735 834.19 665.435 831.39C666.235 827.89 667.135 824.39 667.635 820.89C668.135 817.89 668.035 814.289 668.435 811.589C668.435 811.489 668.435 811.29 668.435 811.19C668.635 808.59 668.835 805.99 668.935 803.39C669.035 801.19 668.935 799.089 668.935 796.989C669.335 794.389 669.435 791.79 669.335 789.19C669.135 786.59 668.735 784.189 668.235 781.789Z" fill="#878787"/>
<path d="M479.235 689.789C475.335 696.489 476.335 705.189 476.835 712.789C476.835 713.889 476.935 714.989 476.935 716.089C476.935 722.089 477.735 727.989 478.435 733.989C478.435 734.289 478.435 734.689 478.535 734.989C478.535 735.189 478.635 735.489 478.635 735.689C478.735 736.789 479.135 737.689 479.735 738.489C479.935 739.489 480.035 740.389 480.235 741.389C481.535 740.789 482.935 740.289 484.335 739.789C484.435 739.789 484.435 739.689 484.535 739.689C490.735 737.189 497.135 734.889 503.735 732.789C504.335 717.189 510.035 703.589 520.635 692.489C520.635 688.689 520.535 685.089 519.235 681.389C518.935 680.489 518.635 678.689 518.435 676.789C518.435 676.789 518.435 676.689 518.335 676.689C518.335 676.589 518.335 676.589 518.335 676.489C518.235 674.389 518.335 672.089 519.035 670.489C507.735 672.189 496.735 675.189 486.335 679.689V679.789C483.335 681.289 480.835 684.689 479.235 689.789Z" fill="#878787"/>
<path d="M534.735 725.189C532.835 724.489 531.835 722.789 530.435 720.989C528.435 718.389 526.935 716.189 523.935 714.789C520.335 713.089 520.235 710.689 520.735 706.989C520.835 706.189 521.035 705.489 521.135 704.689C515.835 712.289 512.835 720.689 512.035 730.389C515.135 729.489 518.235 728.689 521.435 727.989C525.835 726.989 530.335 725.989 534.735 725.189Z" fill="#878787"/>
<path d="M431.935 770.689C435.635 767.489 439.635 764.389 443.835 761.389C439.435 747.689 431.135 739.289 425.135 734.689C422.835 738.689 420.835 742.789 418.935 746.989C418.935 746.989 418.935 746.989 419.035 746.989C419.035 746.989 418.935 746.989 418.935 747.089C412.235 762.289 408.435 778.789 408.035 795.989C408.035 797.389 408.035 798.789 408.035 800.289C412.835 790.189 420.835 780.189 431.935 770.689Z" fill="#878787"/>
<path d="M442.135 836.29C443.835 823.99 445.935 808.79 446.735 783.09C446.835 778.29 446.535 773.89 445.935 769.89C442.835 772.09 439.935 774.39 437.235 776.79C416.735 794.39 407.635 813.19 411.635 829.79C413.235 836.39 415.335 842.89 417.935 849.09C417.935 849.29 417.935 849.59 418.035 849.79C418.435 852.59 419.635 855.29 420.835 857.79C421.535 859.19 422.335 860.59 423.135 861.89C423.635 862.69 424.135 863.59 424.735 864.29C425.135 864.89 425.635 865.29 426.135 865.59C430.935 873.69 436.435 881.19 442.835 888.09C441.035 880.39 439.735 870.19 440.135 857.09C440.235 850.39 441.135 843.89 442.135 836.29Z" fill="#878787"/>
<path d="M472.836 744.789C472.136 741.489 471.636 738.289 471.136 735.189C470.636 730.489 470.136 725.789 469.736 721.089C469.236 714.689 468.936 708.389 468.936 701.989C469.336 696.489 470.136 691.689 471.436 687.689C463.436 692.489 455.836 698.289 448.836 704.889C441.436 711.889 434.936 719.689 429.436 727.989C430.836 729.089 432.436 730.389 434.036 731.789C434.036 731.889 434.136 731.889 434.136 731.989C436.236 734.689 438.636 737.189 440.836 739.689C441.436 740.289 441.936 740.989 442.436 741.589C442.536 741.689 442.636 741.889 442.836 741.989C442.936 742.189 443.036 742.289 443.036 742.289C443.236 742.489 443.436 742.789 443.536 742.989C444.536 744.389 445.436 745.889 446.236 747.389C446.436 747.689 446.636 747.989 446.836 748.289C448.236 750.889 449.536 753.689 450.636 756.789C457.636 752.489 465.036 748.489 472.836 744.789ZM450.436 754.389C450.636 754.289 450.436 754.289 450.736 754.189C450.536 754.289 450.736 754.289 450.436 754.389Z" fill="#878787"/>
<path d="M546.035 901.189C543.735 898.589 541.535 895.689 539.335 892.789C539.335 892.589 539.335 892.389 539.235 892.189C539.035 891.489 538.735 890.889 538.435 890.289C538.135 889.689 537.635 889.189 537.235 888.689C537.035 888.389 536.735 888.189 536.535 887.989C536.235 887.789 535.935 887.489 535.635 887.289C535.735 886.289 535.335 885.189 534.335 884.289C532.235 882.289 530.335 880.189 528.535 877.889C525.335 873.089 522.235 867.989 519.135 862.689C517.635 859.389 516.035 856.189 513.835 853.389C513.635 852.989 513.335 852.489 513.135 852.089C513.135 851.989 513.135 851.989 513.135 851.889C513.035 851.289 513.035 850.789 512.835 850.189C512.735 849.689 512.435 849.189 512.235 848.689C512.135 848.489 512.035 848.289 511.935 848.189C511.735 847.889 511.535 847.489 511.335 847.189C511.135 846.789 510.835 846.489 510.535 846.189V846.089C508.435 841.089 505.735 836.489 503.035 831.789C502.535 830.989 502.035 830.089 501.635 829.189C500.235 826.189 498.935 823.289 497.535 820.189C497.335 819.489 497.035 818.789 496.935 818.189C496.735 817.489 496.335 816.889 495.835 816.389C486.435 794.489 479.235 772.789 474.535 752.889C466.935 756.589 459.735 760.589 453.135 764.889C454.035 768.989 454.635 773.489 454.735 778.289C454.535 779.589 454.335 780.889 454.335 782.189C454.335 782.389 454.335 782.489 454.335 782.689C454.335 782.789 454.335 782.989 454.335 783.089C454.335 783.189 454.335 783.289 454.335 783.389C454.235 783.589 454.135 783.689 454.135 783.889C451.835 793.489 452.635 802.989 452.235 812.689C451.935 819.289 450.735 825.789 450.735 832.289C450.535 833.989 450.235 835.689 450.035 837.289C448.935 844.889 448.135 850.889 447.935 857.189C447.735 863.789 447.735 885.989 455.335 899.989C457.435 901.789 459.635 903.389 461.835 904.989C465.935 910.389 472.835 913.089 478.935 915.589C479.035 915.589 479.135 915.689 479.335 915.689C482.235 917.189 485.235 918.489 488.335 919.789C488.635 919.989 489.035 920.189 489.435 920.389C492.235 921.289 494.835 922.889 497.635 923.789C500.535 924.689 503.335 925.589 506.235 926.289C510.935 927.489 515.735 928.389 520.535 928.689C525.135 929.289 529.835 929.689 534.635 929.889C548.135 930.289 561.335 928.589 574.035 924.989C565.635 920.989 556.135 912.989 546.035 901.189Z" fill="#878787"/>
<path d="M645.735 858.889C645.635 858.289 645.535 857.689 645.235 857.089C642.735 851.889 639.035 847.389 635.035 843.289C634.835 843.089 634.735 842.989 634.535 842.889C634.435 842.689 634.335 842.589 634.135 842.389C633.435 841.489 632.635 840.689 631.735 839.989C631.035 839.389 630.335 838.889 629.535 838.489C629.435 838.389 629.235 838.389 629.035 838.289C628.935 838.089 628.835 837.989 628.635 837.789C628.235 837.389 627.835 837.089 627.235 836.889C627.035 836.789 626.735 836.689 626.535 836.689C623.035 833.989 619.035 831.189 614.335 828.489C604.435 822.689 593.535 817.089 583.035 811.689C566.335 803.089 549.335 794.289 535.335 784.289C527.135 775.489 516.935 768.089 510.035 758.489C506.935 753.089 504.835 747.389 503.935 741.189C496.235 743.689 488.835 746.389 481.835 749.489C482.135 750.589 482.335 751.689 482.635 752.889C482.535 753.489 482.535 754.089 482.735 754.689C483.835 758.889 485.135 763.089 486.435 767.189C488.435 773.989 490.635 780.989 493.235 788.089C494.235 791.889 495.235 795.689 496.735 799.289C497.035 800.089 497.535 800.789 498.135 801.289C498.135 801.589 498.235 801.789 498.335 802.089C499.835 806.489 501.635 810.789 503.535 814.989C504.435 817.089 505.035 818.289 505.735 820.289C506.535 822.389 507.335 824.589 508.035 826.689C508.435 827.889 509.235 828.789 510.235 829.289C510.735 830.289 511.235 831.189 511.835 832.089C524.135 857.389 538.135 879.589 552.035 895.789C552.335 896.089 552.535 896.389 552.835 896.689C552.935 897.489 553.335 898.289 554.035 898.889C558.035 902.389 561.635 906.189 565.435 909.789C568.335 912.589 571.635 915.489 575.535 916.589C581.335 919.789 586.335 920.789 590.135 919.189V919.289C591.935 918.489 593.635 917.689 595.435 916.889C595.635 916.789 595.935 916.689 596.135 916.589C596.635 916.289 597.135 916.089 597.635 915.789C599.035 915.089 600.535 914.289 601.935 913.489C604.235 912.289 606.535 911.089 608.735 909.589C610.735 908.289 612.835 907.289 614.735 905.789C615.435 905.189 616.135 904.489 616.835 903.889C616.935 903.789 617.035 903.689 617.235 903.589C617.435 903.389 617.635 903.289 617.835 903.089C617.835 903.089 617.935 903.089 617.935 902.989C618.735 902.689 619.335 902.089 619.835 901.489C622.635 899.189 625.435 896.789 628.135 894.289C628.235 894.189 628.235 894.189 628.335 894.089C635.735 888.089 641.335 880.189 646.835 872.489C647.035 872.189 647.235 871.789 647.335 871.489C647.835 870.689 648.435 869.889 648.935 869.089C648.835 868.089 648.535 867.089 648.335 865.989C648.135 863.389 647.035 861.189 645.735 858.889Z" fill="#878787"/>
<path d="M593.435 721.689C597.035 722.189 600.735 722.889 604.235 723.589C610.535 724.689 616.835 725.889 623.135 726.589C636.135 730.089 646.935 735.089 655.135 741.489C649.435 730.089 642.035 719.489 633.135 709.989C623.835 700.089 613.235 691.889 601.735 685.489C599.935 685.889 598.235 686.489 596.635 687.089C594.435 687.789 592.335 688.489 590.135 689.389C589.935 689.489 589.835 689.489 589.635 689.589C588.935 690.089 588.235 690.689 587.435 691.089C586.335 691.589 584.335 692.889 582.735 693.189C579.035 695.489 575.835 698.289 573.335 701.889C573.135 703.489 572.635 705.489 571.735 706.389C571.035 706.989 570.535 707.189 570.235 707.089C569.435 708.489 568.535 709.789 567.535 711.189C565.735 713.789 563.635 716.189 561.635 718.789C561.235 718.989 560.835 719.289 560.435 719.589C560.235 719.789 560.135 720.089 560.035 720.289C559.735 720.789 559.435 721.489 559.135 722.089C570.935 720.889 582.435 720.789 593.435 721.689Z" fill="#878787"/>
<path d="M356.935 578.689C356.935 575.789 356.135 568.189 355.035 566.589C354.635 565.989 353.435 565.289 352.535 564.689C352.535 565.589 352.635 566.489 352.535 567.289C352.335 569.589 351.735 571.889 350.935 574.089C351.735 574.689 352.635 575.389 353.435 575.989C354.535 576.789 355.835 577.489 356.635 578.589H356.935V578.689Z" fill="white"/>
<path d="M262.235 487.489C260.435 486.689 257.935 485.189 257.235 483.289C256.235 484.589 256.935 487.089 256.135 488.589V492.289C258.035 490.989 259.135 489.189 262.235 489.089C262.035 488.689 262.035 487.989 262.235 487.489Z" fill="white"/>
<path d="M348.235 579.689C346.635 582.189 344.735 584.489 342.435 586.489C343.635 587.489 344.935 588.489 346.135 589.389C348.735 591.289 351.035 593.289 353.535 595.189C354.535 595.889 355.735 596.589 356.435 597.589H356.735C356.735 596.389 356.735 590.289 357.035 589.689V586.189C356.735 585.689 354.435 584.389 353.835 583.889C352.035 582.489 350.135 581.089 348.235 579.689Z" fill="white"/>
<path d="M319.735 537.989L321.635 537.589C320.935 536.989 320.235 536.289 319.735 535.589C318.735 535.989 317.935 536.889 317.035 537.389C316.135 537.689 315.235 537.889 314.335 538.189C311.735 538.189 311.935 540.789 310.835 542.189C311.135 543.289 312.635 544.389 313.435 545.089C315.435 547.089 317.535 548.789 319.735 550.389C320.435 546.389 320.535 542.089 319.735 537.989Z" fill="white"/>
<path d="M289.735 522.389C290.335 523.089 291.035 523.789 291.635 524.489C292.035 524.789 292.835 524.989 293.035 525.489C293.635 526.389 293.735 527.189 294.635 527.789C295.435 528.289 297.635 529.289 298.835 528.389C299.935 527.989 299.935 527.089 300.635 526.289C300.635 523.489 298.635 522.989 297.135 521.789C295.335 520.489 292.735 517.889 291.535 515.989C290.035 517.189 290.235 519.289 287.635 519.989V520.189C288.335 520.689 288.635 521.589 289.235 522.289L289.735 522.389Z" fill="white"/>
<path d="M292.634 502.289C294.034 501.789 294.734 498.489 293.734 496.789C293.234 495.989 292.134 495.089 291.334 494.689C289.134 493.689 286.034 494.389 283.334 494.389C278.134 494.389 273.034 494.089 268.834 492.989C266.834 492.489 264.834 492.389 263.734 491.089C262.434 491.589 259.834 494.789 258.734 495.889C258.834 498.189 260.934 499.589 262.734 500.089C263.534 500.189 264.334 500.189 265.134 500.289C270.934 501.589 278.734 501.089 284.434 502.389C285.734 502.589 291.734 503.089 292.634 502.289Z" fill="white"/>
<path d="M306.635 565.489C307.935 566.089 309.235 566.789 310.535 567.389C311.135 566.689 311.635 565.989 312.235 565.389L312.935 564.589C314.735 562.489 316.135 560.089 317.235 557.589C314.435 555.789 311.535 553.989 308.735 552.289C307.335 551.389 305.435 550.689 304.435 549.389C302.335 550.089 301.235 551.989 298.135 551.989C297.835 552.989 298.035 554.189 297.835 555.389C297.435 557.289 297.135 559.589 297.235 561.789C299.435 561.889 300.235 562.889 301.735 563.589C303.335 564.389 304.935 564.789 306.635 565.489Z" fill="white"/>
<path d="M298.934 542.489C298.834 542.989 299.034 543.589 298.734 543.889V544.889C300.934 544.389 303.734 543.189 304.834 541.489C305.234 540.889 305.134 540.089 305.434 539.389C306.034 538.089 307.034 536.089 308.134 535.189C307.934 535.089 306.834 535.289 306.334 534.989C305.434 534.389 304.334 532.089 304.034 530.989C303.234 531.389 302.834 532.289 302.134 532.789C301.434 533.289 300.434 533.389 299.734 533.889C299.134 535.089 299.334 540.789 298.934 542.489Z" fill="white"/>
<path d="M268.535 510.889C266.135 510.889 261.735 510.889 260.535 509.789H259.935C259.335 510.689 258.735 511.589 258.135 512.489C258.135 512.989 258.135 513.689 258.335 513.889C259.035 515.589 266.235 514.989 268.835 515.189C272.235 515.489 275.835 515.789 278.935 516.489C280.235 516.789 281.035 516.389 282.135 516.689C282.935 516.889 284.335 516.689 284.835 516.489C288.335 515.489 287.435 513.189 285.935 510.889C280.435 510.889 274.135 510.889 268.535 510.889Z" fill="white"/>
<path d="M306.635 514.889C304.435 512.889 302.035 510.689 300.235 508.289C299.335 507.089 297.535 505.989 297.035 504.389C296.135 504.689 295.835 505.589 295.135 505.989C294.135 506.589 293.135 506.489 291.735 506.789C291.035 506.989 289.035 507.189 288.335 506.789H288.135C288.435 507.389 289.035 507.589 289.435 508.089C289.935 508.689 290.235 509.489 290.835 509.889C292.135 510.589 293.335 510.789 294.535 511.489C298.235 513.789 300.835 517.389 304.835 519.389C305.735 518.089 306.635 517.189 306.635 514.889Z" fill="white"/>
<path d="M312.535 504.089C313.335 503.789 313.835 503.089 313.835 501.989C313.035 500.989 312.235 500.089 311.435 499.089C308.335 496.789 306.035 494.389 303.735 491.189C302.735 489.789 301.335 488.589 300.535 486.989C299.035 488.989 299.335 490.589 296.335 491.289V491.489C300.335 492.489 301.535 496.189 303.535 499.089C304.435 500.389 305.735 501.489 307.035 502.489C308.035 503.189 310.835 505.389 312.535 504.089Z" fill="white"/>
<path d="M260.335 480.789C261.435 481.989 262.335 483.289 263.835 483.989C268.735 486.289 276.135 485.189 282.135 486.589C283.435 486.689 284.835 486.689 286.135 486.789C286.935 486.989 288.135 486.889 289.035 487.089C292.535 487.989 292.835 489.089 296.135 486.589C296.335 485.489 296.935 482.889 296.135 481.889C294.735 479.989 289.035 481.089 286.135 480.489C284.735 480.189 283.035 480.389 281.435 479.989C277.735 479.089 273.535 478.689 270.035 477.689C268.235 477.189 265.835 477.389 264.435 476.389C262.035 476.989 260.235 477.689 260.335 480.789Z" fill="white"/>
<path d="M264.035 462.289C264.335 463.089 264.835 463.289 265.435 463.689C268.635 465.889 270.335 464.989 275.235 465.489C278.635 465.789 281.735 466.289 285.335 466.289C287.935 466.289 291.535 465.689 293.335 466.089C295.435 466.589 297.635 465.789 299.135 466.689C300.635 466.689 303.435 463.289 302.535 461.889C302.235 459.789 297.335 459.889 295.335 459.289C293.535 458.789 290.735 458.689 288.535 459.089H283.535C279.435 459.089 275.435 459.089 272.235 458.289C270.535 457.789 268.435 457.889 267.235 456.889H266.935C266.335 457.789 265.435 458.489 265.035 459.489C264.535 460.489 264.635 461.589 264.035 462.289Z" fill="white"/>
<path d="M316.435 473.889C313.935 471.489 311.435 469.189 309.335 466.489C308.435 465.689 307.535 464.989 306.635 464.189C306.335 464.589 306.435 465.089 306.135 465.489C305.235 467.089 303.535 468.289 301.435 468.689V468.889C303.635 470.189 307.135 473.289 308.635 475.289C310.635 477.989 312.735 481.389 317.435 481.389C317.935 480.889 318.735 480.789 319.235 480.289C319.535 479.989 319.635 479.489 319.835 479.189C319.935 475.689 318.135 475.489 316.435 473.889Z" fill="white"/>
<path d="M313.835 529.689C314.935 529.689 316.635 528.989 317.035 528.389C317.435 527.889 317.935 526.289 318.135 525.689V523.289C318.935 519.389 318.935 512.689 318.135 508.789C317.335 509.289 316.535 509.789 315.735 510.189C314.935 510.489 313.835 510.389 313.135 510.789C312.735 511.389 314.435 515.689 313.935 517.889C313.335 520.489 311.835 522.289 309.935 523.489C310.635 524.989 311.135 526.789 312.035 528.189C312.535 528.789 313.335 529.189 313.835 529.689Z" fill="white"/>
<path d="M320.635 485.289V484.489C319.935 484.889 319.235 485.389 318.335 485.589C316.035 486.189 312.135 484.689 311.235 483.789C309.735 485.389 309.835 488.489 308.035 489.789C308.335 490.589 309.135 491.589 309.835 492.089V492.289H310.035C311.235 490.489 314.635 489.389 316.935 488.789C317.835 488.589 318.735 488.689 319.335 488.289C320.435 487.689 320.035 486.289 320.635 485.289Z" fill="white"/>
<path d="M656.536 639.689C653.236 637.589 644.236 636.689 640.836 637.889C641.436 638.589 642.336 639.489 642.936 640.089C645.336 642.589 648.136 645.289 649.436 648.589C652.136 655.589 652.436 662.989 650.136 669.589L650.036 669.889C649.836 670.489 649.536 671.289 649.336 672.089C656.236 671.189 662.536 665.789 664.336 659.089C666.236 652.089 662.936 643.689 656.536 639.689Z" fill="#878787"/>
<path d="M322.936 573.089L322.136 574.089C321.236 575.089 320.036 576.589 319.936 577.189C319.936 577.289 320.036 577.489 320.236 577.689C321.036 578.789 322.636 579.689 324.236 579.889C327.336 580.289 330.636 579.289 333.536 576.989C336.936 574.289 339.236 570.189 339.636 566.189C340.136 560.489 337.636 554.489 333.236 549.889C331.936 558.389 328.436 566.489 322.936 573.089Z" fill="#878787"/>
<path d="M455.235 315.289C450.735 325.189 452.635 340.089 452.635 350.789C452.635 363.989 452.835 377.189 452.235 390.289C451.535 405.889 447.635 420.589 448.535 436.389C459.035 436.989 466.235 435.089 472.335 445.089C478.135 454.689 480.035 466.189 485.135 476.189C492.335 490.289 503.135 499.789 514.035 510.989C520.135 517.289 532.135 527.789 534.635 536.089C541.335 517.589 550.735 499.489 561.935 483.389C566.935 476.289 570.435 471.689 569.535 462.489C568.535 452.289 566.535 446.689 569.335 436.689C577.235 409.189 558.835 399.089 548.335 375.889C540.435 358.489 533.335 341.189 516.435 329.989C507.935 324.389 496.335 322.789 486.835 319.189C476.635 315.289 466.835 309.589 457.035 305.789C454.635 308.889 453.135 312.189 455.235 315.289Z" fill="black"/>
</svg>
