<svg width="1080" height="1080" viewBox="0 0 1080 1080" fill="none" xmlns="http://www.w3.org/2000/svg">
<path d="M1080 0H0V1080H1080V0Z" fill="#003B4A"/>
<path d="M572.13 925.88L545.632 809.121C542.226 811.029 540.316 812.025 540.316 812.025L539.901 812.274L539.485 812.025C539.485 812.025 537.076 810.781 532.757 808.374C525.945 804.64 511.824 796.673 493.716 785.553L481.173 777.753C478.764 776.259 476.355 774.682 473.863 773.105L453.595 822.398L431.25 773.686L389.55 874.015L346.439 674.686C344.196 672.528 342.036 670.37 339.794 668.213L338.464 666.885C336.388 664.81 334.311 662.653 332.318 660.578L330.656 658.836C328.663 656.761 326.669 654.686 324.759 652.529L323.263 650.869C321.685 649.126 320.024 647.301 318.529 645.475L317.199 643.981C315.123 641.575 313.046 639.085 310.886 636.43L309.64 634.936C308.311 633.276 306.982 631.617 305.653 629.957L305.321 629.625C303.66 627.467 301.998 625.31 300.337 623.152L278.989 749.372L226.657 472.95C226.325 471.29 225.993 469.631 225.66 467.971L225.162 465.398C224.996 464.568 224.83 463.656 224.664 462.826L223.418 454.444C221.922 442.66 221.341 431.126 221.673 420.006V419.093C221.756 417.433 221.839 415.773 221.922 414.114L222.005 412.786C222.088 411.209 222.255 409.716 222.421 408.222L222.504 407.06C222.67 405.234 222.919 403.326 223.168 401.583C223.334 400.504 223.501 399.425 223.667 398.347V398.181C223.916 396.272 224.248 394.363 224.664 392.372L224.747 391.708C224.913 390.878 225.079 390.131 225.245 389.301L225.494 387.808C225.577 387.227 225.743 386.729 225.826 386.148L226.242 384.322C226.408 383.741 226.491 383.16 226.657 382.58L226.574 382.663L227.156 380.173V379.758L227.239 379.675L227.82 377.435C228.069 376.522 228.318 375.609 228.485 374.696C228.651 373.949 228.9 373.202 229.066 372.455L229.398 371.377C229.564 370.713 229.731 370.049 229.98 369.468C230.229 368.555 230.478 367.642 230.81 366.812L230.977 366.398C231.392 365.07 231.807 363.742 232.223 362.414L232.306 362.165C232.638 361.087 233.053 360.008 233.385 358.929C233.635 358.265 233.801 357.684 234.05 357.02L234.299 356.439C234.631 355.444 235.047 354.448 235.379 353.452C235.711 352.705 235.961 351.875 236.293 351.128L236.376 350.879C236.791 349.884 237.123 348.888 237.539 347.892C237.871 346.979 238.286 346.149 238.619 345.236C239.034 344.241 239.532 343.245 239.948 342.166C240.363 341.336 240.695 340.423 241.111 339.594C241.609 338.515 242.107 337.436 242.606 336.44L242.938 335.776C243.187 335.195 243.52 334.614 243.769 334.034C244.433 332.789 245.098 331.461 245.762 330.216L246.095 329.469C246.261 329.137 246.427 328.723 246.676 328.391C247.673 326.565 248.67 324.739 249.75 322.997C249.999 322.582 250.331 322.084 250.58 321.669L250.996 320.922C251.66 319.76 252.408 318.598 253.155 317.437C253.571 316.856 253.903 316.192 254.318 315.611L254.65 315.113C255.315 314.034 256.063 312.955 256.727 311.96C257.309 311.13 257.807 310.383 258.388 309.553C259.136 308.557 259.884 307.478 260.631 306.483C261.213 305.653 261.794 304.906 262.376 304.076C263.206 302.997 263.954 302.001 264.785 301.006L265.283 300.425C265.698 299.844 266.197 299.346 266.612 298.765C267.526 297.603 268.523 296.524 269.519 295.363L270.101 294.699C270.433 294.367 270.765 293.952 271.098 293.62C272.593 291.96 274.171 290.301 275.749 288.641C276.082 288.309 276.414 287.977 276.829 287.562L277.494 286.898C278.574 285.819 279.653 284.741 280.816 283.662C281.398 283.164 281.896 282.666 282.478 282.168L283.059 281.67C284.056 280.757 285.136 279.845 286.133 278.932C286.963 278.268 287.794 277.521 288.625 276.857C289.705 275.944 290.701 275.114 291.781 274.285C292.612 273.621 293.526 272.957 294.439 272.293C295.519 271.463 296.682 270.633 297.845 269.803L298.26 269.471C299.008 268.974 299.756 268.393 300.503 267.895C301.749 267.065 303.078 266.152 304.407 265.322L305.238 264.824C305.819 264.492 306.318 264.077 306.899 263.746C309.142 262.335 311.302 261.09 313.378 259.928C313.794 259.679 314.209 259.513 314.624 259.264L315.538 258.766C317.116 257.937 318.778 257.024 320.356 256.194C321.021 255.862 321.768 255.53 322.433 255.198L323.346 254.783C324.759 254.119 326.171 253.455 327.666 252.792C328.746 252.294 329.909 251.796 330.989 251.381C332.401 250.8 333.896 250.136 335.391 249.638C336.554 249.14 337.717 248.725 338.963 248.31C340.458 247.729 342.036 247.232 343.615 246.651L344.113 246.485C345.11 246.153 346.107 245.821 347.186 245.489C348.848 244.908 350.592 244.41 352.337 243.912L353.416 243.58C354.164 243.331 354.912 243.165 355.659 242.916C358.068 242.253 360.56 241.672 363.384 241.008L363.883 240.925C364.049 240.842 364.298 240.842 364.464 240.759L365.627 240.51C366.79 240.261 367.87 240.012 369.033 239.846C369.531 239.763 370.113 239.68 370.611 239.597L371.94 239.348C372.273 239.265 372.605 239.265 372.937 239.182L373.435 239.099H373.518C374.183 239.016 374.681 238.933 375.263 238.85L375.761 238.767C376.509 238.684 377.256 238.601 377.921 238.435C378.669 238.352 379.333 238.269 379.998 238.186C380.745 238.103 381.493 238.02 382.24 237.937C382.988 237.854 383.653 237.854 384.234 237.771C385.148 237.688 385.978 237.688 386.892 237.605H387.308C387.806 237.605 388.221 237.522 388.637 237.522C389.883 237.439 391.046 237.439 392.292 237.439H393.953C394.784 237.439 395.614 237.439 396.528 237.439C397.109 237.439 397.608 237.439 398.189 237.439C399.02 237.439 399.934 237.522 400.764 237.522L402.259 237.605C403.505 237.688 404.751 237.771 405.997 237.854H406.413C407.659 237.937 408.988 238.103 410.234 238.269L411.48 238.435C412.394 238.518 413.39 238.684 414.304 238.85L415.55 239.016C416.547 239.182 417.544 239.348 418.54 239.514L419.454 239.68C420.783 239.929 422.112 240.178 423.441 240.51C424.77 240.759 426.016 241.091 427.262 241.423L428.01 241.589C429.173 241.838 430.17 242.17 431.167 242.418L431.997 242.667C433.16 242.999 434.323 243.331 435.486 243.663L435.735 243.746C438.227 244.493 440.802 245.406 443.377 246.319H444.374C445.454 246.734 446.534 247.149 447.614 247.564L448.112 247.729C451.684 249.14 455.339 250.8 458.911 252.543L459.243 252.709C460.323 253.289 461.486 253.787 462.566 254.368C466.054 256.194 469.543 258.103 472.866 260.094L473.032 260.177C477.268 262.75 481.505 265.488 485.658 268.393L485.824 268.476C488.732 270.55 491.639 272.708 494.546 274.948C495.543 275.695 496.374 276.442 497.204 277.106L497.454 277.272C500.029 279.347 502.604 281.504 505.096 283.745L505.428 283.994C506.176 284.658 506.84 285.239 507.505 285.819L507.92 286.234C508.668 286.898 509.332 287.562 510.08 288.226C510.91 288.973 511.658 289.72 512.322 290.384L518.22 296.193C518.719 296.69 519.217 297.271 519.715 297.769L523.619 301.835C532.341 311.213 537.99 318.764 539.901 321.503C540.897 320.175 542.725 317.686 545.3 314.449L545.466 314.2C552.444 305.57 563.99 292.541 579.606 279.596L579.772 279.43C580.603 278.766 581.351 278.102 582.181 277.438L582.514 277.189C584.258 275.778 586.085 274.368 587.913 272.957L588.411 272.542C589.159 271.961 589.823 271.463 590.571 270.965L591.402 270.301C592.066 269.803 592.648 269.388 593.312 268.891L594.226 268.227C594.974 267.729 595.721 267.231 596.469 266.733L597.133 266.318C598.047 265.737 598.961 265.073 599.874 264.492L601.12 263.663C601.702 263.331 602.2 262.999 602.782 262.584L608.763 258.932C609.759 258.352 610.673 257.854 611.67 257.273L612.999 256.526C613.58 256.194 614.079 255.945 614.66 255.613L616.155 254.866C616.737 254.534 617.401 254.202 618.066 253.87L619.312 253.206C620.06 252.792 620.641 252.543 621.306 252.211L622.136 251.796C623.631 251.132 625.044 250.385 626.539 249.804L627.369 249.472C628.117 249.14 628.865 248.808 629.612 248.559L630.692 248.144C631.44 247.812 632.187 247.564 632.935 247.232L633.932 246.817C636.59 245.821 639.331 244.825 642.072 243.912L642.737 243.663C643.567 243.414 644.398 243.165 645.229 242.916L646.225 242.584C647.056 242.335 647.887 242.087 648.717 241.838L649.631 241.589C652.539 240.842 655.446 240.178 658.353 239.597L659.101 239.431C660.014 239.265 660.845 239.099 661.759 238.933L662.839 238.767C663.753 238.601 664.583 238.518 665.497 238.352L666.411 238.186C669.401 237.771 672.474 237.439 675.548 237.19L676.462 237.107C677.375 237.024 678.289 237.024 679.203 236.941L680.366 236.858C681.279 236.858 682.193 236.776 683.19 236.776H684.104C687.177 236.776 690.417 236.858 693.573 237.024L694.653 237.107C695.567 237.19 696.564 237.273 697.477 237.356L698.723 237.522C699.637 237.605 700.634 237.688 701.548 237.854L702.544 238.02C706.864 238.601 710.851 239.265 714.838 240.178L715.669 240.344C718.41 241.008 721.151 241.672 723.726 242.335C724.474 242.501 725.139 242.75 725.803 242.916L726.883 243.248C728.71 243.746 730.455 244.327 732.199 244.825C733.196 245.157 734.193 245.489 735.19 245.821L735.688 245.987C737.266 246.568 738.845 247.066 740.423 247.647C741.586 248.061 742.749 248.476 743.828 248.974C745.324 249.555 746.819 250.219 748.314 250.8C749.477 251.298 750.557 251.713 751.554 252.211C753.049 252.875 754.544 253.621 756.039 254.285L756.953 254.7C757.617 255.032 758.282 255.364 758.947 255.696C760.691 256.609 762.352 257.522 764.097 258.435L764.844 258.849C765.177 259.015 765.592 259.264 765.924 259.43C768.084 260.675 770.327 262.003 772.486 263.331C772.902 263.58 773.317 263.912 773.815 264.16L774.563 264.658C776.058 265.571 777.47 266.567 778.883 267.48C779.464 267.895 780.045 268.31 780.627 268.725L781.208 269.14C782.454 270.052 783.7 270.965 784.946 271.878C785.777 272.459 786.525 273.123 787.355 273.704C788.518 274.617 789.681 275.529 790.844 276.525C791.592 277.106 792.339 277.77 793.087 278.434C794.25 279.43 795.413 280.425 796.493 281.504L797.074 282.002C797.489 282.417 797.988 282.832 798.403 283.247C799.732 284.492 800.978 285.736 802.224 286.981L802.723 287.479C802.972 287.728 803.221 287.977 803.47 288.226C805.131 289.969 806.793 291.711 808.288 293.371L808.869 294.035C810.199 295.529 811.528 297.105 812.857 298.682C813.106 299.014 813.355 299.346 813.687 299.678L814.186 300.259C815.183 301.504 816.179 302.748 817.176 304.076C817.591 304.574 818.007 305.155 818.339 305.653L818.505 305.902C819.419 307.147 820.333 308.391 821.163 309.636C821.579 310.217 821.994 310.881 822.409 311.462C823.323 312.789 824.154 314.034 824.984 315.362L825.317 315.86C825.566 316.275 825.815 316.69 826.064 317.022C826.978 318.515 827.892 320.009 828.805 321.503L829.47 322.582C831.713 326.316 833.789 330.216 835.7 334.117L836.198 335.112C836.946 336.689 837.694 338.266 838.441 339.842L839.106 341.336C839.77 342.747 840.352 344.158 840.933 345.568L841.598 347.228C842.179 348.639 842.761 349.967 843.259 351.377L843.84 352.954C844.422 354.448 844.92 355.859 845.419 357.352L845.834 358.597C847.163 362.331 848.326 366.066 849.406 369.717L849.655 370.547C850.07 372.041 850.486 373.534 850.901 375.028L851.566 377.518C851.732 378.015 851.815 378.513 851.981 379.094L852.978 383.16L852.895 383.077C853.476 385.816 854.058 388.389 854.556 390.961L854.639 391.376C854.971 393.119 855.221 394.778 855.553 396.438C855.636 397.185 855.802 397.849 855.885 398.513L856.134 400.006C856.217 400.504 856.3 400.919 856.3 401.417C856.467 402.828 856.633 404.322 856.799 405.815L856.882 406.562C857.048 408.056 857.214 409.633 857.297 411.126C857.463 412.703 857.546 414.197 857.629 415.69L857.712 416.686C857.796 418.263 857.879 419.84 857.879 421.416V421.997C857.879 423.408 857.962 424.819 857.962 426.312V427.474C857.962 429.051 857.962 430.711 857.879 432.287V433.283C857.796 434.694 857.796 436.022 857.712 437.432L857.629 438.76C857.546 440.42 857.38 442.08 857.297 443.739L857.214 445.15C857.131 446.478 856.965 447.889 856.799 449.216L856.633 450.71C856.466 452.37 856.217 454.112 855.968 455.772L855.719 457.515C855.553 458.842 855.304 460.253 855.054 461.664L854.805 463.241C854.473 464.983 854.224 466.726 853.891 468.469L853.476 470.46C853.227 471.871 852.895 473.282 852.562 474.693L852.23 476.352C851.815 478.178 851.399 480.004 850.901 481.829L850.403 483.821C849.987 485.481 849.572 486.974 849.157 488.468L848.658 490.377C848.16 492.119 847.661 493.945 847.08 495.688C846.831 496.435 846.582 497.181 846.415 498.011C845.917 499.671 845.336 501.331 844.837 502.99L844.09 505.231C843.508 506.891 842.927 508.633 842.345 510.293C842.096 511.04 841.764 511.87 841.515 512.617C840.85 514.525 840.102 516.517 839.355 518.425L838.607 520.334C837.943 521.994 837.278 523.737 836.531 525.396C836.198 526.143 835.866 526.973 835.534 527.72C834.703 529.711 833.789 531.703 832.959 533.778L815.681 666.636L800.314 592.863C799.815 593.527 799.4 594.273 798.901 594.937C797.656 596.846 796.41 598.755 795.08 600.663C794.416 601.659 793.751 602.572 793.087 603.568C791.509 605.808 789.93 608.049 788.352 610.29L787.189 611.949C785.279 614.605 783.285 617.26 781.291 619.999L781.125 620.248C778.883 623.235 776.557 626.306 774.231 629.376L773.4 630.455C772.237 631.949 771.074 633.442 769.828 634.936L768.416 636.679C767.253 638.089 766.09 639.417 764.927 640.828L761.355 645.06V644.977C761.189 645.143 761.023 645.309 760.94 645.475L760.276 646.222C759.445 647.135 758.614 648.048 757.784 649.043C757.036 649.873 756.372 650.703 755.624 651.45C754.71 652.446 753.713 653.525 752.8 654.52L751.554 655.848L729.375 786.134L708.941 696.926C705.203 700.162 701.382 703.398 697.311 706.718L696.647 707.216C692.493 710.618 688.174 714.103 683.855 717.506L625.874 870.944L602.2 821.071L572.13 925.88ZM546.878 806.299L547.127 807.544L572.296 918.495L601.785 816.091L625.708 866.38L682.276 716.593L682.692 716.261C687.011 712.859 691.331 709.373 695.401 705.971L696.065 705.473C700.551 701.739 704.704 698.253 708.774 694.768L709.439 694.187L710.27 695.017L710.353 695.349L729.209 777.089L749.892 655.433L751.471 653.691C752.384 652.695 753.381 651.616 754.295 650.62C755.042 649.79 755.79 649.043 756.455 648.214C757.285 647.301 758.116 646.388 758.947 645.475L759.611 644.728C759.86 644.479 760.109 644.147 760.359 643.898L760.525 643.732C761.272 642.82 762.103 641.907 762.851 641.077L763.598 640.164C764.761 638.753 765.924 637.426 767.087 636.015L768.499 634.272C769.662 632.778 770.825 631.368 771.988 629.874L772.819 628.795C775.145 625.725 777.47 622.737 779.713 619.75L780.627 620.082L779.879 619.501C781.873 616.845 783.867 614.107 785.777 611.451L786.94 609.792C788.518 607.551 790.096 605.31 791.675 603.07C792.339 602.074 793.004 601.161 793.668 600.165C794.997 598.257 796.243 596.348 797.489 594.522C798.32 593.278 799.068 592.116 799.898 590.871L801.31 588.797L801.809 590.871L815.349 656.014L831.131 534.276L831.048 534.11L831.214 533.695C832.128 531.62 833.042 529.628 833.872 527.554C834.205 526.807 834.537 525.977 834.869 525.23C835.534 523.571 836.281 521.828 836.946 520.168L837.694 518.26C838.441 516.351 839.189 514.359 839.853 512.451C840.102 511.704 840.435 510.874 840.684 510.127C841.265 508.467 841.847 506.725 842.428 505.065L843.176 502.907C843.757 501.248 844.256 499.588 844.754 497.928C845.003 497.181 845.253 496.435 845.419 495.688C845.917 493.862 846.499 492.119 846.997 490.377L847.495 488.468C847.911 486.974 848.326 485.481 848.658 483.987L849.157 481.829C849.572 480.004 850.07 478.178 850.403 476.435L850.735 474.776C851.067 473.365 851.316 471.954 851.649 470.543L852.064 468.635C852.396 466.892 852.729 465.149 852.978 463.407L853.227 461.83C853.476 460.419 853.642 459.091 853.891 457.764L854.141 456.104C854.39 454.361 854.556 452.702 854.805 451.042L854.971 449.548C855.137 448.22 855.221 446.81 855.387 445.482L855.47 444.071C855.636 442.412 855.719 440.752 855.802 439.175L855.885 437.847C855.968 436.437 856.051 435.109 856.051 433.698V432.702C856.134 431.126 856.134 429.466 856.134 427.889V426.727C856.134 425.317 856.134 423.906 856.051 422.495V421.914C856.051 420.338 855.968 418.761 855.885 417.267L855.802 416.354C855.719 414.861 855.636 413.367 855.47 411.873C855.304 410.296 855.221 408.803 855.054 407.309L854.971 406.562C854.805 405.068 854.639 403.658 854.473 402.164C854.39 401.749 854.307 401.251 854.307 400.836L854.058 399.342C853.975 398.679 853.891 398.015 853.725 397.268C853.476 395.608 853.144 393.948 852.812 392.206L852.729 391.791C851.981 387.974 851.15 383.99 850.153 379.924L849.157 376.024C848.741 374.53 848.326 373.036 847.911 371.626L847.661 370.796C846.582 367.144 845.419 363.41 844.09 359.759L843.674 358.514C843.176 357.103 842.594 355.61 842.096 354.199L841.515 352.622C841.016 351.294 840.435 349.884 839.853 348.556L839.189 346.896C838.607 345.485 838.026 344.075 837.361 342.747L836.697 341.253C835.949 339.677 835.201 338.1 834.454 336.606L833.956 335.61C832.045 331.71 829.968 327.893 827.726 324.158L827.061 323.08C826.147 321.586 825.234 320.092 824.32 318.681C824.071 318.266 823.821 317.935 823.572 317.52L823.24 317.022C822.409 315.694 821.579 314.449 820.665 313.121C820.25 312.541 819.834 311.877 819.419 311.296C818.588 310.051 817.674 308.806 816.761 307.644L816.595 307.395C816.179 306.898 815.847 306.317 815.432 305.819C814.435 304.574 813.438 303.329 812.441 302.084L811.943 301.504C811.694 301.172 811.445 300.84 811.195 300.508C809.949 298.931 808.62 297.437 807.291 295.944L806.71 295.28C805.215 293.62 803.553 291.877 801.892 290.135C801.643 289.886 801.477 289.637 801.227 289.471L800.646 288.973C799.4 287.728 798.154 286.483 796.908 285.322C796.493 284.907 796.077 284.492 795.579 284.16L794.997 283.662C793.917 282.666 792.755 281.67 791.592 280.674C790.844 280.094 790.18 279.43 789.432 278.849C788.269 277.936 787.189 277.023 786.026 276.027C785.279 275.446 784.448 274.782 783.7 274.202C782.537 273.289 781.291 272.376 780.045 271.546L779.464 271.131C778.883 270.716 778.301 270.301 777.72 269.886C776.307 268.891 774.895 267.978 773.483 267.065L772.653 266.567C772.237 266.318 771.822 265.986 771.407 265.737C769.247 264.409 767.004 263.082 764.927 261.837C764.595 261.671 764.263 261.422 763.847 261.256L763.017 260.841C761.355 259.928 759.694 259.015 757.95 258.186C757.285 257.854 756.621 257.522 755.956 257.273L755.042 256.858C753.547 256.194 752.135 255.447 750.64 254.783C749.643 254.285 748.563 253.87 747.483 253.455C745.905 252.792 744.41 252.211 742.915 251.63C741.752 251.215 740.672 250.717 739.509 250.302C737.931 249.721 736.436 249.223 734.774 248.642L734.276 248.476C733.279 248.144 732.365 247.812 731.369 247.481C729.624 246.9 727.88 246.402 726.052 245.904L724.972 245.572C724.308 245.406 723.643 245.157 722.896 244.991C720.321 244.327 717.663 243.663 714.921 242.999L714.091 242.833C710.187 241.921 706.199 241.257 701.963 240.676L700.966 240.51C700.053 240.427 699.056 240.261 698.142 240.178L696.896 240.095C695.982 240.012 695.069 239.929 694.155 239.846L693.075 239.763C690.001 239.597 686.845 239.514 683.771 239.514H682.858C681.944 239.514 681.03 239.514 680.117 239.597L678.954 239.68C678.04 239.68 677.126 239.763 676.212 239.846L675.299 239.929C672.308 240.178 669.235 240.427 666.328 240.842L665.414 240.925C664.5 241.091 663.669 241.174 662.756 241.34L661.759 241.506C660.845 241.672 660.014 241.838 659.101 242.004L658.353 242.17C655.446 242.75 652.622 243.414 649.714 244.161L648.801 244.41C647.97 244.659 647.139 244.908 646.309 245.074L645.312 245.406C644.481 245.655 643.65 245.904 642.82 246.153L642.155 246.402C639.497 247.232 636.839 248.227 634.181 249.223L633.184 249.638C632.436 249.97 631.689 250.219 630.941 250.551L629.861 250.966C629.114 251.298 628.366 251.547 627.702 251.879L626.871 252.211C625.376 252.875 623.964 253.538 622.468 254.202L621.638 254.617C621.056 254.949 620.392 255.198 619.81 255.53L618.398 256.194C617.817 256.526 617.152 256.858 616.571 257.19L615.242 257.854C614.577 258.269 613.996 258.517 613.414 258.849L612.085 259.596C611.088 260.094 610.175 260.675 609.261 261.256L603.28 264.907C602.699 265.239 602.2 265.571 601.619 265.986L600.373 266.816C599.459 267.397 598.545 267.978 597.632 268.642L596.967 269.057C596.22 269.554 595.472 270.052 594.807 270.55L593.894 271.214C593.229 271.629 592.648 272.127 591.983 272.542L591.152 273.206C590.405 273.704 589.74 274.285 588.993 274.782L588.494 275.197C586.667 276.608 584.839 278.019 583.095 279.43L582.763 279.679C581.932 280.342 581.185 281.006 580.354 281.67L579.523 281.089L580.105 281.836C564.737 294.616 553.357 307.395 546.463 315.943L546.297 316.192C542.226 321.254 539.984 324.49 539.984 324.49L539.236 325.652L538.488 324.49C538.405 324.407 532.425 315.611 521.543 303.91L517.722 299.844C517.223 299.263 516.725 298.765 516.143 298.267L510.329 292.541C509.664 291.877 508.917 291.213 508.169 290.55C507.338 289.803 506.674 289.139 505.926 288.475L505.511 288.06C504.846 287.479 504.182 286.898 503.517 286.317L503.102 285.985C500.61 283.828 498.035 281.67 495.543 279.596L495.294 279.43C494.463 278.766 493.633 278.102 492.719 277.438C489.811 275.114 486.904 272.957 483.997 270.882C479.76 267.895 475.524 265.156 471.371 262.584L471.703 261.671L471.205 262.501C467.882 260.509 464.476 258.6 461.07 256.858C459.825 256.194 458.745 255.696 457.665 255.115L457.333 254.949C453.761 253.206 450.189 251.63 446.617 250.219L446.285 250.136C445.039 249.638 443.959 249.223 442.962 248.808L442.464 248.642C439.972 247.729 437.397 246.817 434.905 246.07L434.988 245.074L434.738 245.987C433.576 245.655 432.413 245.323 431.333 244.991L430.502 244.742C429.505 244.493 428.508 244.161 427.429 243.912L426.598 243.663C425.352 243.331 424.106 243.082 422.777 242.75C421.448 242.501 420.202 242.17 418.873 241.921L417.959 241.755C416.962 241.589 415.965 241.423 414.969 241.257L413.723 241.091C412.809 240.925 411.895 240.842 410.898 240.676L409.735 240.51C408.489 240.344 407.243 240.261 405.997 240.095H405.582C404.336 240.012 403.09 239.929 401.844 239.846L400.349 239.763C399.518 239.763 398.688 239.68 397.774 239.68C397.192 239.68 396.694 239.68 396.113 239.68C395.282 239.68 394.451 239.68 393.621 239.68H392.042C390.879 239.68 389.633 239.763 388.47 239.763C388.055 239.763 387.557 239.846 387.141 239.846H386.726C385.895 239.929 384.982 239.929 384.151 240.012C383.57 240.095 382.988 240.095 382.324 240.178C381.41 240.261 380.745 240.344 379.998 240.427C379.333 240.51 378.586 240.593 377.921 240.676C377.173 240.759 376.509 240.842 375.761 240.925L375.263 241.008C374.764 241.091 374.183 241.174 373.685 241.257L372.522 241.423C372.356 241.423 372.189 241.506 372.023 241.506L370.694 241.755C370.196 241.838 369.697 241.921 369.116 242.004C367.953 242.253 366.873 242.418 365.71 242.667L364.63 242.916C364.464 242.916 364.298 242.999 364.049 243.082L363.467 243.248C360.726 243.912 358.234 244.493 355.825 245.157C355.078 245.323 354.33 245.572 353.583 245.821L352.503 246.153C350.758 246.651 349.014 247.149 347.353 247.729C346.356 248.061 345.359 248.393 344.362 248.725L343.864 248.891C342.286 249.389 340.79 249.97 339.295 250.468C338.132 250.883 336.969 251.381 335.806 251.796C334.311 252.377 332.899 252.958 331.487 253.538C330.324 254.036 329.244 254.451 328.164 254.949C326.752 255.613 325.34 256.277 323.928 256.941L323.014 257.356C322.35 257.688 321.602 258.02 320.937 258.352C319.276 259.181 317.698 260.011 316.12 260.924L315.206 261.422C314.791 261.671 314.375 261.837 313.96 262.086C311.883 263.248 309.807 264.492 307.564 265.903C306.982 266.235 306.484 266.65 305.902 266.982L305.072 267.563C303.743 268.393 302.497 269.223 301.251 270.052C300.503 270.55 299.756 271.131 299.008 271.629L298.593 271.961C297.43 272.791 296.35 273.621 295.187 274.451C294.273 275.114 293.443 275.778 292.612 276.442C291.532 277.272 290.452 278.102 289.455 279.015C288.625 279.679 287.794 280.342 287.046 281.089C285.967 282.002 284.97 282.915 283.973 283.828L283.391 284.326C282.81 284.824 282.312 285.322 281.813 285.819C280.65 286.898 279.57 287.977 278.491 289.056L277.826 289.72C277.494 290.052 277.161 290.384 276.829 290.716C275.251 292.292 273.756 293.952 272.261 295.612C271.928 295.944 271.596 296.359 271.347 296.69L270.765 297.437C269.769 298.516 268.772 299.678 267.858 300.84C267.443 301.421 266.944 301.918 266.529 302.499L266.031 303.08C265.2 304.076 264.369 305.155 263.622 306.151C263.04 306.898 262.459 307.727 261.877 308.474C261.13 309.47 260.382 310.466 259.634 311.545C259.053 312.375 258.555 313.121 257.973 313.951C257.226 315.03 256.561 316.026 255.896 317.105L255.564 317.603C255.149 318.183 254.817 318.847 254.401 319.428C253.654 320.59 252.989 321.752 252.325 322.914L251.909 323.66C251.66 324.075 251.328 324.573 251.079 324.988C249.999 326.814 249.002 328.557 248.005 330.382C247.839 330.714 247.673 331.046 247.424 331.378L247.008 332.125C246.344 333.37 245.679 334.614 245.015 335.942C244.683 336.523 244.433 337.104 244.184 337.685L243.852 338.349C243.353 339.428 242.855 340.423 242.357 341.502C241.941 342.332 241.609 343.245 241.194 344.075C240.778 345.071 240.28 346.066 239.865 347.062C239.532 347.892 239.117 348.805 238.785 349.635C238.369 350.63 237.954 351.626 237.622 352.622L237.539 352.871C237.207 353.618 236.957 354.365 236.625 355.195C236.21 356.19 235.877 357.186 235.545 358.182L235.296 358.846C235.047 359.427 234.881 360.091 234.631 360.672C234.216 361.75 233.884 362.829 233.552 363.908L233.469 364.157C233.053 365.485 232.638 366.73 232.223 368.057L232.056 368.472C231.807 369.385 231.475 370.215 231.226 371.128C231.06 371.792 230.894 372.372 230.644 373.036L230.312 374.115C230.146 374.862 229.897 375.609 229.731 376.356C229.481 377.269 229.232 378.181 229.066 379.094L228.402 381.916C228.069 383.326 227.737 384.654 227.488 385.982L227.072 387.725C226.989 388.306 226.823 388.803 226.74 389.384L226.491 390.878C226.325 391.708 226.159 392.455 225.993 393.285L225.91 393.948C225.577 395.94 225.245 397.766 224.996 399.674V399.84C224.83 400.919 224.664 401.998 224.497 403.077C224.248 404.819 224.082 406.645 223.833 408.471L223.75 409.633C223.584 411.126 223.501 412.62 223.334 414.197L223.251 415.524C223.168 417.184 223.085 418.761 223.002 420.504V421.416C222.587 432.37 223.168 443.905 224.664 455.523L225.91 463.905C226.076 464.734 226.242 465.564 226.325 466.394L226.823 468.884C227.156 470.543 227.488 472.203 227.82 473.863L278.241 740.078L298.759 619.75L300.088 621.492C302.164 624.231 304.158 626.969 306.318 629.708L306.65 630.04C307.979 631.7 309.225 633.359 310.554 635.019L311.8 636.513C313.96 639.168 316.12 641.741 318.196 644.147L319.359 645.475C320.937 647.301 322.516 649.043 324.094 650.786L325.589 652.446C327.5 654.52 329.493 656.595 331.404 658.753L333.065 660.495C335.059 662.57 337.135 664.727 339.212 666.802L340.541 668.13C342.784 670.37 345.027 672.611 347.353 674.769L347.602 675.101L347.685 675.267L390.132 867.874L431.333 768.956L453.678 817.668L473.115 770.284L474.029 770.865C476.853 772.69 479.594 774.433 482.252 776.093L494.712 783.893C512.738 794.93 526.859 802.897 533.671 806.714C536.91 808.54 539.07 809.619 539.901 810.117C540.731 809.702 542.808 808.54 545.798 806.88L546.878 806.299Z" fill="#FEFEFE"/>
<path d="M394.867 223.083H394.368H394.119H393.704C393.288 223.083 392.873 223.083 392.541 223.083C391.212 223.083 389.883 223.166 388.554 223.166C388.055 223.166 387.557 223.249 386.975 223.249H386.56C385.563 223.332 384.649 223.332 383.653 223.415C382.988 223.498 382.324 223.498 381.659 223.581H381.493C380.662 223.664 379.832 223.747 379.001 223.83C378.253 223.913 377.423 223.996 376.675 224.079C375.844 224.162 375.097 224.328 374.266 224.411L373.768 224.577C373.186 224.66 372.605 224.743 372.023 224.826C371.94 224.826 371.857 224.826 371.774 224.909C371.691 224.909 371.608 224.909 371.442 224.992C371.359 224.992 371.276 224.992 371.193 224.992C370.777 225.075 370.279 225.158 369.864 225.241L369.365 225.324L368.784 225.407C368.119 225.49 367.538 225.656 366.873 225.738C365.627 225.987 364.381 226.236 363.135 226.485L362.886 226.568C362.554 226.651 362.221 226.734 361.889 226.734C361.557 226.817 361.142 226.9 360.809 226.983H360.643C357.736 227.647 355.078 228.311 352.503 228.975C351.672 229.224 350.841 229.473 349.928 229.722L348.931 230.054C347.186 230.552 345.276 231.132 343.365 231.713C342.202 232.045 341.123 232.46 339.96 232.875L339.544 233.041C337.634 233.705 336.056 234.286 334.56 234.784C333.314 235.282 331.985 235.78 330.739 236.195C329.244 236.775 327.666 237.439 326.088 238.103H326.005C324.842 238.601 323.596 239.099 322.433 239.597C320.771 240.344 319.193 241.091 317.781 241.755L316.95 242.169C316.12 242.584 315.289 242.916 314.541 243.331C312.631 244.244 310.803 245.24 309.308 246.07C309.059 246.236 308.81 246.319 308.644 246.402C308.062 246.651 307.564 246.983 306.982 247.315C304.656 248.642 302.414 249.97 300.005 251.464C299.34 251.879 298.676 252.294 298.094 252.709L297.347 253.206C296.101 254.036 294.605 254.949 293.193 255.945C292.363 256.526 291.532 257.107 290.784 257.688L290.286 258.02C289.04 258.932 287.794 259.845 286.631 260.758C285.634 261.505 284.721 262.252 283.807 262.916C282.644 263.828 281.481 264.741 280.318 265.737C279.404 266.484 278.491 267.231 277.66 267.978C276.497 268.973 275.417 269.969 274.254 270.965L273.673 271.463C273.008 272.044 272.427 272.625 271.845 273.206C270.599 274.45 269.353 275.612 268.19 276.774L267.443 277.521C267.027 277.936 266.612 278.351 266.197 278.766C264.535 280.508 262.791 282.334 261.13 284.16C260.714 284.575 260.299 285.073 259.967 285.487L259.468 286.068C258.388 287.313 257.392 288.475 256.312 289.72C255.813 290.384 255.315 290.964 254.734 291.628L254.318 292.126C253.405 293.205 252.574 294.367 251.66 295.446C250.996 296.275 250.331 297.188 249.75 298.018C248.919 299.097 248.171 300.259 247.341 301.338C246.759 302.167 246.095 303.08 245.513 303.91C244.766 305.072 244.018 306.151 243.27 307.312L242.938 307.81C242.523 308.474 242.024 309.138 241.609 309.802C240.861 311.047 240.031 312.291 239.283 313.536L238.868 314.2C238.536 314.698 238.203 315.196 237.954 315.777C236.791 317.768 235.711 319.677 234.631 321.586C234.382 322.001 234.133 322.416 233.967 322.914L233.635 323.494C232.887 324.822 232.223 326.233 231.475 327.561C231.143 328.225 230.81 328.888 230.478 329.552L230.146 330.216C229.564 331.378 229.066 332.457 228.485 333.619C228.069 334.531 227.654 335.444 227.239 336.357C226.74 337.436 226.242 338.515 225.826 339.593C225.411 340.506 224.996 341.419 224.664 342.415C224.248 343.494 223.833 344.573 223.418 345.568L223.334 345.9C223.002 346.73 222.67 347.56 222.338 348.39C221.922 349.469 221.507 350.547 221.175 351.626L220.926 352.373C220.676 353.037 220.427 353.701 220.261 354.365C219.846 355.527 219.513 356.688 219.098 357.85L219.015 358.099C218.517 359.51 218.101 360.921 217.686 362.331L217.52 362.829C217.271 363.742 216.938 364.655 216.689 365.568C216.44 366.315 216.274 367.061 216.025 367.808L215.858 368.389L215.775 368.804C215.526 369.551 215.36 370.381 215.111 371.128C214.862 372.123 214.612 373.036 214.363 374.032L214.28 374.447C214.197 374.779 214.114 375.111 214.031 375.443C213.948 375.609 213.948 375.775 213.865 376.024C213.865 376.107 213.782 376.19 213.782 376.356C213.699 376.605 213.616 376.937 213.533 377.186C213.2 378.596 212.868 379.924 212.619 381.335L212.453 381.916C212.37 382.331 212.287 382.828 212.204 383.243C212.037 383.907 211.954 384.488 211.788 385.152V385.816L211.705 386.397C211.539 387.31 211.373 388.222 211.207 389.135C211.207 389.301 211.124 389.55 211.124 389.716V389.882C210.791 391.874 210.376 393.948 210.127 396.023V396.272C209.961 397.434 209.795 398.513 209.629 399.674C209.379 401.5 209.13 403.409 208.964 405.566C208.964 405.898 208.881 406.147 208.881 406.479V406.894C208.715 408.471 208.549 410.13 208.466 411.873L208.383 413.118V413.284C208.299 415.027 208.216 416.769 208.133 418.595V418.927V419.591C207.552 435.441 208.881 452.121 211.954 469.05L212.037 469.63C212.121 469.962 212.204 470.377 212.204 470.709C212.536 472.369 212.868 474.112 213.2 475.854L264.535 747.048C265.864 754.102 272.011 759.164 279.155 759.164C279.238 759.164 279.238 759.164 279.321 759.164C286.548 759.081 292.695 753.853 293.858 746.799L309.308 656.097C310.554 657.508 311.883 659.001 313.129 660.412L313.711 660.993C314.043 661.325 314.375 661.74 314.708 662.072C316.535 664.063 318.446 666.138 320.771 668.545L320.854 668.711C321.353 669.292 321.934 669.872 322.433 670.37C324.509 672.528 326.669 674.768 328.829 676.843L329.743 677.756L330.158 678.171C331.487 679.499 332.733 680.66 333.896 681.822L375.512 874.098C376.924 880.487 382.241 885.218 388.72 885.798C389.135 885.798 389.633 885.881 390.049 885.881C396.03 885.881 401.512 882.313 403.838 876.67L432.246 808.457L440.304 826.133C442.713 831.444 448.029 834.846 453.844 834.846C453.927 834.846 454.01 834.846 454.176 834.846C460.157 834.763 465.39 831.112 467.716 825.635L480.84 793.768C481.339 794.017 481.754 794.349 482.252 794.598L483.249 795.179C484.329 795.843 485.409 796.507 486.489 797.171L486.655 797.254L486.738 797.337C505.013 808.54 519.383 816.672 526.278 820.49C526.361 820.49 526.444 820.573 526.444 820.573C530.68 822.896 533.089 824.224 533.172 824.224C533.837 824.556 534.501 824.888 535.166 825.137L557.926 925.382C559.421 932.021 565.236 936.751 572.047 937C572.213 937 572.296 937 572.463 937C579.108 937 584.923 932.602 586.833 926.212L605.772 860.571L612.667 875.01C615.159 880.238 620.392 883.558 626.123 883.558C626.29 883.558 626.539 883.558 626.705 883.558C632.686 883.309 637.919 879.492 640.079 873.932L695.899 726.136C697.561 724.808 699.139 723.563 700.717 722.236L715.171 784.889C716.749 791.694 722.813 796.424 729.707 796.424C729.873 796.424 730.04 796.424 730.123 796.424C737.266 796.258 743.247 791.03 744.41 784.059L765.094 662.487C765.509 661.989 766.007 661.491 766.423 661.076C767.17 660.246 767.918 659.416 768.665 658.586C769.496 657.591 770.41 656.678 771.24 655.682L771.822 655.018C772.154 654.603 772.486 654.271 772.819 653.856C772.985 653.69 773.068 653.524 773.234 653.358C773.816 652.695 774.314 652.114 774.895 651.45C774.978 651.284 775.145 651.201 775.228 651.035C775.394 650.786 775.56 650.62 775.726 650.371L775.975 650.039C777.221 648.628 778.384 647.135 779.547 645.724L779.63 645.641C780.129 645.06 780.627 644.479 781.042 643.898C782.288 642.322 783.534 640.828 784.697 639.251L784.946 638.919C785.196 638.67 785.362 638.421 785.528 638.172C787.854 635.185 790.263 632.031 792.589 628.878L792.755 628.629C793.004 628.297 793.253 627.965 793.419 627.716L801.061 664.312C802.473 671.283 808.62 676.179 815.681 676.179C815.847 676.179 816.096 676.179 816.262 676.179C823.572 675.93 829.553 670.453 830.467 663.234L846.748 537.844C847.329 536.516 847.994 535.022 848.658 533.446C848.991 532.616 849.323 531.786 849.655 531.039C850.403 529.296 851.067 527.471 851.815 525.728L852.064 525.147C852.23 524.732 852.396 524.234 852.562 523.819C853.31 521.911 854.058 520.002 854.888 517.762C855.221 516.932 855.47 516.102 855.802 515.355C856.467 513.612 857.048 511.787 857.63 510.044C857.879 509.297 858.128 508.467 858.377 507.72C858.959 505.978 859.54 504.235 860.038 502.492C860.288 501.663 860.537 500.916 860.786 500.086C861.367 498.177 861.866 496.351 862.447 494.443C862.614 493.945 862.697 493.447 862.863 492.949L863.029 492.451C863.444 490.875 863.859 489.298 864.275 487.721C864.441 486.974 864.69 486.227 864.856 485.48C865.355 483.406 865.853 481.497 866.185 479.755C866.268 479.34 866.352 478.925 866.435 478.593L866.518 478.012C866.85 476.518 867.182 475.024 867.431 473.531L867.514 473.282C867.598 472.701 867.764 472.037 867.847 471.456C868.179 469.547 868.511 467.722 868.844 465.896C868.927 465.481 869.01 465.066 869.01 464.734L869.093 464.236C869.342 462.743 869.591 461.332 869.757 459.838L869.84 459.34C869.923 458.925 870.006 458.427 870.006 458.013C870.256 456.187 870.505 454.361 870.671 452.619C870.754 452.204 870.754 451.872 870.754 451.457L870.837 450.959C871.003 449.465 871.169 448.054 871.252 446.561V446.146C871.252 445.814 871.335 445.482 871.335 445.15C871.502 443.407 871.585 441.582 871.668 439.839L871.751 438.76V438.428C871.834 436.934 871.917 435.441 871.917 433.947V433.615V432.868C872 431.126 872 429.383 872 427.723V426.727V426.478C872 424.902 872 423.408 871.917 421.914V421.748V421.25C871.834 419.508 871.834 417.848 871.751 416.188L871.668 415.192C871.585 413.533 871.502 411.873 871.335 410.296V410.213C871.169 408.637 871.086 407.06 870.837 405.234L870.754 404.404C870.588 402.828 870.422 401.251 870.173 399.674C870.089 399.093 870.006 398.596 869.923 398.015L869.84 397.268L869.757 396.604C869.674 395.857 869.508 395.11 869.425 394.363V394.28C869.176 392.621 868.843 390.795 868.511 388.969L868.428 388.471C867.681 384.571 866.85 380.588 865.853 376.522C865.77 376.273 865.77 376.024 865.687 375.775C865.521 375.194 865.355 374.613 865.272 374.032L865.105 373.285L865.022 372.787C864.939 372.372 864.773 371.957 864.69 371.46C864.275 369.883 863.859 368.306 863.361 366.729L863.278 366.48L863.112 365.817C861.949 361.916 860.703 357.933 859.291 353.95C859.208 353.618 859.125 353.369 858.959 353.12L858.792 352.705C858.211 351.128 857.63 349.635 857.048 348.058C856.882 347.643 856.716 347.228 856.55 346.73L856.384 346.398C855.802 344.904 855.221 343.494 854.639 342C854.39 341.419 854.141 340.838 853.892 340.257C853.227 338.764 852.562 337.27 851.898 335.776L851.732 335.361C851.566 334.946 851.4 334.614 851.233 334.199C850.486 332.623 849.738 330.963 848.825 329.137L848.658 328.805C848.575 328.556 848.409 328.308 848.326 328.059C846.249 323.826 844.007 319.677 841.598 315.694C841.432 315.445 841.265 315.113 841.099 314.864L840.85 314.532C839.853 312.789 838.857 311.213 837.86 309.719C837.611 309.304 837.278 308.806 837.029 308.391L836.697 307.976C835.7 306.483 834.786 305.155 833.873 303.744C833.457 303.08 832.959 302.416 832.543 301.752C831.63 300.425 830.716 299.097 829.636 297.769L829.47 297.52C829.055 296.939 828.639 296.358 828.141 295.778C827.227 294.533 826.147 293.205 824.901 291.628L824.486 291.13C824.154 290.715 823.822 290.301 823.489 289.886C822.16 288.226 820.665 286.566 819.17 284.907L819.087 284.824C818.921 284.658 818.754 284.409 818.588 284.243C816.927 282.417 815.183 280.508 813.355 278.683C813.023 278.351 812.691 278.019 812.441 277.77L812.026 277.355C810.448 275.778 809.119 274.533 807.873 273.289C807.374 272.791 806.876 272.376 806.294 271.878L805.796 271.38C804.384 270.135 803.221 269.056 802.058 268.061C801.31 267.397 800.48 266.733 799.649 266.069C798.403 265.073 797.157 263.994 795.911 262.999C795.081 262.335 794.167 261.671 793.336 261.007C792.173 260.094 790.927 259.181 789.349 258.02L788.767 257.605C788.103 257.107 787.438 256.609 786.774 256.194C785.196 255.115 783.617 254.036 782.122 253.123L781.458 252.709C780.959 252.377 780.378 252.045 779.879 251.713C777.47 250.219 775.062 248.808 772.736 247.48C772.237 247.232 771.822 246.983 771.323 246.734C771.157 246.651 770.908 246.485 770.742 246.402C769.164 245.572 767.253 244.493 765.177 243.497C764.429 243.082 763.681 242.75 762.934 242.418L762.103 242.003C760.691 241.34 759.03 240.51 757.285 239.763C756.205 239.265 755.042 238.767 753.88 238.352L753.714 238.269C752.052 237.522 750.474 236.941 748.896 236.278C747.65 235.78 746.487 235.365 745.241 234.867C743.745 234.286 742.084 233.705 740.174 233.041L739.675 232.875C738.595 232.543 737.516 232.128 736.436 231.796C734.442 231.132 732.448 230.552 730.704 230.054L729.79 229.722C728.96 229.473 728.212 229.224 727.381 229.058C724.64 228.311 721.816 227.647 718.909 226.983C718.576 226.9 718.244 226.817 717.995 226.734C713.592 225.738 709.19 224.992 704.455 224.328L704.123 224.245C703.874 224.245 703.624 224.162 703.292 224.162C702.212 223.996 701.216 223.913 700.136 223.83C699.637 223.747 699.222 223.747 698.724 223.664C697.644 223.581 696.647 223.498 695.65 223.415C695.318 223.415 695.069 223.415 694.736 223.332H694.404C691.331 223.166 688.174 223 685.101 223H684.021H683.688H682.941C681.944 223 680.864 223.083 679.867 223.083C679.452 223.083 679.037 223.083 678.621 223.166C677.625 223.249 676.545 223.249 675.548 223.332L674.8 223.415H674.551C671.228 223.664 667.823 223.996 664.5 224.494H664.251L663.503 224.577C662.507 224.743 661.51 224.909 660.596 225.075C660.181 225.158 659.848 225.241 659.433 225.241C658.436 225.407 657.44 225.573 656.526 225.738L655.944 225.821L655.695 225.904C652.539 226.568 649.299 227.315 646.142 228.145L645.893 228.228L645.146 228.394C644.232 228.643 643.318 228.892 642.404 229.141L641.242 229.639C640.328 229.888 639.414 230.22 638.5 230.469L637.919 230.635L637.753 230.718C634.845 231.63 631.855 232.709 628.948 233.871L628.699 233.954L627.868 234.286C627.037 234.618 626.207 234.95 625.459 235.282L624.296 235.78C623.465 236.112 622.635 236.444 621.804 236.858L621.223 237.107L620.973 237.19C619.395 237.937 617.734 238.684 616.155 239.431L615.906 239.514L615.242 239.846C614.494 240.178 613.83 240.51 613.082 240.925L612.999 241.008C612.584 241.174 612.168 241.423 611.753 241.589C611.088 241.921 610.424 242.252 609.759 242.667C609.261 242.916 608.846 243.165 608.347 243.414L608.181 243.497C607.6 243.829 607.018 244.161 606.437 244.41C606.104 244.576 605.689 244.825 605.357 244.991L605.025 245.157C603.945 245.738 602.948 246.319 601.951 246.9L601.702 247.066C601.204 247.315 600.788 247.646 600.29 247.895C599.791 248.227 599.293 248.476 598.795 248.808L598.628 248.891C598.047 249.223 597.549 249.555 596.967 249.887C596.469 250.219 595.97 250.551 595.472 250.883C594.89 251.215 594.309 251.63 593.728 252.045L593.395 252.211C593.063 252.46 592.731 252.626 592.398 252.874C591.402 253.538 590.405 254.202 589.491 254.783L588.993 255.115L588.744 255.281C587.996 255.779 587.165 256.36 586.418 256.941L585.587 257.522L585.421 257.688C584.756 258.185 584.092 258.683 583.344 259.181L582.431 259.845C581.683 260.426 580.852 261.007 580.105 261.588L579.939 261.754L579.606 262.003C577.696 263.414 575.785 264.99 573.875 266.484L573.625 266.65L573.542 266.733C572.712 267.397 571.798 268.144 570.967 268.808L570.801 268.973C557.76 279.844 547.376 290.715 539.984 299.263C538.156 297.188 536.163 294.865 533.92 292.541L533.837 292.458L533.587 292.126C533.172 291.711 532.84 291.296 532.425 290.881L532.009 290.384L531.843 290.218C531.428 289.803 531.012 289.388 530.68 288.973L530.099 288.392L529.849 288.143C529.351 287.562 528.77 287.064 528.271 286.483C527.856 286.068 527.524 285.653 527.108 285.238L526.444 284.575L526.278 284.409C525.862 283.994 525.447 283.579 525.032 283.164L524.201 282.417C523.703 281.919 523.121 281.421 522.623 280.923L522.457 280.757L522.124 280.425C521.377 279.679 520.629 279.015 519.798 278.268C519.798 278.268 519.715 278.185 519.632 278.185C518.885 277.521 518.137 276.857 517.39 276.11L517.057 275.778L516.974 275.695C516.31 275.114 515.562 274.45 514.898 273.87L514.731 273.704L514.482 273.455C511.824 271.131 509.166 268.808 506.425 266.65L506.259 266.567L506.176 266.484C505.262 265.737 504.348 264.99 503.434 264.326L503.351 264.243C500.278 261.837 497.204 259.513 494.131 257.356L494.048 257.273C489.562 254.119 484.994 251.132 480.508 248.393L480.342 248.31C476.77 246.153 473.032 244.078 469.377 242.169C469.377 242.169 469.294 242.086 469.211 242.086C468.048 241.506 466.802 240.842 465.639 240.261L465.307 240.095C461.403 238.186 457.499 236.444 453.595 234.867L453.262 234.701L453.096 234.618C451.933 234.12 450.77 233.705 449.607 233.29L449.441 233.207L449.026 233.041C446.285 232.045 443.46 231.05 440.719 230.22L440.387 230.137C439.141 229.722 437.895 229.39 436.649 229.058L435.901 228.892L435.735 228.809C434.572 228.477 433.492 228.228 432.33 227.896L432.08 227.813L431.084 227.564C429.671 227.232 428.342 226.9 426.93 226.568H426.847C425.435 226.236 424.023 225.987 422.445 225.656L421.78 225.573L421.531 225.49C420.451 225.324 419.288 225.075 418.208 224.909C417.71 224.826 417.295 224.743 416.796 224.66C415.799 224.494 414.719 224.328 413.64 224.245L413.307 224.162C412.975 224.079 412.643 224.079 412.311 223.996C410.898 223.83 409.486 223.664 408.074 223.581H407.742H407.576C406.164 223.498 404.835 223.332 403.422 223.249C403.007 223.249 402.592 223.166 402.176 223.166H401.761C400.764 223.083 399.851 223.083 398.854 223.083C398.272 223.083 397.608 223.083 397.026 223C396.362 223.083 395.614 223.083 394.867 223.083Z" fill="#FEFEFE"/>
<path d="M394.867 232.377C387.557 232.377 380.247 232.958 373.02 234.12H372.937C296.018 246.485 240.529 303.412 223.002 378.098C223.002 378.181 222.836 378.679 222.836 378.762C222.753 378.928 222.753 379.094 222.67 379.26C215.028 410.462 215.194 441.913 221.922 473.945L273.34 745.222C274.337 751.197 283.475 751.114 284.388 745.139L303.244 634.521C306.567 638.753 310.222 643.068 313.628 647.051C322.516 657.342 332.401 667.715 342.202 677.175L384.4 872.189C385.314 877.417 393.122 878.164 395.033 873.185L431.582 785.304L448.527 822.232C450.355 826.63 457.166 826.464 458.828 822.066L476.105 779.993C491.971 790.283 522.373 808.125 530.597 812.523C537.99 816.008 536.91 817.751 542.392 816.174L566.731 923.39C567.811 928.867 576.2 929.116 577.529 923.722L603.28 834.348L620.724 871.11C622.635 875.508 629.446 875.259 631.024 870.695L687.759 720.493C694.072 715.514 700.135 710.535 706.116 705.473L723.976 782.814C724.557 785.387 726.966 787.213 729.624 787.13C732.282 787.047 734.525 785.138 734.94 782.482L756.122 658.171C759.445 654.603 762.684 651.035 765.841 647.383C766.506 646.637 767.087 645.89 767.751 645.226C778.716 632.363 788.601 619.003 798.32 604.895C798.32 604.895 800.978 617.592 803.719 630.952C806.876 646.139 810.282 662.404 810.282 662.404C811.361 668.462 820.665 668.13 821.329 661.989L837.776 535.271C859.54 486.559 870.588 430.959 857.048 378.43C840.352 307.478 789.1 251.381 716.749 236.028C647.887 219.266 581.766 261.505 541.728 311.544C541.063 312.374 540.482 313.121 539.9 313.785C505.511 270.301 452.764 232.128 394.867 232.377Z" fill="#003B4A"/>
<path d="M312.299 595.103C321.934 504.733 416.962 464.983 439.39 400.504C361.308 371.957 266.28 347.062 230.561 377.932C229.731 378.679 228.9 379.509 228.152 380.339C226.325 387.973 224.996 395.11 224.165 401.666C222.088 416.769 221.756 434.362 224.331 454.278L225.577 462.742C226.076 465.979 226.74 469.298 227.488 472.618L278.906 744.06L299.922 620.745C301.998 623.484 304.075 626.222 306.152 628.961C309.225 632.944 312.382 636.844 315.704 640.745C312.299 626.056 310.969 610.621 312.299 595.103Z" fill="#95D4E9"/>
<path d="M248.67 366.232C299.257 349.967 384.317 373.617 441.882 391.957C442.381 389.882 442.796 387.725 443.128 385.65C449.69 328.639 418.624 273.206 373.519 239.68C370.777 240.095 367.953 240.676 365.129 241.257C276.331 261.09 240.945 328.722 228.485 379.094C233.884 373.202 241.028 368.804 248.67 366.232Z" fill="#95D4E9"/>
<path d="M380.662 495.771C359.563 517.015 339.212 539.835 327.251 567.552C316.784 591.535 314.708 617.758 318.113 643.649C327.167 654.105 336.969 664.312 347.27 674.271L389.8 870.944L431.333 771.197L453.678 819.909L473.53 771.612C500.693 789.121 522.706 801.652 533.255 807.461V438.843C514.316 430.296 484.744 417.516 451.269 404.819C439.224 441.582 406.579 468.884 380.662 495.771Z" fill="#95D4E9"/>
<path d="M374.1 239.597C425.85 268.89 460.572 326.98 455.173 387.061C454.841 389.965 454.342 392.869 453.678 395.691C456.17 396.521 458.662 397.268 460.987 398.097C485.326 406.313 509.332 415.192 533.172 424.902V314.366C513.818 290.549 454.093 227.149 374.1 239.597Z" fill="#95D4E9"/>
<path d="M698.807 495.771C672.89 468.884 640.245 441.582 628.283 404.903C625.957 405.732 623.798 406.562 621.804 407.309C596.303 417.018 570.967 427.557 546.297 438.843V807.627L572.296 922.063L602.117 818.498L625.874 868.621L683.107 717.008C691.995 710.037 700.8 702.734 709.439 695.183L709.522 695.266L729.458 781.57L750.889 655.599C754.461 651.782 757.95 647.882 761.356 644.064C764.844 618.007 762.768 591.618 752.218 567.469C740.174 539.836 719.905 517.015 698.807 495.771Z" fill="#95D4E9"/>
<path d="M624.296 387.061C618.897 326.897 653.618 268.808 705.452 239.514C625.044 227.232 565.236 291.296 546.214 314.781V424.985C565.817 417.101 594.06 406.23 625.708 395.691C625.127 392.87 624.628 389.965 624.296 387.061Z" fill="#95D4E9"/>
<path d="M636.258 385.567C636.59 387.642 637.005 389.716 637.504 391.791C717.496 365.983 814.269 344.573 849.406 377.351C850.07 378.015 850.735 378.679 851.316 379.343C838.94 328.971 803.553 261.09 714.672 241.257C711.765 240.593 708.858 240.095 706.033 239.597C660.845 273.123 629.778 328.639 636.258 385.567Z" fill="#95D4E9"/>
<path d="M855.636 401.666C854.722 395.276 853.476 388.223 851.732 380.837C850.818 379.841 849.904 378.845 848.907 377.932C809.285 343.577 699.056 379.26 640.162 400.587C662.59 464.983 757.617 504.982 767.17 595.103C768.499 610.704 767.17 626.389 763.681 641.326C767.17 637.26 770.493 633.11 773.732 629.044C783.95 615.85 793.004 603.07 801.061 590.705L815.764 661.325L832.294 533.778C856.633 479.008 860.038 434.445 855.636 401.666Z" fill="#95D4E9"/>
<path d="M278.906 744.144L299.922 620.829L278.906 524.566V744.144Z" fill="#00ACD8"/>
<path d="M389.8 870.944L431.333 771.197L389.8 624.231V870.944Z" fill="#00ACD8"/>
<path d="M453.678 819.909L473.53 771.612L453.678 614.107V819.909Z" fill="#00ACD8"/>
<path d="M572.213 922.146L602.034 818.581L572.213 663.566V922.146Z" fill="#00ACD8"/>
<path d="M625.874 868.704L683.107 717.091L657.606 661.325L625.874 591.784V868.704Z" fill="#00ACD8"/>
<path d="M729.458 607.966V781.569L750.806 655.682L729.458 607.966Z" fill="#00ACD8"/>
<path d="M815.598 661.325V465.896L832.211 533.778L815.598 661.325Z" fill="#00ACD8"/>
</svg>
