<svg width="1080" height="1080" viewBox="0 0 1080 1080" fill="none" xmlns="http://www.w3.org/2000/svg">
<path d="M1080 0H0V1080H1080V0Z" fill="#902028"/>
<path d="M540 901C340.915 901 179 739.089 179 540.01C179 445.618 214.966 356.774 280.414 289.122C271.055 258.839 265.439 201.682 280.347 154.219L286.899 133.295L298.865 151.745C310.03 167.923 345.327 210.707 376.48 218.128C426.753 192.524 483.243 179.02 540 179.02C597.158 179.02 653.849 192.658 704.389 218.595C718.561 210.44 748.979 187.711 766.026 152.815L780.667 123L785.48 155.222C787.218 161.907 800.388 216.791 782.94 272.944C858.014 341.332 901 438.264 901 540.01C901 739.022 739.085 901 540 901Z" fill="#FAC448"/>
<path d="M770.973 276.153C791.964 216.924 775.385 157.361 775.318 157.361C754.527 199.944 715.954 224.545 705.391 229.759C705.258 230.027 705.124 230.227 704.99 230.495C655.787 204.223 599.632 189.315 540 189.315C481.571 189.315 426.418 203.621 377.951 228.957C334.698 222.005 290.241 157.361 290.174 157.294C274.464 207.298 282.888 267.195 292.247 291.796C228.671 355.304 189.295 443.011 189.295 540.01C189.295 733.674 346.33 890.705 540 890.705C733.67 890.705 890.705 733.674 890.705 540.01C890.705 434.788 844.309 340.396 770.973 276.153Z" fill="#902028"/>
<path d="M362.976 311.65C362.976 311.65 345.661 368.941 376.881 392.338C376.881 392.338 405.226 416.204 456.435 397.753L435.978 374.69C435.978 374.69 389.784 382.378 382.296 350.29C382.296 350.29 376.012 330.769 395.867 339.059L399.945 333.042L362.976 311.65Z" fill="white"/>
<path d="M717.291 304.364C717.291 304.364 746.572 357.844 717.291 386.122C717.291 386.122 691.152 414.399 632.59 404.973L650.372 378.768C650.372 378.768 701.581 378.434 703.72 345.611C703.72 345.611 706.862 325.355 687.007 336.853L681.459 331.639L717.291 304.364Z" fill="white"/>
<path d="M721.369 474.698C719.965 472.024 717.425 469.617 715.353 467.478C710.874 462.732 705.592 458.721 700.044 455.378C688.478 448.426 675.108 444.214 661.671 442.476C637.002 439.267 612 443.412 587.398 447.557C597.092 438.131 598.094 422.354 592.278 410.321C586.462 398.222 575.031 389.531 562.73 383.849C557.515 381.442 550.763 379.771 545.549 381.242C540.334 379.838 533.582 381.442 528.368 383.849C516.067 389.531 504.636 398.222 498.819 410.321C493.003 422.421 494.006 438.198 503.7 447.557C479.165 443.412 454.162 439.267 429.427 442.476C415.99 444.214 402.687 448.426 391.054 455.378C385.439 458.721 380.224 462.799 375.745 467.478C373.673 469.617 371.132 472.091 369.729 474.698C369.528 475.032 366.52 484.258 368.191 483.121C397.472 463.735 436.848 460.058 469.405 473.562C491.8 482.921 510.318 500.302 521.683 521.359C533.516 513.738 547.621 512.736 561.125 510.329C566.273 509.393 571.287 509.727 575.699 511.198C587.131 494.753 603.108 481.316 621.827 473.495C654.317 459.924 693.76 463.668 723.041 483.054C724.511 484.191 721.503 475.032 721.369 474.698Z" fill="#FAC448"/>
<path d="M387.511 506.719C470.273 581.457 520.68 680.261 520.68 680.261C520.68 680.261 520.68 680.328 520.746 680.328C521.148 680.997 529.103 698.044 545.548 698.044C545.548 698.044 560.122 699.915 571.888 671.036C571.888 671.036 629.514 558.862 692.556 505.449C625.57 539.342 559.788 657.934 559.788 657.934C559.788 657.934 547.755 681.13 531.978 660.808C531.911 660.741 531.911 660.674 531.844 660.608C456.435 534.595 386.508 505.85 387.511 506.719Z" fill="#FAC448"/>
<path d="M721.369 474.698C719.965 472.024 717.425 469.617 715.352 467.478C710.873 462.732 705.592 458.721 700.043 455.378C688.478 448.426 675.108 444.214 661.67 442.476C637.002 439.267 611.999 443.412 587.398 447.557C597.092 438.131 598.094 422.354 592.278 410.321C586.462 398.222 575.03 389.531 562.73 383.849C557.515 381.442 550.763 379.771 545.549 381.242V503.042C545.549 503.042 541.471 470.42 521.816 457.384C512.591 450.766 503.633 447.624 503.633 447.624C479.098 443.479 454.095 439.334 429.36 442.543C415.923 444.281 402.619 448.493 390.987 455.445C385.372 458.788 380.157 462.866 375.678 467.545C373.606 469.684 371.065 472.158 369.662 474.765C369.461 475.099 366.386 484.124 368.124 483.188C488.524 419.079 541.07 568.488 544.88 567.82C545.081 567.753 545.281 567.686 545.482 567.619C545.682 567.686 545.883 567.753 546.084 567.82C549.894 568.422 574.964 445.819 722.84 483.054C724.779 483.589 721.503 475.032 721.369 474.698Z" fill="#DAA900"/>
<path d="M592.279 410.255C586.463 398.155 575.031 389.464 562.73 383.782C560.123 382.579 557.182 381.643 554.24 381.108C574.697 393.743 584.123 420.148 586.396 445.886C587.666 445.351 588.936 444.883 590.207 444.348C597.159 434.788 597.493 421.017 592.279 410.255Z" fill="white"/>
<path d="M806.004 489.94C819.575 497.761 841.502 508.992 855.474 516.947C855.608 517.014 855.608 516.88 855.608 516.747C839.764 387.392 748.645 309.98 746.973 304.364C767.697 407.046 704.857 426.365 687.475 427.769C692.088 428.638 734.405 440.337 743.297 460.058C749.113 472.826 753.257 487.466 748.11 500.502C741.157 518.15 722.038 526.975 706.729 538.205C703.119 540.813 699.776 543.62 696.433 546.629C696.433 546.629 696.367 546.695 696.3 546.762C696.233 546.829 696.233 546.829 696.166 546.896C681.258 560.466 665.347 574.371 652.913 590.282C634.595 613.679 620.824 640.085 605.314 665.354C598.161 677.12 589.337 687.749 579.71 697.576C573.426 703.927 557.582 721.575 547.621 721.174C546.618 721.107 545.616 721.174 544.479 721.308C544.212 721.308 543.944 721.441 543.744 721.441C515.265 710.478 497.883 684.273 482.775 659.338C457.438 617.623 430.363 579.586 394.263 546.762C394.196 546.695 394.196 546.695 394.129 546.629C394.062 546.562 394.062 546.562 393.929 546.495C390.653 543.553 387.31 540.746 383.7 538.139C368.391 526.908 349.272 518.084 342.319 500.435C337.172 487.399 341.316 472.759 347.132 459.991C356.024 440.27 398.341 428.572 402.954 427.702C321.127 421.82 324.336 321.144 329.216 304.431C327.211 310.982 229.607 381.041 242.71 513.805C242.71 513.805 270.453 497.828 284.292 489.806C285.361 558.26 276.737 626.849 258.888 692.896C278.944 669.967 298.999 646.97 319.122 624.041C314.576 679.125 335.166 735.747 373.94 774.921C370.263 751.123 376.681 737.953 378.085 719.436C433.772 759.613 489.46 799.723 545.081 839.899C545.081 839.766 545.081 839.565 545.081 839.431C545.148 839.498 545.148 839.565 545.215 839.632C545.215 839.766 545.215 839.899 545.215 840.033C600.902 799.856 656.59 759.746 712.21 719.569C713.614 738.087 720.032 751.256 716.355 775.055C755.129 735.814 775.72 679.192 771.174 624.175C791.229 647.104 811.285 670.1 831.407 693.03C813.491 626.982 804.934 558.394 806.004 489.94Z" fill="#FAC448"/>
<path d="M560.591 400.36C560.591 400.36 568.012 400.36 566.875 413.463C566.875 413.463 557.783 414.867 560.591 400.36Z" fill="#902028"/>
<path d="M535.721 399.826C535.721 399.826 542.005 403.837 534.049 414.265C534.049 414.265 525.693 410.522 535.721 399.826Z" fill="#902028"/>
<path d="M806.003 489.94C819.44 497.694 832.81 504.179 846.247 511.8C846.381 511.866 846.448 511.733 846.314 511.666C841.434 507.454 838.626 496.625 836.554 491.477C831.741 479.578 827.462 467.545 822.047 455.913C810.95 432.114 797.111 410.188 781.869 388.863C778.794 384.584 775.786 380.306 772.777 375.96C780.398 664.017 545.147 793.973 545.147 793.973C545.147 793.973 282.753 664.485 312.034 383.247C309.561 386.59 307.154 389.999 304.748 393.408C290.04 414.6 276.068 437.262 265.706 460.994C261.16 471.422 257.483 482.252 253.205 492.814C251.065 498.095 248.124 510.73 242.709 513.872C256.547 505.85 270.452 497.895 284.291 489.873C285.36 558.327 276.737 626.915 258.887 692.963C278.943 670.033 298.998 647.037 319.121 624.108C314.575 679.192 335.165 735.814 373.939 774.988C370.262 751.189 376.68 738.02 378.084 719.503C433.772 759.679 489.459 799.789 545.08 839.966C545.08 839.832 545.08 839.632 545.08 839.498C545.147 839.565 545.147 839.632 545.214 839.699C545.214 839.832 545.214 839.966 545.214 840.1C600.901 799.923 656.589 759.813 712.21 719.636C713.613 738.154 720.031 751.323 716.354 775.122C755.128 735.881 775.719 679.259 771.173 624.241C791.228 647.171 811.284 670.167 831.406 693.097C813.49 626.982 804.933 558.394 806.003 489.94Z" fill="#DAA900"/>
<path d="M692.021 263.184C674.84 266.995 652.579 273.88 626.908 294.871C632.59 279.964 660.066 258.839 668.489 252.822C628.779 235.375 592.813 225.013 540 225.615C490.53 225.013 449.148 235.976 407.901 254.427C409.639 256.098 446.408 290.192 444.603 297.411C444.402 298.28 445.004 298.748 444.603 299.016C425.617 286.983 402.285 265.992 374.742 260.577C323.2 250.483 298.531 199.677 298.531 199.677C298.531 199.677 300.537 218.996 301.606 227.219C302.943 237.113 304.748 247.073 308.693 256.366C325.138 295.139 356.96 289.523 393.394 294.671C433.839 300.42 453.026 338.457 461.115 351.961C465.059 358.579 470.274 366.668 477.561 367.002C477.761 367.002 477.962 367.069 478.162 367.136C478.563 367.136 478.898 367.069 479.232 367.002C479.366 367.002 479.499 367.002 479.633 367.002C479.7 367.002 479.833 366.935 479.9 366.935C486.519 365.933 490.797 358.379 492.134 351.426C495.076 336.519 491.131 320.341 481.639 308.509C501.026 314.726 518.206 327.494 529.772 344.273C532.312 347.95 532.78 352.028 536.457 354.568C541.003 357.643 548.022 355.237 548.423 355.37C548.825 355.237 549.226 355.103 549.56 354.969C553.571 353.031 554.908 348.752 557.448 345.075C569.014 328.296 578.908 314.859 598.228 308.575C588.735 320.475 584.791 336.586 587.732 351.493C589.203 358.98 594.083 367.336 601.704 367.203C601.905 367.203 602.039 367.136 602.172 367.136C605.983 367.403 610.863 365.732 613.671 362.724C641.214 333.31 626.105 315.327 677.448 301.356C684.066 299.551 708.534 290.526 708.601 290.526C758.472 278.76 760.344 229.692 764.355 199.81C753.458 226.484 746.038 251.084 692.021 263.184Z" fill="#FAC448"/>
<path d="M539.398 234.439C589.069 233.904 623.632 243.062 660.734 258.639C663.208 256.566 666.35 254.293 668.556 252.756C628.779 235.308 592.211 224.946 539.398 225.548C489.928 224.946 448.814 235.776 407.566 254.226C408.101 254.761 410.976 257.235 414.118 260.243C453.494 243.33 492.134 233.904 539.398 234.439Z" fill="white"/>
<path d="M509.783 285.98C521.415 292.933 520.48 294.136 526.229 298.348C529.772 300.955 536.725 308.175 544.479 308.308C554.574 308.509 573.159 290.66 579.242 288.788C572.29 284.443 558.117 302.96 544.479 301.958C532.379 301.022 512.123 283.106 509.783 285.98Z" fill="#902028"/>
<path d="M373.205 491.744C373.205 491.744 397.539 474.297 426.553 478.709L459.912 547.096C407.3 487.667 373.205 491.744 373.205 491.744Z" fill="#FAC448"/>
<path d="M712.745 487.867C712.745 487.867 668.556 480.781 649.904 485.394L611.531 556.121C673.102 490.675 712.745 487.867 712.745 487.867Z" fill="#FAC448"/>
<path d="M508.646 598.371L535.588 644.965C535.588 644.965 542.941 662.346 549.226 653.321L583.32 598.304C583.32 598.304 548.557 634.068 541.738 627.116L508.646 598.371Z" fill="white"/>
</svg>
