<svg width="1080" height="1080" viewBox="0 0 1080 1080" fill="none" xmlns="http://www.w3.org/2000/svg">
<path d="M1080 0H0V1080H1080V0Z" fill="#31006F"/>
<path d="M948.7 617.459C945.7 610.754 941.9 604.449 937.4 598.644C977.2 480.254 912.1 365.667 825 312.226C752.4 267.692 645.2 253.081 558.8 343.05C546.5 342.149 534.2 342.149 521.9 343.25C435.4 253.181 328.2 267.592 255.7 312.026C168.5 365.367 103.2 480.054 142.9 598.544C135.2 608.852 129.6 621.762 124.9 632.67C123.8 635.272 122.7 637.674 121.7 639.976L104 679.006L143 661.192C146.4 659.591 150.7 657.489 155.2 655.287C157.9 653.986 160.8 652.485 163.6 651.084C186.5 698.921 246.4 742.154 295.3 742.854C321.3 743.254 341.8 732.847 355.9 713.132C396 768.474 463.8 802.299 539.7 803C540.6 803 541.5 803 542.3 803C618.2 803 684.6 770.375 725.4 714.332C740.1 733.647 761.4 743.555 787 742.854C835.8 741.353 894 698.821 916.8 651.084C919.6 652.485 922.4 653.886 925 655.187C929.6 657.489 934 659.691 937.5 661.292L976 678.805L948.7 617.459Z" fill="white"/>
<path d="M354 562.417C381 556.312 412.2 562.617 433.1 580.731C440.3 570.623 447.9 560.816 456 551.108C433.3 518.083 415.8 483.157 404.4 447.83C375.5 477.953 356.4 520.285 354 562.417Z" fill="#FFC629"/>
<path d="M465.8 539.9C476 528.491 487 517.382 498.2 506.975C479.1 473.149 483.3 425.412 504.6 392.287C471.7 398.892 441.1 414.004 415.9 436.521C426.5 471.748 443.4 506.774 465.8 539.9Z" fill="#FFC629"/>
<path d="M509.4 496.967C550.8 461.14 596.7 433.919 643.6 417.306C608.3 395.189 565.5 384.882 524.3 389.185C500.8 418.207 492.5 463.541 509.4 496.967Z" fill="#FFC629"/>
<path d="M687.8 409.8C691.6 404.096 696.7 399.192 702.2 394.889C698.9 387.383 691.3 383.18 685.1 377.976C683.8 376.875 682.5 375.574 681.3 374.373C681.4 374.473 681.5 374.673 681.7 374.774C677.5 370.771 673.8 362.664 679.1 358.161C651.7 364.566 625.8 339.547 597.6 349.354C592.5 353.457 587.7 357.861 583.1 362.664C620.4 370.17 657.1 387.984 685.2 414.003C686.1 412.602 686.9 411.101 687.8 409.8Z" fill="#D0D2D3"/>
<path d="M323.9 375.074C338.5 376.375 352 380.378 364.9 386.183C369.7 368.069 392.9 367.668 382.4 343.95C407 352.857 430 334.743 453.4 330.24C425.6 315.829 394.2 309.024 363 310.225C349.1 321.633 340.3 342.95 322.3 347.253C334 350.255 327.3 367.268 323.9 375.074Z" fill="#D0D2D3"/>
<path d="M413.4 359.662C413.4 359.762 413.4 359.762 413.4 359.662C413.3 359.662 413.3 359.662 413.3 359.662C410.1 359.762 406.8 359.762 403.6 358.862C402.8 358.662 402 358.361 401.2 358.061C412 374.273 382.9 381.879 378.1 394.789C385.7 400.393 391.5 407.699 396 415.405C425.1 389.985 459.5 370.671 497.7 362.965C489 352.057 478.1 345.151 463.8 347.553C447.3 347.853 432.7 356.06 416.8 359.062C415.7 359.462 414.6 359.662 413.4 359.662Z" fill="#D0D2D3"/>
<path d="M698 344.05C687.1 367.468 710.9 368.369 715.5 386.283C728.1 379.578 742.1 375.875 756.5 375.174C753.2 366.968 746.1 351.056 758.1 347.253C739.6 341.649 731.3 322.234 717.4 310.225C694.3 309.424 671.3 312.727 649.5 320.533C641.8 323.335 634.3 326.637 626.9 330.34C650.4 334.944 673.2 352.757 698 344.05Z" fill="#D0D2D3"/>
<path d="M658.8 427.514C609.5 443.326 560.8 471.447 517.3 509.476C575.6 569.822 659.9 539.999 733.4 565.219C733 557.913 732.3 550.607 731 543.502C722.6 497.367 695.8 455.635 658.8 427.514Z" fill="#FFC629"/>
<path d="M898 561.516C896.7 557.013 893.8 553.11 891.5 549.107C890.7 560.015 889 570.823 886.7 581.131C894.4 583.933 901.8 587.836 908.4 592.74C913.6 576.728 916.5 560.115 917.5 543.302C909.7 547.706 902.7 553.71 898 561.516Z" fill="#D0D2D3"/>
<path d="M876.4 449.931C879.7 448.129 884 447.829 887.3 449.631C888.3 450.331 889 451.132 889.5 452.233C888.4 444.026 891.2 435.92 894.5 428.515C882.9 404.696 867.9 382.179 848.6 363.965C849.8 375.974 853.1 388.684 860.9 397.791C855.5 398.091 849 399.793 844.3 403.095C843.9 403.395 843.6 403.796 843.3 404.296C857.8 416.505 868.7 432.818 876.4 449.931Z" fill="#D0D2D3"/>
<path d="M252.4 393.388C268.5 383.781 286.7 377.476 305.4 375.574C306.9 371.071 309.2 366.568 309.7 361.864C309.1 355.359 303.6 349.454 299.1 345.351C316.3 341.448 328.2 326.137 338.3 312.426C306.1 318.231 275 330.84 248.4 349.955C248.1 354.358 247.7 358.862 247.1 363.265C246 371.271 244.1 378.877 239 384.781C239.3 384.581 239.5 384.481 239.7 384.381C245.3 382.48 250.7 388.484 252.4 393.388Z" fill="#D0D2D3"/>
<path d="M781.2 345.451C770.9 352.957 768.4 364.566 775 375.574C793.7 377.476 811.9 383.881 828 393.388C829.7 388.184 835.6 381.679 841.3 384.982C833.2 375.374 832.9 362.064 831.9 350.155C811.1 334.943 787.6 323.535 762.8 317.03C755.9 315.228 749 313.627 742 312.526C752.5 326.037 763.6 341.248 781.2 345.451Z" fill="#D0D2D3"/>
<path d="M883.5 469.145C888.3 487.86 892.3 507.274 892.2 526.889C897.9 527.09 905.4 531.493 904.2 537.998C907.6 532.594 912.3 528.391 918 525.388C916.7 499.068 912.2 472.748 902.9 448.029C899.7 456.536 897.9 465.643 899.1 474.65C894.6 471.547 888.7 469.946 883.5 469.145Z" fill="#D0D2D3"/>
<path d="M506.4 519.284C495.2 529.692 484.3 540.8 474.4 552.109C524.3 621.762 603 683.008 679.5 707.927C694.5 692.516 707.3 674.902 716.4 655.187C727 632.27 732.9 606.95 733.4 580.33C660 555.311 561 582.132 506.4 519.284Z" fill="#FFC629"/>
<path d="M392.4 691.615C392.4 691.615 392.4 691.715 392.4 691.615C420.6 728.543 462.3 754.663 508.1 762.87C483.7 709.129 476.5 648.182 435.5 603.048C416.7 632.07 402.2 661.993 392.4 691.615Z" fill="#FFC629"/>
<path d="M799.2 691.215C808.7 701.923 827.6 704.225 839.1 695.919C865.1 680.607 881.5 653.686 894.7 625.965C887.1 624.264 879.4 623.263 871.8 623.163C855.9 652.986 831.3 679.306 799.2 691.215Z" fill="#D0D2D3"/>
<path d="M464.7 563.518C457.3 572.424 450.4 581.531 443.9 590.738C491.1 639.475 496.5 707.727 525.7 765.371C530.9 765.872 536.1 766.072 541.3 766.272C589.3 766.873 633.6 748.859 667.6 719.236C591.9 692.616 514.8 632.37 464.7 563.518Z" fill="#FFC629"/>
<path d="M850.7 587.236C857.8 591.339 864.6 595.942 871.3 600.646C848.7 593.14 823.8 586.035 800.9 595.842C809.5 597.944 817.8 600.646 826.4 603.048C801 602.047 771.7 602.447 755 624.764C764.3 624.064 773.7 624.964 782.7 627.466C769.4 629.468 755.6 633.471 745.1 642.278C742.7 650.784 737.4 658.39 737.6 667.397C740.3 665.796 743.1 664.294 745.9 663.093C755.3 658.79 765.6 656.588 775.9 656.188C761 662.293 747.9 673.101 740.9 687.712C740.9 687.612 744.3 695.018 746.9 698.12C757.6 693.316 769.4 691.015 781.1 691.315C772.8 695.318 765.1 700.822 758.9 707.627C776.4 716.234 801.1 711.931 820.9 704.425C807 706.827 790.4 699.421 787.2 684.41C785.8 691.315 787.1 698.42 789.5 704.925C778.2 687.812 785.6 663.994 796.8 648.682C821.8 611.254 872.6 602.347 912.3 619.46C916.1 620.961 919.7 622.663 923.2 624.664C908.9 599.245 879 586.735 850.7 587.236Z" fill="#D0D2D3"/>
<path d="M342.9 667.497C342.7 660.491 341.1 653.486 338.6 646.781C335.8 640.776 328.5 637.374 322.8 634.171C315 630.469 306.4 628.167 297.8 627.466C306.8 624.964 316.2 623.964 325.6 624.764C320.4 618.76 314.2 613.656 307.7 609.353C290.8 602.948 272.1 602.447 254.2 603.148C262.6 600.346 271 597.844 279.7 595.942C256.7 586.135 231.9 593.34 209.2 600.746C215.9 596.042 222.7 591.339 229.8 587.336C201.4 586.835 171.6 599.345 157.2 624.864C198.3 601.647 255.9 607.551 283.6 648.783C283.6 648.783 283.6 648.783 283.6 648.883C295.3 663.894 301.5 687.612 291.1 704.825C294 698.52 294.6 691.415 293.2 684.61C290 699.521 273.5 707.027 259.5 704.625C272.3 709.429 286.5 712.531 300.3 712.331H300.4C307.6 712.131 315.1 711.03 321.5 707.928C315.3 701.122 307.6 695.518 299.3 691.615C310.9 691.915 322.8 693.617 333.4 698.42C336.1 695.318 339.4 687.712 339.5 687.712C338.6 685.911 337.5 684.009 336.4 682.308C328.9 670.499 317.4 661.792 304.5 656.488C316.4 656.889 328.2 659.891 338.8 665.395C340.2 665.896 341.6 666.696 342.9 667.497Z" fill="#D0D2D3"/>
<path d="M353.2 577.428C353 612.555 363.7 647.182 382.1 676.904V676.804C392.5 648.182 406.9 619.861 424.8 592.84C405.6 575.827 378.2 571.124 353.2 577.428Z" fill="#FFC629"/>
<path d="M176.2 537.998C175 531.493 182.5 527.09 188.2 526.889C189.1 507.575 191.2 487.459 196.9 469.145C191.6 469.646 185.8 471.948 181.5 474.65C182.2 465.643 180.6 456.536 177.7 448.029C168.5 472.648 163.4 499.068 162.5 525.288C168.1 528.391 172.5 532.994 176.2 537.998Z" fill="#D0D2D3"/>
<path d="M162.8 543.302C163.8 560.115 166.8 576.728 171.9 592.74C178.6 587.836 185.9 583.933 193.6 581.131C191.3 570.723 189.7 560.015 188.8 549.107C186.4 553.11 183.9 557.213 182.3 561.516C177.8 553.61 170.6 547.706 162.8 543.302Z" fill="#D0D2D3"/>
<path d="M191.1 446.228C191.2 448.33 191.2 450.231 190.9 452.333C193 447.329 199.9 447.929 204 449.931C211.6 432.718 222.8 416.305 237 404.296C233 399.192 225.3 398.992 219.5 397.891C227.1 388.684 230.1 375.874 231.8 364.065C217.9 377.175 206.3 392.587 196.5 409.1C192.7 415.405 189.2 422.01 185.9 428.615C188.5 434.219 190.6 440.123 191.1 446.228Z" fill="#D0D2D3"/>
<path d="M208.6 623.163C201 623.263 193.3 624.264 185.7 625.965C201.3 656.989 220.6 692.616 255.9 700.722C265 701.122 275.1 698.521 281.2 691.215C249.6 679.406 224.2 653.886 208.6 623.163Z" fill="#D0D2D3"/>
<path d="M919.2 602.047C998.5 393.988 725.9 182.227 565.1 359.862C548.4 357.961 531.7 358.161 515.5 360.163C354.6 181.827 82.0998 393.988 161.2 602.047C150 612.355 142.6 632.87 136.3 646.581C146 642.178 162.9 632.971 172.6 629.668C192.4 701.122 323.9 778.982 354.3 679.906C425.1 818.312 649.3 826.218 726.5 682.408C760.4 777.981 887.6 700.122 907.7 629.668C917.5 632.87 934.3 642.178 944 646.581L934 623.964C930.3 615.657 925.3 608.252 919.2 602.047ZM902.8 448.03C912.1 472.748 916.6 499.068 917.9 525.389C912.2 528.391 907.5 532.594 904.1 537.998C905.3 531.393 897.8 527.09 892.1 526.89C892.2 507.375 888.2 487.96 883.4 469.146C888.6 469.946 894.5 471.548 898.8 474.65C897.8 465.643 899.6 456.536 902.8 448.03ZM917.6 543.302C916.6 560.115 913.6 576.728 908.5 592.74C901.8 587.836 894.5 583.933 886.8 581.131C889.1 570.723 890.8 560.015 891.6 549.107C893.9 553.11 896.8 557.113 898.1 561.516C902.7 553.71 909.7 547.706 917.6 543.302ZM844.4 403.195C849.1 399.993 855.5 398.192 861 397.891C853.2 388.684 849.9 376.075 848.7 364.066C867.9 382.279 882.9 404.797 894.6 428.615C891.3 436.02 888.5 444.127 889.6 452.333C889.1 451.232 888.4 450.431 887.4 449.731C884.1 447.829 879.9 448.13 876.5 450.031C868.8 432.918 857.8 416.506 843.5 404.396C843.7 403.896 844 403.496 844.4 403.195ZM762.8 317.03C787.6 323.435 811.1 334.843 831.9 350.155C832.9 362.164 833.2 375.474 841.3 384.982C835.5 381.779 829.7 388.184 828 393.388C811.9 383.781 793.7 377.376 775 375.574C768.4 364.566 770.9 352.957 781.2 345.451C763.6 341.248 752.5 326.037 742 312.526C749 313.627 755.9 315.228 762.8 317.03ZM649.5 320.432C671.3 312.726 694.3 309.324 717.4 310.125C731.3 322.134 739.6 341.448 758.1 347.153C746.1 350.956 753.3 366.868 756.5 375.074C742.1 375.875 728.1 379.477 715.5 386.182C710.9 368.369 687.1 367.468 698 344.05C673.2 352.757 650.4 334.943 626.9 330.34C634.3 326.537 641.8 323.235 649.5 320.432ZM733.3 565.219C659.9 540 575.6 569.922 517.2 509.476C560.7 471.447 609.4 443.226 658.7 427.514C695.8 455.735 722.5 497.467 730.8 543.502C732.2 550.608 732.9 557.813 733.3 565.219ZM597.6 349.354C625.8 339.547 651.8 364.566 679.1 358.161C673.9 362.665 677.6 370.771 681.7 374.774C681.6 374.674 681.5 374.474 681.3 374.373C682.5 375.674 683.7 376.875 685.1 377.976C691.2 383.08 698.9 387.383 702.2 394.889C696.7 399.192 691.6 404.096 687.8 409.8C686.9 411.202 686.1 412.603 685.2 414.104C657.1 388.084 620.4 370.17 583.1 362.765C587.6 357.861 592.5 353.458 597.6 349.354ZM524.3 389.085C565.5 384.681 608.2 395.089 643.6 417.206C596.7 433.919 550.8 461.14 509.4 496.867C492.5 463.541 500.8 418.207 524.3 389.085ZM504.6 392.187C483.3 425.312 479.1 473.049 498.2 506.874C486.9 517.282 475.9 528.391 465.8 539.8C443.4 506.674 426.5 471.648 415.9 436.421C441.1 413.904 471.7 398.792 504.6 392.187ZM455.9 551.208C447.8 560.816 440.2 570.723 433 580.831C412.2 562.617 381 556.312 353.9 562.517C356.4 520.385 375.5 477.952 404.2 448.03C415.7 483.256 433.2 518.183 455.9 551.208ZM497.7 363.165C459.5 370.771 425.1 390.186 396 415.605C391.5 407.899 385.7 400.593 378.1 394.989C383 382.079 412 374.474 401.2 358.261C402 358.561 402.8 358.862 403.6 359.062C406.8 359.862 410 359.962 413.3 359.862C413.3 359.862 413.3 359.862 413.4 359.862C414.5 359.762 415.7 359.662 416.8 359.462C432.6 356.36 447.3 348.153 463.8 347.953C478.1 345.351 489 352.257 497.7 363.165ZM363 310.225C394.2 309.124 425.6 315.829 453.4 330.34C430 334.843 407 352.957 382.4 344.05C392.9 367.768 369.7 368.169 364.9 386.283C352 380.478 338.5 376.475 323.9 375.174C327.3 367.368 334 350.355 322.3 347.253C340.3 342.95 349.1 321.633 363 310.225ZM247.2 363.465C247.8 359.062 248.2 354.558 248.5 350.155C275.1 330.94 306.2 318.331 338.4 312.626C328.4 326.337 316.4 341.548 299.2 345.552C303.6 349.655 309.1 355.559 309.8 362.064C309.3 366.768 307 371.271 305.5 375.775C286.8 377.676 268.6 383.881 252.5 393.588C250.8 388.684 245.4 382.68 239.9 384.781C239.6 384.881 239.4 385.082 239.2 385.182C244.2 379.077 246.1 371.471 247.2 363.465ZM196.4 409.1C206.2 392.587 217.8 377.276 231.7 364.066C230 375.875 227 388.684 219.4 397.891C225.2 399.092 232.9 399.292 236.9 404.296C222.7 416.305 211.5 432.718 203.9 449.931C199.8 447.93 193 447.329 190.8 452.333C191.1 450.331 191.1 448.33 191 446.228C190.5 440.124 188.4 434.219 185.7 428.615C189.1 421.91 192.6 415.405 196.4 409.1ZM162.4 525.288C163.3 499.068 168.4 472.548 177.6 448.03C180.5 456.536 182.1 465.643 181.4 474.65C185.7 471.948 191.5 469.646 196.8 469.146C191.1 487.36 189.1 507.575 188.1 526.89C182.4 527.09 174.9 531.493 176.1 537.998C172.5 532.994 168.1 528.391 162.4 525.288ZM193.6 581.131C185.9 583.933 178.5 587.836 171.9 592.74C166.7 576.728 163.8 560.115 162.8 543.302C170.6 547.706 177.8 553.71 182.4 561.616C183.9 557.213 186.5 553.21 188.9 549.207C189.7 560.015 191.3 570.723 193.6 581.131ZM185.7 625.965C193.3 624.264 201 623.263 208.6 623.163C224.2 653.886 249.6 679.406 281.2 691.215C275.1 698.52 265 701.122 255.9 700.722C220.5 692.616 201.3 656.989 185.7 625.965ZM336.5 682.108C336.5 682.008 336.5 682.108 336.5 682.108C337.6 683.909 338.6 685.811 339.6 687.612C339.6 687.612 336.2 695.218 333.5 698.32C322.8 693.517 311 691.715 299.4 691.515C307.7 695.518 315.4 701.022 321.6 707.828C315.1 710.93 307.6 712.031 300.5 712.231H300.4C286.7 712.431 272.4 709.329 259.6 704.525C273.5 706.927 290.1 699.521 293.3 684.51C294.7 691.215 294.1 698.42 291.2 704.725C301.7 687.612 295.5 663.794 283.7 648.783C283.7 648.783 283.7 648.783 283.7 648.682C256 607.451 198.4 601.547 157.3 624.764C171.7 599.245 201.5 586.735 229.9 587.236C222.8 591.339 215.9 595.942 209.3 600.646C232 593.24 256.8 586.035 279.8 595.842C271.1 597.644 262.7 600.145 254.3 603.048C272.2 602.347 290.9 602.848 307.8 609.252C314.3 613.556 320.5 618.76 325.7 624.664C316.4 623.964 306.9 624.864 297.9 627.366C306.5 628.067 315.1 630.369 322.9 634.071C328.6 637.174 335.9 640.576 338.7 646.681C341.2 653.386 342.8 660.391 343 667.397C341.7 666.596 340.3 665.796 339 665.095C328.5 659.591 316.6 656.488 304.7 656.188C317.5 661.592 329 670.299 336.5 682.108ZM382.1 676.804V676.904C363.7 647.181 353 612.555 353.2 577.428C378.2 571.123 405.6 575.827 424.8 592.84C406.9 619.861 392.5 648.182 382.1 676.804ZM508.1 762.87C462.3 754.663 420.6 728.543 392.4 691.615C402.2 661.993 416.7 631.97 435.6 603.048C476.5 648.282 483.7 709.229 508.1 762.87ZM541.3 766.272C536.1 766.072 530.9 765.872 525.7 765.371C496.5 707.727 491.1 639.475 443.9 590.738C450.4 581.531 457.3 572.424 464.7 563.518C514.8 632.37 591.9 692.616 667.7 719.236C633.6 748.759 589.3 766.772 541.3 766.272ZM716.4 655.087C707.3 674.802 694.5 692.416 679.5 707.828C603 682.909 524.3 621.762 474.4 552.009C484.4 540.7 495.2 529.492 506.4 519.184C561.1 582.032 660 555.211 733.4 580.23C732.9 606.851 727.1 632.27 716.4 655.087ZM839.1 695.918C827.6 704.225 808.8 701.923 799.2 691.215C831.3 679.306 855.9 653.086 871.8 623.163C879.4 623.263 887.1 624.264 894.7 625.965C881.5 653.686 865.2 680.607 839.1 695.918ZM912.3 619.56C872.6 602.547 821.8 611.454 796.8 648.783C785.5 664.094 778.2 687.912 789.5 705.025C787.1 698.52 785.8 691.415 787.2 684.51C790.4 699.421 807 706.927 820.9 704.525C801.1 712.131 776.4 716.334 758.9 707.727C765.1 700.822 772.8 695.418 781.1 691.415C769.4 691.215 757.6 693.517 746.9 698.22C744.3 695.118 740.9 687.712 740.9 687.812C747.9 673.201 760.9 662.393 775.9 656.288C765.6 656.589 755.3 658.89 745.9 663.194C743.1 664.394 740.3 665.896 737.6 667.497C737.3 658.49 742.6 650.784 745.1 642.378C755.6 633.571 769.3 629.568 782.7 627.566C773.7 625.064 764.3 624.064 755 624.864C771.7 602.547 801 602.147 826.4 603.148C817.9 600.746 809.6 598.144 800.9 595.942C823.9 586.135 848.7 593.24 871.3 600.746C864.6 596.042 857.8 591.339 850.7 587.336C879.1 586.835 908.9 599.345 923.3 624.864C919.7 622.763 916.1 621.061 912.3 619.56Z" fill="#31006F"/>
</svg>
