<svg width="1080" height="1080" viewBox="0 0 1080 1080" fill="none" xmlns="http://www.w3.org/2000/svg">
<path d="M1080 0H0V1080H1080V0Z" fill="#FFBF3C"/>
<path d="M469.664 867.992C467 863.972 465.668 861.292 464.337 859.952C433.701 829.13 408.393 792.949 391.077 752.747C375.094 717.906 363.106 680.384 356.446 641.522C355.114 634.822 353.782 628.122 353.782 621.422C352.45 613.381 348.454 609.361 339.13 612.041C311.158 620.081 287.182 634.822 268.535 657.603C252.551 676.364 243.227 697.805 239.231 723.266C236.567 743.367 236.567 762.128 244.559 780.888C245.891 782.228 245.891 784.909 245.891 786.249C245.891 787.589 245.891 787.589 247.223 788.929C231.239 782.228 177.96 692.445 183.288 672.344C189.948 685.744 195.276 697.805 200.603 708.525C201.935 708.525 201.935 708.525 203.267 708.525C204.599 705.845 205.931 703.165 207.263 700.485C215.255 677.704 223.247 656.263 239.231 636.162C264.539 604.001 296.506 582.56 335.134 573.179C349.786 569.159 349.786 567.819 351.118 553.079C352.45 534.318 353.782 515.557 355.114 496.796C355.114 491.436 351.118 486.076 345.79 487.416C332.47 488.756 317.818 491.436 304.498 494.116C259.211 503.496 219.251 524.937 183.288 553.079C180.624 555.759 177.96 557.099 176.628 559.779C173.964 562.459 172.632 565.139 169.968 569.159C163.308 536.998 165.972 506.177 171.3 476.695C172.632 476.695 172.632 476.695 173.964 476.695C173.964 486.076 173.964 494.116 173.964 504.836C180.624 500.816 185.952 498.136 191.28 495.456C229.907 474.015 271.199 457.934 316.486 451.234C328.474 449.894 340.462 448.554 353.782 447.214C361.774 445.874 367.102 443.194 368.434 435.153C371.098 427.113 372.43 417.733 375.093 409.692C377.757 401.652 373.762 398.972 368.434 394.952C359.11 389.591 349.786 384.231 341.794 377.531C309.826 354.75 291.178 323.929 283.187 285.067C283.187 282.387 280.523 279.707 279.191 278.367C276.527 279.707 273.863 281.047 272.531 282.387C269.867 285.067 265.871 287.747 263.207 291.767C260.543 294.447 259.211 297.128 255.215 299.808C264.539 268.986 321.814 215.384 343.126 214.044C340.462 218.064 336.466 223.424 332.47 227.444C320.482 242.185 313.822 256.926 317.818 277.027C320.482 293.107 327.142 306.508 337.798 318.568C351.118 334.649 364.438 348.05 385.749 353.41C391.077 354.75 395.073 353.41 397.737 349.39C400.401 345.37 403.065 340.009 405.729 335.989C423.045 299.808 444.357 268.986 470.996 239.505C490.976 218.064 512.288 197.963 537.596 181.883C538.928 180.542 541.592 179.202 544.256 176.522C538.928 173.842 533.6 171.162 528.272 169.822C525.608 168.482 522.944 168.482 521.612 167.142C517.616 164.462 514.952 160.442 510.956 157.761C514.952 155.081 518.948 152.401 524.276 151.061C561.571 147.041 598.867 155.081 634.831 164.462C685.446 177.862 730.733 203.323 772.025 234.145C788.009 246.205 802.661 263.626 817.312 278.367C837.292 298.468 851.944 321.249 866.596 346.71C882.58 374.851 894.568 404.332 903.892 435.153C915.879 476.695 919.875 518.237 917.211 561.119C915.879 590.6 910.551 618.741 902.56 646.883C890.572 687.084 873.256 725.946 849.28 760.787C826.636 792.949 799.997 822.43 769.361 846.551C733.397 874.692 693.438 896.133 650.814 910.874C625.507 918.914 598.867 925.615 572.227 926.955C553.579 928.295 536.264 930.975 517.616 929.635C472.328 928.295 428.373 920.254 387.081 901.494C367.102 893.453 348.454 882.733 329.806 872.012C324.478 869.332 317.818 865.312 320.482 857.272C323.146 850.571 331.138 853.251 336.466 854.592C359.11 858.612 383.085 863.972 405.729 865.312C425.709 866.652 447.021 865.312 468.332 865.312C461.673 870.672 464.337 869.332 469.664 867.992ZM392.409 545.038C393.741 545.038 393.741 545.038 392.409 545.038C393.741 549.058 393.741 553.079 393.741 557.099C392.409 565.139 396.405 569.159 405.729 570.499C411.057 571.839 416.385 571.839 420.381 573.179C470.996 585.24 513.62 613.381 553.579 644.202C577.555 662.963 600.199 681.724 624.175 699.145C642.822 712.545 664.134 724.606 684.114 735.326C696.102 742.027 700.098 740.687 706.758 731.306C734.729 693.785 754.709 652.243 766.697 608.021C768.029 602.661 766.697 597.3 761.369 594.62C742.721 585.24 725.406 575.86 706.758 567.819C657.474 549.058 606.859 530.298 556.243 512.877C529.604 503.496 501.632 499.476 473.66 492.776C456.345 488.756 437.697 487.416 419.049 484.736C405.729 483.396 397.737 487.416 396.405 498.136C395.073 514.217 393.741 528.958 392.409 545.038ZM778.685 514.217C778.685 499.476 778.685 483.396 777.353 468.655C773.357 441.854 766.697 415.053 757.373 389.592C746.717 360.11 730.733 331.969 712.086 305.168C708.09 299.808 704.094 298.468 700.098 302.488C694.77 306.508 690.774 309.188 685.446 313.208C656.142 335.989 625.507 357.43 593.539 374.851C561.571 392.272 528.272 405.672 490.976 411.032C476.324 413.713 461.673 413.713 447.021 415.053C439.029 415.053 431.037 413.713 423.045 413.713C419.049 413.713 415.053 416.393 413.721 419.073C411.057 424.433 411.057 429.793 409.725 435.153C408.393 439.174 411.057 441.854 415.053 443.194C424.377 444.534 432.369 444.534 441.693 445.874C469.664 449.894 496.304 452.574 524.276 459.274C568.231 469.995 610.855 483.396 653.478 498.136C692.106 511.537 729.401 528.958 768.029 545.038C776.021 549.058 778.685 547.718 778.685 538.338C778.685 531.638 778.685 523.597 778.685 514.217ZM665.466 776.868C662.802 774.188 661.47 772.848 658.806 771.508C624.175 754.087 593.539 728.626 562.903 704.505C536.264 683.064 508.292 661.623 480.32 642.862C459.009 628.122 435.033 617.401 408.393 612.041C400.401 610.701 397.737 612.041 397.737 621.422C397.737 625.442 399.069 629.462 399.069 633.482C404.397 668.323 415.053 701.825 429.705 733.986C449.685 778.208 477.656 815.73 514.952 847.891C522.944 854.592 530.936 858.612 541.592 853.252C565.567 843.871 588.211 833.151 610.855 819.75C630.835 806.349 648.15 792.949 665.466 776.868ZM449.685 373.511C452.349 373.511 455.013 372.171 459.009 372.171C492.308 372.171 524.276 361.45 554.911 346.71C596.203 326.609 633.499 298.468 669.462 270.326C676.122 264.966 676.122 260.946 670.794 255.586C649.482 235.485 625.507 219.404 601.531 203.323C586.879 193.943 574.891 196.623 561.571 206.004C538.928 222.084 516.284 239.505 498.968 260.946C481.652 282.387 467 305.168 451.017 329.289C444.357 340.009 440.361 350.73 435.033 362.79C433.701 366.811 432.369 370.831 437.697 372.171C441.693 372.171 445.689 372.171 449.685 373.511Z" fill="black"/>
<path d="M205.931 456.595C204.599 453.915 203.267 451.235 201.935 448.555C199.271 439.174 197.939 429.794 195.275 420.414C191.279 402.993 177.96 396.292 163.308 392.272C156.648 390.932 149.988 389.592 143.328 386.912C140.664 385.572 139.332 382.892 138 381.552C140.664 380.212 141.996 377.532 144.66 376.192C151.32 374.852 157.98 373.512 165.972 372.171C187.283 368.151 197.939 354.751 201.935 334.65C203.267 327.95 204.599 321.249 205.931 315.889C207.263 313.209 208.595 311.869 211.259 310.529C212.591 311.869 215.255 313.209 216.587 315.889C217.919 322.589 220.583 329.29 220.583 337.33C224.579 361.451 239.231 373.512 261.875 376.192C267.203 377.532 272.53 378.872 277.858 380.212C279.19 380.212 281.854 382.892 281.854 384.232C281.854 385.572 279.19 388.252 277.858 388.252C271.199 390.932 264.539 392.272 256.547 393.612C233.903 396.293 221.915 411.033 217.919 432.474C216.587 437.834 215.255 444.535 213.923 449.895C212.591 452.575 211.259 455.255 209.927 456.595C208.595 456.595 207.263 456.595 205.931 456.595Z" fill="white"/>
</svg>
